<svg width="327" height="204" viewBox="0 0 327 204" version="1.1" xmlns="http://www.w3.org/2000/svg" xmlns:xlink="http://www.w3.org/1999/xlink">
<title>Group 7</title>
<desc>Created using Figma</desc>
<g id="Canvas" transform="translate(4216 697)">
<g id="Group 7">
<g id="Vector 2">
<use xlink:href="#path0_fill" transform="translate(-4214 -695)" fill="#445362"/>
<use xlink:href="#path1_fill" transform="translate(-4214 -695)" fill="#445362"/>
<use xlink:href="#path2_fill" transform="translate(-4214 -695)" fill="#445362"/>
<use xlink:href="#path3_stroke" transform="translate(-4214 -695)"/>
</g>
<g id="Group 6">
<g id="Vector 3">
<use xlink:href="#path4_stroke" transform="translate(-4181.5 -664.972)"/>
</g>
<g id="Vector 3.1">
<use xlink:href="#path5_stroke" transform="translate(-4181.5 -640.972)"/>
</g>
<g id="Vector 3.2">
<use xlink:href="#path5_stroke" transform="translate(-4181.5 -601.972)"/>
</g>
<g id="Vector 4">
<use xlink:href="#path6_stroke" transform="translate(-4032.5 -668.21)"/>
</g>
<g id="Vector 4.1">
<use xlink:href="#path6_stroke" transform="translate(-4032.5 -642.21)"/>
</g>
<g id="Vector 4.2">
<use xlink:href="#path6_stroke" transform="translate(-4032.5 -599.21)"/>
</g>
</g>
</g>
</g>
<defs>
<path id="path0_fill" d="M 21.9231 151.478L 21.9231 8.4012C 82.7231 -12.5005 134.949 10.4748 153.462 24.5751L 153.462 168.896C 117.215 139.037 50.6667 144.843 21.9231 151.478Z"/>
<path id="path1_fill" d="M 168.077 168.896L 168.077 24.5751C 219.523 -8.27038 274.282 0.106879 295.231 8.4012L 295.231 151.478C 233.262 135.553 184.641 156.455 168.077 168.896Z"/>
<path id="path2_fill" d="M 10.2308 20.8427L 0 20.8427L 0 181.338C 88.8615 156.455 145.179 183.411 162.231 200C 212.508 160.187 290.359 170.97 323 181.338L 323 20.8427L 311.712 20.8427L 309.846 168.896C 243.2 148.99 183.667 173.043 162.231 187.559C 118.969 153.718 42.8718 161.017 10.2308 168.896L 10.2308 20.8427Z"/>
<path id="path3_stroke" d="M 21.9231 8.4012L 21.4354 6.98268L 20.4231 7.3307L 20.4231 8.4012L 21.9231 8.4012ZM 21.9231 151.478L 20.4231 151.478L 20.4231 153.364L 22.2605 152.94L 21.9231 151.478ZM 153.462 168.896L 152.508 170.054L 154.962 172.075L 154.962 168.896L 153.462 168.896ZM 153.462 24.5751L 154.962 24.5751L 154.962 23.8321L 154.37 23.3818L 153.462 24.5751ZM 168.077 24.5751L 167.27 23.3108L 166.577 23.7531L 166.577 24.5751L 168.077 24.5751ZM 168.077 168.896L 166.577 168.896L 166.577 171.899L 168.978 170.096L 168.077 168.896ZM 295.231 151.478L 294.857 152.931L 296.731 153.412L 296.731 151.478L 295.231 151.478ZM 295.231 8.4012L 296.731 8.4012L 296.731 7.3818L 295.783 7.00654L 295.231 8.4012ZM 0 20.8427L 0 19.3427L -1.5 19.3427L -1.5 20.8427L 0 20.8427ZM 10.2308 20.8427L 11.7308 20.8427L 11.7308 19.3427L 10.2308 19.3427L 10.2308 20.8427ZM 10.2308 168.896L 8.73077 168.896L 8.73077 170.801L 10.5828 170.354L 10.2308 168.896ZM 162.231 187.559L 161.307 188.74L 162.167 189.413L 163.072 188.801L 162.231 187.559ZM 309.846 168.896L 309.417 170.334L 311.321 170.902L 311.346 168.915L 309.846 168.896ZM 311.712 20.8427L 311.712 19.3427L 310.231 19.3427L 310.212 20.8238L 311.712 20.8427ZM 323 20.8427L 324.5 20.8427L 324.5 19.3427L 323 19.3427L 323 20.8427ZM 323 181.338L 322.546 182.767L 324.5 183.388L 324.5 181.338L 323 181.338ZM 162.231 200L 161.185 201.075L 162.129 201.994L 163.162 201.176L 162.231 200ZM 0 181.338L -1.5 181.338L -1.5 183.316L 0.404471 182.782L 0 181.338ZM 20.4231 8.4012L 20.4231 151.478L 23.4231 151.478L 23.4231 8.4012L 20.4231 8.4012ZM 22.2605 152.94C 36.561 149.637 60.1714 146.549 84.7911 147.999C 109.426 149.443 134.745 155.421 152.508 170.054L 154.415 167.739C 135.932 152.512 109.853 146.463 84.9666 145.004C 60.0645 143.551 36.0288 146.684 21.5857 150.017L 22.2605 152.94ZM 154.962 168.896L 154.962 24.5751L 151.962 24.5751L 151.962 168.896L 154.962 168.896ZM 154.37 23.3818C 135.553 9.04974 82.8115 -14.1171 21.4354 6.98268L 22.4107 9.81972C 82.6346 -10.8839 134.344 11.8998 152.553 25.7684L 154.37 23.3818ZM 166.577 24.5751L 166.577 168.896L 169.577 168.896L 169.577 24.5751L 166.577 24.5751ZM 168.978 170.096C 185.211 157.903 233.368 137.129 294.857 152.931L 295.604 150.025C 233.155 133.977 184.071 155.007 167.176 167.697L 168.978 170.096ZM 296.731 151.478L 296.731 8.4012L 293.731 8.4012L 293.731 151.478L 296.731 151.478ZM 295.783 7.00654C 274.502 -1.4192 219.217 -9.85431 167.27 23.3108L 168.884 25.8394C 219.83 -6.68645 274.062 1.63296 294.679 9.79586L 295.783 7.00654ZM 0 22.3427L 10.2308 22.3427L 10.2308 19.3427L 0 19.3427L 0 22.3427ZM 8.73077 20.8427L 8.73077 168.896L 11.7308 168.896L 11.7308 20.8427L 8.73077 20.8427ZM 10.5828 170.354C 26.8313 166.43 53.8026 162.66 82.1734 164.08C 110.556 165.494 140.031 172.097 161.307 188.74L 163.155 186.377C 141.169 169.179 110.964 162.511 82.3227 161.084C 53.6692 159.663 26.2713 163.483 9.87878 167.438L 10.5828 170.354ZM 163.072 188.801C 184.233 174.471 243.304 150.586 309.417 170.334L 310.275 167.459C 243.096 147.393 183.1 171.616 161.39 186.316L 163.072 188.801ZM 311.346 168.915L 313.212 20.8616L 310.212 20.8238L 308.346 168.877L 311.346 168.915ZM 311.712 22.3427L 323 22.3427L 323 19.3427L 311.712 19.3427L 311.712 22.3427ZM 321.5 20.8427L 321.5 181.338L 324.5 181.338L 324.5 20.8427L 321.5 20.8427ZM 323.454 179.908C 307.048 174.7 279.173 169.371 249.179 170.352C 219.174 171.343 186.783 178.645 161.3 198.824L 163.162 201.176C 187.956 181.543 219.628 174.329 249.278 173.35C 278.939 172.362 306.311 177.608 322.546 182.767L 323.454 179.908ZM 163.277 198.925C 145.773 181.896 88.8715 154.894 -0.404471 179.893L 0.404471 182.782C 88.8516 158.015 144.586 184.927 161.185 201.075L 163.277 198.925ZM 1.5 181.338L 1.5 20.8427L -1.5 20.8427L -1.5 181.338L 1.5 181.338Z"/>
<path id="path4_stroke" d="M 0.985467 14.6034C 12.1261 4.89512 48.7127 -9.3716 103.897 14.8461L 105.103 12.0989C 49.0873 -12.4834 11.2073 1.71655 -0.985467 12.3416L 0.985467 14.6034Z"/>
<path id="path5_stroke" d="M 1.0251 15.5676C 12.1605 5.14364 48.7067 -10.1714 103.86 15.8293L 105.14 13.1157C 49.0933 -13.3058 11.1729 1.95878 -1.0251 13.3774L 1.0251 15.5676Z"/>
<path id="path6_stroke" d="M 0.869286 19.9324C 15.628 9.43731 55.6043 -7.7512 96.9777 7.61608L 98.0223 4.8038C 55.3957 -11.0289 14.372 6.64923 -0.869286 17.4875L 0.869286 19.9324Z"/>
</defs>
</svg>
