<svg width="280" height="301" viewBox="0 0 280 301" version="1.1" xmlns="http://www.w3.org/2000/svg" xmlns:xlink="http://www.w3.org/1999/xlink">
<title>Quiui Logo</title>
<desc>Created using Figma</desc>
<g id="Canvas" transform="translate(939 -444)">
<g id="Quiui Logo">
<g id="Group">
<g id="Ellipse">
<use xlink:href="#path0_fill" transform="translate(-939 444)" fill="#085F89"/>
<mask id="mask0_outline_ins">
<use xlink:href="#path0_fill" fill="white" transform="translate(-939 444)"/>
</mask>
<g mask="url(#mask0_outline_ins)">
<use xlink:href="#path1_stroke_2x" transform="translate(-939 444)"/>
</g>
</g>
<g id="Ellipse 2">
<use xlink:href="#path2_fill" transform="translate(-890.552 496.083)" fill="#FFFFFF"/>
<mask id="mask1_outline_ins">
<use xlink:href="#path2_fill" fill="white" transform="translate(-890.552 496.083)"/>
</mask>
<g mask="url(#mask1_outline_ins)">
<use xlink:href="#path3_stroke_2x" transform="translate(-890.552 496.083)"/>
</g>
</g>
<g id="Vector">
<use xlink:href="#path4_fill" transform="translate(-813.035 606.5)" fill="#FF7A00"/>
<use xlink:href="#path5_stroke" transform="translate(-813.035 606.5)"/>
</g>
</g>
</g>
</g>
<defs>
<path id="path0_fill" d="M 279.062 150C 279.062 232.843 216.592 300 139.531 300C 62.4702 300 0 232.843 0 150C 0 67.1573 62.4702 0 139.531 0C 216.592 0 279.062 67.1573 279.062 150Z"/>
<path id="path1_stroke_2x" d="M 277.562 150C 277.562 232.118 215.663 298.5 139.531 298.5L 139.531 301.5C 217.521 301.5 280.562 233.567 280.562 150L 277.562 150ZM 139.531 298.5C 63.399 298.5 1.5 232.118 1.5 150L -1.5 150C -1.5 233.567 61.5415 301.5 139.531 301.5L 139.531 298.5ZM 1.5 150C 1.5 67.8817 63.399 1.5 139.531 1.5L 139.531 -1.5C 61.5415 -1.5 -1.5 66.4329 -1.5 150L 1.5 150ZM 139.531 1.5C 215.663 1.5 277.562 67.8817 277.562 150L 280.562 150C 280.562 66.4329 217.521 -1.5 139.531 -1.5L 139.531 1.5Z"/>
<path id="path2_fill" d="M 182.166 97.9167C 182.166 151.995 141.387 195.833 91.0828 195.833C 40.7792 195.833 0 151.995 0 97.9167C 0 43.8388 40.7792 0 91.0828 0C 141.387 0 182.166 43.8388 182.166 97.9167Z"/>
<path id="path3_stroke_2x" d="M 180.666 97.9167C 180.666 151.27 140.458 194.333 91.0828 194.333L 91.0828 197.333C 142.315 197.333 183.666 152.719 183.666 97.9167L 180.666 97.9167ZM 91.0828 194.333C 41.708 194.333 1.5 151.27 1.5 97.9167L -1.5 97.9167C -1.5 152.719 39.8504 197.333 91.0828 197.333L 91.0828 194.333ZM 1.5 97.9167C 1.5 44.5632 41.708 1.5 91.0828 1.5L 91.0828 -1.5C 39.8504 -1.5 -1.5 43.1144 -1.5 97.9167L 1.5 97.9167ZM 91.0828 1.5C 140.458 1.5 180.666 44.5632 180.666 97.9167L 183.666 97.9167C 183.666 43.1144 142.315 -1.5 91.0828 -1.5L 91.0828 1.5Z"/>
<path id="path4_fill" d="M 62.3405 0L 5.58576 0C 3.19368 0 1.76371 2.66252 3.08473 4.65675L 90.193 136.157C 90.7487 136.996 91.6879 137.5 92.6941 137.5L 149.449 137.5C 151.841 137.5 153.271 134.837 151.95 132.843L 64.8416 1.34326C 64.2859 0.504417 63.3467 0 62.3405 0Z"/>
<path id="path5_stroke" d="M 64.8416 1.34326L 64.2163 1.75744L 64.2163 1.75744L 64.8416 1.34326ZM 151.95 132.843L 152.575 132.429L 152.575 132.429L 151.95 132.843ZM 90.193 136.157L 89.5678 136.571L 89.5678 136.571L 90.193 136.157ZM 3.08473 4.65675L 2.45947 5.07094L 2.45947 5.07094L 3.08473 4.65675ZM 5.58576 0.75L 62.3405 0.75L 62.3405 -0.75L 5.58576 -0.75L 5.58576 0.75ZM 64.2163 1.75744L 151.325 133.257L 152.575 132.429L 65.4668 0.929073L 64.2163 1.75744ZM 149.449 136.75L 92.6941 136.75L 92.6941 138.25L 149.449 138.25L 149.449 136.75ZM 90.8183 135.743L 3.70999 4.24257L 2.45947 5.07094L 89.5678 136.571L 90.8183 135.743ZM 92.6941 136.75C 91.9394 136.75 91.235 136.372 90.8183 135.743L 89.5678 136.571C 90.2624 137.619 91.4363 138.25 92.6941 138.25L 92.6941 136.75ZM 151.325 133.257C 152.315 134.753 151.243 136.75 149.449 136.75L 149.449 138.25C 152.439 138.25 154.226 134.922 152.575 132.429L 151.325 133.257ZM 62.3405 0.75C 63.0952 0.75 63.7996 1.12831 64.2163 1.75744L 65.4668 0.929074C 64.7723 -0.119479 63.5983 -0.75 62.3405 -0.75L 62.3405 0.75ZM 5.58576 -0.75C 2.59565 -0.75 0.808195 2.57815 2.45947 5.07094L 3.70999 4.24257C 2.71922 2.74689 3.79171 0.75 5.58576 0.75L 5.58576 -0.75Z"/>
</defs>
</svg>
