<svg width="750" height="301" viewBox="0 0 750 301" version="1.1" xmlns="http://www.w3.org/2000/svg" xmlns:xlink="http://www.w3.org/1999/xlink">
<title>Quiui Logo</title>
<desc>Created using Figma</desc>
<g id="Canvas" transform="translate(1559 176)">
<g id="Quiui Logo">
<g id="Group">
<g id="Ellipse">
<use xlink:href="#path0_fill" transform="translate(-1559 -176)" fill="#FFFFFF"/>
<mask id="mask0_outline_ins">
<use xlink:href="#path0_fill" fill="white" transform="translate(-1559 -176)"/>
</mask>
<g mask="url(#mask0_outline_ins)">
<use xlink:href="#path1_stroke_2x" transform="translate(-1559 -176)"/>
</g>
</g>
<g id="Ellipse 2">
<use xlink:href="#path2_fill" transform="translate(-1514.42 -123.917)" fill="#FF6400"/>
<mask id="mask1_outline_ins">
<use xlink:href="#path2_fill" fill="white" transform="translate(-1514.42 -123.917)"/>
</mask>
<g mask="url(#mask1_outline_ins)">
<use xlink:href="#path3_stroke_2x" transform="translate(-1514.42 -123.917)"/>
</g>
</g>
<g id="Vector">
<use xlink:href="#path4_fill" transform="translate(-1443.1 -13.5)" fill="#313131"/>
<use xlink:href="#path5_stroke" transform="translate(-1443.1 -13.5)"/>
</g>
</g>
<g id="UIUI">
<use xlink:href="#path6_fill" transform="translate(-1299.69 -176)" fill="#FFFFFF"/>
<mask id="mask2_outline_out">
<rect id="mask2_outline_inv" fill="white" x="17" y="14" width="400" height="139" transform="translate(-1299.69 -176)"/>
<use xlink:href="#path6_fill" fill="black" transform="translate(-1299.69 -176)"/>
</mask>
<g mask="url(#mask2_outline_out)">
<use xlink:href="#path7_stroke_2x" transform="translate(-1299.69 -176)"/>
</g>
</g>
<g id="YOUR INDIVIDUAL DASHBOARD">
<use xlink:href="#path8_fill" transform="translate(-1299.69 -13)" fill="#FFFFFF"/>
<mask id="mask3_outline_out">
<rect id="mask3_outline_inv" fill="white" x="0" y="12" width="490" height="105" transform="translate(-1299.69 -13)"/>
<use xlink:href="#path8_fill" fill="black" transform="translate(-1299.69 -13)"/>
</mask>
<g mask="url(#mask3_outline_out)">
<use xlink:href="#path9_stroke_2x" transform="translate(-1299.69 -13)"/>
</g>
</g>
</g>
</g>
<defs>
<path id="path0_fill" d="M 256.754 150C 256.754 232.843 199.277 300 128.377 300C 57.4763 300 0 232.843 0 150C 0 67.1573 57.4763 0 128.377 0C 199.277 0 256.754 67.1573 256.754 150Z"/>
<path id="path1_stroke_2x" d="M 255.254 150C 255.254 232.242 198.238 298.5 128.377 298.5L 128.377 301.5C 200.316 301.5 258.254 233.444 258.254 150L 255.254 150ZM 128.377 298.5C 58.5152 298.5 1.5 232.242 1.5 150L -1.5 150C -1.5 233.444 56.4373 301.5 128.377 301.5L 128.377 298.5ZM 1.5 150C 1.5 67.7582 58.5152 1.5 128.377 1.5L 128.377 -1.5C 56.4373 -1.5 -1.5 66.5564 -1.5 150L 1.5 150ZM 128.377 1.5C 198.238 1.5 255.254 67.7582 255.254 150L 258.254 150C 258.254 66.5564 200.316 -1.5 128.377 -1.5L 128.377 1.5Z"/>
<path id="path2_fill" d="M 167.603 97.9167C 167.603 151.995 130.084 195.833 83.8015 195.833C 37.5192 195.833 0 151.995 0 97.9167C 0 43.8388 37.5192 0 83.8015 0C 130.084 0 167.603 43.8388 167.603 97.9167Z"/>
<path id="path3_stroke_2x" d="M 166.103 97.9167C 166.103 151.394 129.045 194.333 83.8015 194.333L 83.8015 197.333C 131.123 197.333 169.103 152.595 169.103 97.9167L 166.103 97.9167ZM 83.8015 194.333C 38.5582 194.333 1.5 151.394 1.5 97.9167L -1.5 97.9167C -1.5 152.595 36.4802 197.333 83.8015 197.333L 83.8015 194.333ZM 1.5 97.9167C 1.5 44.4397 38.5582 1.5 83.8015 1.5L 83.8015 -1.5C 36.4802 -1.5 -1.5 43.2379 -1.5 97.9167L 1.5 97.9167ZM 83.8015 1.5C 129.045 1.5 166.103 44.4397 166.103 97.9167L 169.103 97.9167C 169.103 43.2379 131.123 -1.5 83.8015 -1.5L 83.8015 1.5Z"/>
<path id="path4_fill" d="M 57.1545 0L 5.34166 0C 3.00048 0 1.56153 2.56213 2.77994 4.56127L 82.9247 136.061C 83.4692 136.955 84.44 137.5 85.4864 137.5L 137.299 137.5C 139.64 137.5 141.079 134.938 139.861 132.939L 59.7162 1.43872C 59.1717 0.54521 58.2009 0 57.1545 0Z"/>
<path id="path5_stroke" d="M 59.7162 1.43872L 59.0758 1.82904L 59.0758 1.82904L 59.7162 1.43872ZM 139.861 132.939L 139.221 133.329L 139.221 133.329L 139.861 132.939ZM 82.9247 136.061L 82.2842 136.452L 82.2842 136.452L 82.9247 136.061ZM 2.77994 4.56127L 2.13951 4.95159L 2.13951 4.95159L 2.77994 4.56127ZM 5.34166 0.75L 57.1545 0.75L 57.1545 -0.75L 5.34166 -0.75L 5.34166 0.75ZM 59.0758 1.82904L 139.221 133.329L 140.501 132.548L 60.3566 1.0484L 59.0758 1.82904ZM 137.299 136.75L 85.4864 136.75L 85.4864 138.25L 137.299 138.25L 137.299 136.75ZM 83.5651 135.671L 3.42037 4.17095L 2.13951 4.95159L 82.2842 136.452L 83.5651 135.671ZM 85.4864 136.75C 84.7016 136.75 83.9735 136.341 83.5651 135.671L 82.2842 136.452C 82.9649 137.568 84.1784 138.25 85.4864 138.25L 85.4864 136.75ZM 139.221 133.329C 140.134 134.828 139.055 136.75 137.299 136.75L 137.299 138.25C 140.226 138.25 142.024 135.047 140.501 132.548L 139.221 133.329ZM 57.1545 0.75C 57.9393 0.75 58.6674 1.15891 59.0758 1.82904L 60.3566 1.0484C 59.6759 -0.0684877 58.4625 -0.75 57.1545 -0.75L 57.1545 0.75ZM 5.34166 -0.75C 2.41519 -0.75 0.616494 2.45266 2.13951 4.95159L 3.42037 4.17095C 2.50656 2.6716 3.58578 0.75 5.34166 0.75L 5.34166 -0.75Z"/>
<path id="path6_fill" d="M 68.78 150.52C 53.0733 150.52 40.7867 146.593 31.92 138.74C 23.18 130.887 18.81 119.993 18.81 106.06C 18.81 101.88 19.3167 97.0667 20.33 91.62L 35.34 16L 54.34 16L 39.14 91.43C 38.2533 95.7367 37.81 99.9167 37.81 103.97C 37.81 113.723 40.5967 121.133 46.17 126.2C 51.7433 131.14 59.85 133.61 70.49 133.61C 82.3967 133.61 91.8967 130.19 98.99 123.35C 106.21 116.51 111.277 105.807 114.19 91.24L 129.2 16L 147.82 16L 132.62 92.57C 128.693 111.823 121.347 126.327 110.58 136.08C 99.94 145.707 86.0067 150.52 68.78 150.52ZM 186.773 16L 205.773 16L 179.173 149L 160.173 149L 186.773 16ZM 277.891 150.52C 262.185 150.52 249.898 146.593 241.031 138.74C 232.291 130.887 227.921 119.993 227.921 106.06C 227.921 101.88 228.428 97.0667 229.441 91.62L 244.451 16L 263.451 16L 248.251 91.43C 247.365 95.7367 246.921 99.9167 246.921 103.97C 246.921 113.723 249.708 121.133 255.281 126.2C 260.855 131.14 268.961 133.61 279.601 133.61C 291.508 133.61 301.008 130.19 308.101 123.35C 315.321 116.51 320.388 105.807 323.301 91.24L 338.311 16L 356.931 16L 341.731 92.57C 337.805 111.823 330.458 126.327 319.691 136.08C 309.051 145.707 295.118 150.52 277.891 150.52ZM 395.884 16L 414.884 16L 388.284 149L 369.284 149L 395.884 16Z"/>
<path id="path7_stroke_2x" d="M 31.92 138.74L 30.9174 139.856L 30.9254 139.863L 31.92 138.74ZM 20.33 91.62L 18.8587 91.328L 18.857 91.3368L 18.8553 91.3456L 20.33 91.62ZM 35.34 16L 35.34 14.5L 34.1085 14.5L 33.8687 15.708L 35.34 16ZM 54.34 16L 55.8104 16.2963L 56.1724 14.5L 54.34 14.5L 54.34 16ZM 39.14 91.43L 40.6092 91.7325L 40.6104 91.7263L 39.14 91.43ZM 46.17 126.2L 45.161 127.31L 45.168 127.316L 45.175 127.323L 46.17 126.2ZM 98.99 123.35L 97.9583 122.261L 97.9488 122.27L 98.99 123.35ZM 114.19 91.24L 115.661 91.5342L 115.661 91.5335L 114.19 91.24ZM 129.2 16L 129.2 14.5L 127.97 14.5L 127.729 15.7065L 129.2 16ZM 147.82 16L 149.291 16.2921L 149.647 14.5L 147.82 14.5L 147.82 16ZM 132.62 92.57L 134.09 92.8698L 134.091 92.8621L 132.62 92.57ZM 110.58 136.08L 111.586 137.192L 111.587 137.192L 110.58 136.08ZM 68.78 149.02C 53.3183 149.02 41.4279 145.157 32.9146 137.617L 30.9254 139.863C 40.1455 148.029 52.8284 152.02 68.78 152.02L 68.78 149.02ZM 32.9226 137.624C 24.5582 130.108 20.31 119.654 20.31 106.06L 17.31 106.06C 17.31 120.333 21.8018 131.665 30.9174 139.856L 32.9226 137.624ZM 20.31 106.06C 20.31 101.996 20.8031 97.2778 21.8047 91.8944L 18.8553 91.3456C 17.8302 96.8555 17.31 101.764 17.31 106.06L 20.31 106.06ZM 21.8013 91.912L 36.8113 16.292L 33.8687 15.708L 18.8587 91.328L 21.8013 91.912ZM 35.34 17.5L 54.34 17.5L 54.34 14.5L 35.34 14.5L 35.34 17.5ZM 52.8696 15.7037L 37.6696 91.1337L 40.6104 91.7263L 55.8104 16.2963L 52.8696 15.7037ZM 37.6708 91.1275C 36.7654 95.5254 36.31 99.8069 36.31 103.97L 39.31 103.97C 39.31 100.026 39.7413 95.9479 40.6092 91.7325L 37.6708 91.1275ZM 36.31 103.97C 36.31 114.014 39.189 121.881 45.161 127.31L 47.179 125.09C 42.0043 120.386 39.31 113.433 39.31 103.97L 36.31 103.97ZM 45.175 127.323C 51.1203 132.592 59.6389 135.11 70.49 135.11L 70.49 132.11C 60.0611 132.11 52.3664 129.688 47.165 125.077L 45.175 127.323ZM 70.49 135.11C 82.6991 135.11 92.602 131.594 100.031 124.43L 97.9488 122.27C 91.1913 128.786 82.0942 132.11 70.49 132.11L 70.49 135.11ZM 100.022 124.439C 107.553 117.304 112.715 106.263 115.661 91.5342L 112.719 90.9458C 109.838 105.35 104.867 115.716 97.9584 122.261L 100.022 124.439ZM 115.661 91.5335L 130.671 16.2935L 127.729 15.7065L 112.719 90.9465L 115.661 91.5335ZM 129.2 17.5L 147.82 17.5L 147.82 14.5L 129.2 14.5L 129.2 17.5ZM 146.349 15.7079L 131.149 92.2779L 134.091 92.8621L 149.291 16.2921L 146.349 15.7079ZM 131.15 92.2702C 127.265 111.319 120.032 125.494 109.573 134.968L 111.587 137.192C 122.661 127.16 130.121 112.327 134.09 92.8698L 131.15 92.2702ZM 109.574 134.968C 99.2627 144.297 85.7134 149.02 68.78 149.02L 68.78 152.02C 86.2999 152.02 100.617 147.117 111.586 137.192L 109.574 134.968ZM 186.773 16L 186.773 14.5L 185.543 14.5L 185.302 15.7058L 186.773 16ZM 205.773 16L 207.244 16.2942L 207.603 14.5L 205.773 14.5L 205.773 16ZM 179.173 149L 179.173 150.5L 180.403 150.5L 180.644 149.294L 179.173 149ZM 160.173 149L 158.702 148.706L 158.343 150.5L 160.173 150.5L 160.173 149ZM 186.773 17.5L 205.773 17.5L 205.773 14.5L 186.773 14.5L 186.773 17.5ZM 204.302 15.7058L 177.702 148.706L 180.644 149.294L 207.244 16.2942L 204.302 15.7058ZM 179.173 147.5L 160.173 147.5L 160.173 150.5L 179.173 150.5L 179.173 147.5ZM 161.644 149.294L 188.244 16.2942L 185.302 15.7058L 158.702 148.706L 161.644 149.294ZM 241.031 138.74L 240.029 139.856L 240.037 139.863L 241.031 138.74ZM 229.441 91.62L 227.97 91.328L 227.968 91.3368L 227.967 91.3456L 229.441 91.62ZM 244.451 16L 244.451 14.5L 243.22 14.5L 242.98 15.708L 244.451 16ZM 263.451 16L 264.922 16.2963L 265.284 14.5L 263.451 14.5L 263.451 16ZM 248.251 91.43L 249.721 91.7325L 249.722 91.7263L 248.251 91.43ZM 255.281 126.2L 254.272 127.31L 254.279 127.316L 254.286 127.323L 255.281 126.2ZM 308.101 123.35L 307.07 122.261L 307.06 122.27L 308.101 123.35ZM 323.301 91.24L 324.772 91.5342L 324.772 91.5335L 323.301 91.24ZM 338.311 16L 338.311 14.5L 337.081 14.5L 336.84 15.7065L 338.311 16ZM 356.931 16L 358.403 16.2921L 358.758 14.5L 356.931 14.5L 356.931 16ZM 341.731 92.57L 343.201 92.8698L 343.203 92.8621L 341.731 92.57ZM 319.691 136.08L 320.698 137.192L 320.698 137.192L 319.691 136.08ZM 277.891 149.02C 262.43 149.02 250.539 145.157 242.026 137.617L 240.037 139.863C 249.257 148.029 261.94 152.02 277.891 152.02L 277.891 149.02ZM 242.034 137.624C 233.67 130.108 229.421 119.654 229.421 106.06L 226.421 106.06C 226.421 120.333 230.913 131.665 240.029 139.856L 242.034 137.624ZM 229.421 106.06C 229.421 101.996 229.914 97.2778 230.916 91.8944L 227.967 91.3456C 226.942 96.8555 226.421 101.764 226.421 106.06L 229.421 106.06ZM 230.913 91.912L 245.923 16.292L 242.98 15.708L 227.97 91.328L 230.913 91.912ZM 244.451 17.5L 263.451 17.5L 263.451 14.5L 244.451 14.5L 244.451 17.5ZM 261.981 15.7037L 246.781 91.1337L 249.722 91.7263L 264.922 16.2963L 261.981 15.7037ZM 246.782 91.1275C 245.877 95.5254 245.421 99.8069 245.421 103.97L 248.421 103.97C 248.421 100.026 248.853 95.9479 249.721 91.7325L 246.782 91.1275ZM 245.421 103.97C 245.421 114.014 248.3 121.881 254.272 127.31L 256.29 125.09C 251.116 120.386 248.421 113.433 248.421 103.97L 245.421 103.97ZM 254.286 127.323C 260.232 132.592 268.75 135.11 279.601 135.11L 279.601 132.11C 269.172 132.11 261.478 129.688 256.276 125.077L 254.286 127.323ZM 279.601 135.11C 291.81 135.11 301.713 131.594 309.143 124.43L 307.06 122.27C 300.303 128.786 291.206 132.11 279.601 132.11L 279.601 135.11ZM 309.133 124.439C 316.664 117.304 321.826 106.263 324.772 91.5342L 321.83 90.9458C 318.95 105.35 313.979 115.716 307.07 122.261L 309.133 124.439ZM 324.772 91.5335L 339.782 16.2935L 336.84 15.7065L 321.83 90.9465L 324.772 91.5335ZM 338.311 17.5L 356.931 17.5L 356.931 14.5L 338.311 14.5L 338.311 17.5ZM 355.46 15.7079L 340.26 92.2779L 343.203 92.8621L 358.403 16.2921L 355.46 15.7079ZM 340.262 92.2702C 336.377 111.319 329.143 125.494 318.684 134.968L 320.698 137.192C 331.773 127.16 339.233 112.327 343.201 92.8698L 340.262 92.2702ZM 318.685 134.968C 308.374 144.297 294.825 149.02 277.891 149.02L 277.891 152.02C 295.411 152.02 309.729 147.117 320.698 137.192L 318.685 134.968ZM 395.884 16L 395.884 14.5L 394.655 14.5L 394.413 15.7058L 395.884 16ZM 414.884 16L 416.355 16.2942L 416.714 14.5L 414.884 14.5L 414.884 16ZM 388.284 149L 388.284 150.5L 389.514 150.5L 389.755 149.294L 388.284 149ZM 369.284 149L 367.813 148.706L 367.455 150.5L 369.284 150.5L 369.284 149ZM 395.884 17.5L 414.884 17.5L 414.884 14.5L 395.884 14.5L 395.884 17.5ZM 413.413 15.7058L 386.813 148.706L 389.755 149.294L 416.355 16.2942L 413.413 15.7058ZM 388.284 147.5L 369.284 147.5L 369.284 150.5L 388.284 150.5L 388.284 147.5ZM 370.755 149.294L 397.355 16.2942L 394.413 15.7058L 367.813 148.706L 370.755 149.294Z"/>
<path id="path8_fill" d="M 19.136 38.572L 16.64 51L 11.44 51L 13.988 38.26L 4.368 14.6L 9.464 14.6L 17.316 33.892L 32.864 14.6L 38.376 14.6L 19.136 38.572ZM 52.3218 51.416C 48.7511 51.416 45.6831 50.7747 43.1178 49.492C 40.5524 48.2093 38.5938 46.424 37.2418 44.136C 35.8897 41.8133 35.2137 39.1267 35.2137 36.076C 35.2137 32.02 36.1324 28.328 37.9697 25C 39.8071 21.672 42.3897 19.0373 45.7178 17.096C 49.0804 15.1547 52.9457 14.184 57.3137 14.184C 60.8844 14.184 63.9524 14.8253 66.5178 16.108C 69.1178 17.3907 71.0938 19.1933 72.4458 21.516C 73.7978 23.804 74.4737 26.4733 74.4737 29.524C 74.4737 33.58 73.5551 37.272 71.7177 40.6C 69.8804 43.928 67.2804 46.5627 63.9177 48.504C 60.5551 50.4453 56.6898 51.416 52.3218 51.416ZM 52.7897 46.788C 56.0484 46.788 58.9258 46.0253 61.4218 44.5C 63.9177 42.9747 65.8417 40.9293 67.1937 38.364C 68.5457 35.764 69.2218 32.9213 69.2218 29.836C 69.2218 26.4733 68.1471 23.804 65.9977 21.828C 63.8831 19.8173 60.8498 18.812 56.8978 18.812C 53.6391 18.812 50.7617 19.5747 48.2657 21.1C 45.7697 22.6253 43.8284 24.688 42.4417 27.288C 41.0898 29.888 40.4138 32.7133 40.4138 35.764C 40.4138 39.1267 41.4884 41.8133 43.6377 43.824C 45.7871 45.8 48.8377 46.788 52.7897 46.788ZM 94.5896 51.416C 90.291 51.416 86.9283 50.3413 84.5016 48.192C 82.1096 46.0427 80.9136 43.0613 80.9136 39.248C 80.9136 38.104 81.0523 36.7867 81.3296 35.296L 85.4376 14.6L 90.6376 14.6L 86.4776 35.244C 86.235 36.4227 86.1136 37.5667 86.1136 38.676C 86.1136 41.3453 86.8763 43.3733 88.4016 44.76C 89.927 46.112 92.1456 46.788 95.0576 46.788C 98.3163 46.788 100.916 45.852 102.858 43.98C 104.834 42.108 106.22 39.1787 107.018 35.192L 111.126 14.6L 116.222 14.6L 112.062 35.556C 110.987 40.8253 108.976 44.7947 106.03 47.464C 103.118 50.0987 99.3043 51.416 94.5896 51.416ZM 153.87 25.26C 153.87 28.8307 152.917 31.812 151.01 34.204C 149.104 36.596 146.417 38.2427 142.95 39.144L 149.606 51L 144.094 51L 137.75 39.872L 136.762 39.872L 127.038 39.872L 124.854 51L 119.602 51L 126.882 14.6L 140.454 14.6C 144.718 14.6 148.012 15.536 150.334 17.408C 152.692 19.2453 153.87 21.8627 153.87 25.26ZM 136.918 35.452C 140.662 35.452 143.557 34.62 145.602 32.956C 147.648 31.292 148.67 28.8827 148.67 25.728C 148.67 23.544 147.925 21.8973 146.434 20.788C 144.944 19.6787 142.794 19.124 139.986 19.124L 131.198 19.124L 127.922 35.452L 136.918 35.452ZM 178.629 14.6L 183.829 14.6L 176.549 51L 171.349 51L 178.629 14.6ZM 226.03 14.6L 218.75 51L 214.486 51L 198.21 22.972L 192.646 51L 187.446 51L 194.726 14.6L 198.99 14.6L 215.266 42.628L 220.83 14.6L 226.03 14.6ZM 236.925 14.6L 251.173 14.6C 254.813 14.6 257.933 15.224 260.533 16.472C 263.168 17.6853 265.161 19.4187 266.513 21.672C 267.9 23.8907 268.593 26.508 268.593 29.524C 268.593 33.7533 267.64 37.4973 265.733 40.756C 263.861 44.0147 261.209 46.5453 257.777 48.348C 254.38 50.116 250.428 51 245.921 51L 229.645 51L 236.925 14.6ZM 246.077 46.476C 249.579 46.476 252.629 45.7653 255.229 44.344C 257.829 42.9227 259.823 40.964 261.209 38.468C 262.631 35.9373 263.341 33.06 263.341 29.836C 263.341 26.4733 262.267 23.856 260.117 21.984C 257.968 20.0773 254.813 19.124 250.653 19.124L 241.189 19.124L 235.729 46.476L 246.077 46.476ZM 279.886 14.6L 285.086 14.6L 277.806 51L 272.606 51L 279.886 14.6ZM 327.245 14.6L 303.949 51L 298.853 51L 290.117 14.6L 295.473 14.6L 302.545 44.552L 321.837 14.6L 327.245 14.6ZM 331.886 14.6L 337.086 14.6L 329.806 51L 324.606 51L 331.886 14.6ZM 347.984 14.6L 362.232 14.6C 365.872 14.6 368.992 15.224 371.592 16.472C 374.227 17.6853 376.22 19.4187 377.572 21.672C 378.959 23.8907 379.652 26.508 379.652 29.524C 379.652 33.7533 378.699 37.4973 376.792 40.756C 374.92 44.0147 372.268 46.5453 368.836 48.348C 365.439 50.116 361.487 51 356.98 51L 340.704 51L 347.984 14.6ZM 357.136 46.476C 360.637 46.476 363.688 45.7653 366.288 44.344C 368.888 42.9227 370.881 40.964 372.268 38.468C 373.689 35.9373 374.4 33.06 374.4 29.836C 374.4 26.4733 373.325 23.856 371.176 21.984C 369.027 20.0773 365.872 19.124 361.712 19.124L 352.248 19.124L 346.788 46.476L 357.136 46.476ZM 399.785 51.416C 395.486 51.416 392.124 50.3413 389.697 48.192C 387.305 46.0427 386.109 43.0613 386.109 39.248C 386.109 38.104 386.248 36.7867 386.525 35.296L 390.633 14.6L 395.833 14.6L 391.673 35.244C 391.43 36.4227 391.309 37.5667 391.309 38.676C 391.309 41.3453 392.072 43.3733 393.597 44.76C 395.122 46.112 397.341 46.788 400.253 46.788C 403.512 46.788 406.112 45.852 408.053 43.98C 410.029 42.108 411.416 39.1787 412.213 35.192L 416.321 14.6L 421.417 14.6L 417.257 35.556C 416.182 40.8253 414.172 44.7947 411.225 47.464C 408.313 50.0987 404.5 51.416 399.785 51.416ZM 449.36 41.9L 429.912 41.9L 424.14 51L 418.524 51L 442.34 14.6L 447.488 14.6L 456.692 51L 451.544 51L 449.36 41.9ZM 448.32 37.74L 444.004 19.8L 432.564 37.74L 448.32 37.74ZM 469.402 14.6L 474.602 14.6L 468.206 46.476L 487.966 46.476L 487.082 51L 462.122 51L 469.402 14.6ZM 9.984 78.6L 24.232 78.6C 27.872 78.6 30.992 79.224 33.592 80.472C 36.2267 81.6853 38.22 83.4187 39.572 85.672C 40.9587 87.8907 41.652 90.508 41.652 93.524C 41.652 97.7533 40.6987 101.497 38.792 104.756C 36.92 108.015 34.268 110.545 30.836 112.348C 27.4387 114.116 23.4867 115 18.98 115L 2.704 115L 9.984 78.6ZM 19.136 110.476C 22.6373 110.476 25.688 109.765 28.288 108.344C 30.888 106.923 32.8813 104.964 34.268 102.468C 35.6893 99.9373 36.4 97.06 36.4 93.836C 36.4 90.4733 35.3253 87.856 33.176 85.984C 31.0267 84.0773 27.872 83.124 23.712 83.124L 14.248 83.124L 8.788 110.476L 19.136 110.476ZM 70.4811 105.9L 51.0331 105.9L 45.2611 115L 39.6451 115L 63.4611 78.6L 68.6091 78.6L 77.8131 115L 72.6651 115L 70.4811 105.9ZM 69.4411 101.74L 65.1251 83.8L 53.6851 101.74L 69.4411 101.74ZM 94.4751 115.416C 91.7711 115.416 89.1537 115 86.6231 114.168C 84.1271 113.336 82.2031 112.279 80.8511 110.996L 83.1391 106.836C 84.5257 108.119 86.2764 109.141 88.3911 109.904C 90.5057 110.632 92.6897 110.996 94.9431 110.996C 97.9244 110.996 100.299 110.459 102.067 109.384C 103.87 108.275 104.771 106.749 104.771 104.808C 104.771 103.768 104.424 102.901 103.731 102.208C 103.038 101.515 102.188 100.96 101.183 100.544C 100.178 100.128 98.7564 99.6427 96.9191 99.088C 94.5964 98.3947 92.7244 97.736 91.3031 97.112C 89.8817 96.488 88.6511 95.5693 87.6111 94.356C 86.6057 93.108 86.1031 91.4787 86.1031 89.468C 86.1031 87.18 86.7444 85.1867 88.0271 83.488C 89.3097 81.7893 91.0951 80.4893 93.3831 79.588C 95.6711 78.652 98.2884 78.184 101.235 78.184C 103.488 78.184 105.62 78.4613 107.631 79.016C 109.676 79.536 111.444 80.2813 112.935 81.252L 110.855 85.516C 109.503 84.5453 107.978 83.8173 106.279 83.332C 104.615 82.8467 102.847 82.604 100.975 82.604C 97.9937 82.604 95.6191 83.1933 93.8511 84.372C 92.0831 85.516 91.1991 87.0587 91.1991 89C 91.1991 90.0747 91.5457 90.976 92.2391 91.704C 92.9671 92.432 93.8511 93.004 94.8911 93.42C 95.9657 93.836 97.4217 94.3213 99.2591 94.876C 101.547 95.5693 103.384 96.228 104.771 96.852C 106.192 97.4413 107.388 98.3253 108.359 99.504C 109.364 100.683 109.867 102.208 109.867 104.08C 109.867 106.403 109.208 108.413 107.891 110.112C 106.608 111.811 104.806 113.128 102.483 114.064C 100.16 114.965 97.4911 115.416 94.4751 115.416ZM 154.124 78.6L 146.844 115L 141.644 115L 144.868 98.88L 123.964 98.88L 120.74 115L 115.54 115L 122.82 78.6L 128.02 78.6L 124.9 94.2L 145.804 94.2L 148.924 78.6L 154.124 78.6ZM 185.923 96.228C 187.552 96.7827 188.818 97.684 189.719 98.932C 190.62 100.18 191.071 101.74 191.071 103.612C 191.071 107.287 189.65 110.112 186.807 112.088C 183.999 114.029 180.151 115 175.263 115L 157.739 115L 165.019 78.6L 181.139 78.6C 184.814 78.6 187.639 79.2933 189.615 80.68C 191.626 82.032 192.631 84.008 192.631 86.608C 192.631 88.9653 192.007 90.976 190.759 92.64C 189.546 94.2693 187.934 95.4653 185.923 96.228ZM 169.335 82.812L 166.995 94.46L 177.655 94.46C 180.602 94.46 182.924 93.8707 184.623 92.692C 186.356 91.4787 187.223 89.728 187.223 87.44C 187.223 85.88 186.599 84.7187 185.351 83.956C 184.138 83.1933 182.37 82.812 180.047 82.812L 169.335 82.812ZM 175.627 110.788C 178.92 110.788 181.451 110.181 183.219 108.968C 185.022 107.72 185.923 105.952 185.923 103.664C 185.923 101.861 185.282 100.579 183.999 99.816C 182.751 99.0533 180.862 98.672 178.331 98.672L 166.163 98.672L 163.771 110.788L 175.627 110.788ZM 214.619 115.416C 211.048 115.416 207.98 114.775 205.415 113.492C 202.849 112.209 200.891 110.424 199.539 108.136C 198.187 105.813 197.511 103.127 197.511 100.076C 197.511 96.02 198.429 92.328 200.267 89C 202.104 85.672 204.687 83.0373 208.015 81.096C 211.377 79.1547 215.243 78.184 219.611 78.184C 223.181 78.184 226.249 78.8253 228.815 80.108C 231.415 81.3907 233.391 83.1933 234.743 85.516C 236.095 87.804 236.771 90.4733 236.771 93.524C 236.771 97.58 235.852 101.272 234.015 104.6C 232.177 107.928 229.577 110.563 226.215 112.504C 222.852 114.445 218.987 115.416 214.619 115.416ZM 215.087 110.788C 218.345 110.788 221.223 110.025 223.719 108.5C 226.215 106.975 228.139 104.929 229.491 102.364C 230.843 99.764 231.519 96.9213 231.519 93.836C 231.519 90.4733 230.444 87.804 228.295 85.828C 226.18 83.8173 223.147 82.812 219.195 82.812C 215.936 82.812 213.059 83.5747 210.563 85.1C 208.067 86.6253 206.125 88.688 204.739 91.288C 203.387 93.888 202.711 96.7133 202.711 99.764C 202.711 103.127 203.785 105.813 205.935 107.824C 208.084 109.8 211.135 110.788 215.087 110.788ZM 265.583 105.9L 246.135 105.9L 240.363 115L 234.747 115L 258.563 78.6L 263.711 78.6L 272.915 115L 267.767 115L 265.583 105.9ZM 264.543 101.74L 260.227 83.8L 248.787 101.74L 264.543 101.74ZM 312.613 89.26C 312.613 92.8307 311.659 95.812 309.753 98.204C 307.846 100.596 305.159 102.243 301.693 103.144L 308.349 115L 302.837 115L 296.493 103.872L 295.505 103.872L 285.781 103.872L 283.597 115L 278.345 115L 285.625 78.6L 299.197 78.6C 303.461 78.6 306.754 79.536 309.077 81.408C 311.434 83.2453 312.613 85.8627 312.613 89.26ZM 295.661 99.452C 299.405 99.452 302.299 98.62 304.345 96.956C 306.39 95.292 307.413 92.8827 307.413 89.728C 307.413 87.544 306.667 85.8973 305.177 84.788C 303.686 83.6787 301.537 83.124 298.729 83.124L 289.941 83.124L 286.665 99.452L 295.661 99.452ZM 323.406 78.6L 337.654 78.6C 341.294 78.6 344.414 79.224 347.014 80.472C 349.649 81.6853 351.642 83.4187 352.994 85.672C 354.381 87.8907 355.074 90.508 355.074 93.524C 355.074 97.7533 354.121 101.497 352.214 104.756C 350.342 108.015 347.69 110.545 344.258 112.348C 340.861 114.116 336.909 115 332.402 115L 316.126 115L 323.406 78.6ZM 332.558 110.476C 336.059 110.476 339.11 109.765 341.71 108.344C 344.31 106.923 346.303 104.964 347.69 102.468C 349.111 99.9373 349.822 97.06 349.822 93.836C 349.822 90.4733 348.747 87.856 346.598 85.984C 344.449 84.0773 341.294 83.124 337.134 83.124L 327.67 83.124L 322.21 110.476L 332.558 110.476Z"/>
<path id="path9_stroke_2x" d="M 19.136 38.572L 17.9662 37.6331L 17.7374 37.9182L 17.6654 38.2766L 19.136 38.572ZM 16.64 51L 16.64 52.5L 17.8687 52.5L 18.1106 51.2954L 16.64 51ZM 11.44 51L 9.96913 50.7058L 9.61029 52.5L 11.44 52.5L 11.44 51ZM 13.988 38.26L 15.4589 38.5542L 15.5472 38.1124L 15.3775 37.695L 13.988 38.26ZM 4.368 14.6L 4.368 13.1L 2.13886 13.1L 2.97847 15.165L 4.368 14.6ZM 9.464 14.6L 10.8533 14.0345L 10.473 13.1L 9.464 13.1L 9.464 14.6ZM 17.316 33.892L 15.9267 34.4575L 16.8864 36.8155L 18.4839 34.8333L 17.316 33.892ZM 32.864 14.6L 32.864 13.1L 32.1464 13.1L 31.6961 13.6587L 32.864 14.6ZM 38.376 14.6L 39.5458 15.5389L 41.5033 13.1L 38.376 13.1L 38.376 14.6ZM 17.6654 38.2766L 15.1694 50.7046L 18.1106 51.2954L 20.6066 38.8674L 17.6654 38.2766ZM 16.64 49.5L 11.44 49.5L 11.44 52.5L 16.64 52.5L 16.64 49.5ZM 12.9109 51.2942L 15.4589 38.5542L 12.5171 37.9658L 9.96913 50.7058L 12.9109 51.2942ZM 15.3775 37.695L 5.75753 14.035L 2.97847 15.165L 12.5985 38.825L 15.3775 37.695ZM 4.368 16.1L 9.464 16.1L 9.464 13.1L 4.368 13.1L 4.368 16.1ZM 8.07467 15.1655L 15.9267 34.4575L 18.7053 33.3265L 10.8533 14.0345L 8.07467 15.1655ZM 18.4839 34.8333L 34.0319 15.5413L 31.6961 13.6587L 16.1481 32.9507L 18.4839 34.8333ZM 32.864 16.1L 38.376 16.1L 38.376 13.1L 32.864 13.1L 32.864 16.1ZM 37.2062 13.6611L 17.9662 37.6331L 20.3058 39.5109L 39.5458 15.5389L 37.2062 13.6611ZM 43.1178 49.492L 42.4469 50.8336L 43.1178 49.492ZM 37.2418 44.136L 35.9454 44.8906L 35.9504 44.8991L 37.2418 44.136ZM 37.9697 25L 36.6566 24.275L 37.9697 25ZM 45.7178 17.096L 44.9678 15.7969L 44.9619 15.8003L 45.7178 17.096ZM 66.5178 16.108L 65.8469 17.4497L 65.8541 17.4532L 66.5178 16.108ZM 72.4458 21.516L 71.1494 22.2706L 71.1544 22.2791L 72.4458 21.516ZM 61.4218 44.5L 62.2039 45.7799L 61.4218 44.5ZM 67.1937 38.364L 68.5208 39.0634L 68.5246 39.056L 67.1937 38.364ZM 65.9977 21.828L 64.9642 22.9151L 64.9733 22.9237L 64.9826 22.9323L 65.9977 21.828ZM 42.4417 27.288L 41.1182 26.5821L 41.1145 26.589L 41.1109 26.596L 42.4417 27.288ZM 43.6377 43.824L 42.613 44.9194L 42.6226 44.9283L 43.6377 43.824ZM 52.3218 49.916C 48.9282 49.916 46.1009 49.3065 43.7886 48.1504L 42.4469 50.8336C 45.2653 52.2428 48.574 52.916 52.3218 52.916L 52.3218 49.916ZM 43.7886 48.1504C 41.4601 46.9861 39.7266 45.3926 38.5331 43.3729L 35.9504 44.8991C 37.4609 47.4554 39.6447 49.4325 42.4469 50.8336L 43.7886 48.1504ZM 38.5381 43.3814C 37.3367 41.3175 36.7137 38.8981 36.7137 36.076L 33.7137 36.076C 33.7137 39.3553 34.4428 42.3092 35.9454 44.8906L 38.5381 43.3814ZM 36.7137 36.076C 36.7137 32.256 37.5763 28.8161 39.2829 25.725L 36.6566 24.275C 34.6885 27.8399 33.7137 31.784 33.7137 36.076L 36.7137 36.076ZM 39.2829 25.725C 40.9875 22.6374 43.3761 20.1985 46.4736 18.3917L 44.9619 15.8003C 41.4034 17.8762 38.6266 20.7066 36.6566 24.275L 39.2829 25.725ZM 46.4677 18.3951C 49.5749 16.6012 53.1755 15.684 57.3137 15.684L 57.3137 12.684C 52.716 12.684 48.5859 13.7081 44.9678 15.7969L 46.4677 18.3951ZM 57.3137 15.684C 60.7073 15.684 63.5346 16.2935 65.8469 17.4496L 67.1886 14.7664C 64.3702 13.3572 61.0615 12.684 57.3137 12.684L 57.3137 15.684ZM 65.8541 17.4532C 68.2115 18.6162 69.9574 20.2229 71.1494 22.2706L 73.7421 20.7614C 72.2301 18.1637 70.024 16.1651 67.1814 14.7628L 65.8541 17.4532ZM 71.1544 22.2791C 72.3506 24.3035 72.9737 26.7014 72.9737 29.524L 75.9737 29.524C 75.9737 26.2453 75.2449 23.3045 73.7371 20.7529L 71.1544 22.2791ZM 72.9737 29.524C 72.9737 33.344 72.1112 36.7839 70.4046 39.875L 73.0309 41.325C 74.999 37.7601 75.9737 33.816 75.9737 29.524L 72.9737 29.524ZM 70.4046 39.875C 68.7022 42.9586 66.2993 45.3971 63.1678 47.2049L 64.6677 49.8031C 68.2616 47.7283 71.0587 44.8974 73.0309 41.325L 70.4046 39.875ZM 63.1678 47.2049C 60.0606 48.9988 56.46 49.916 52.3218 49.916L 52.3218 52.916C 56.9195 52.916 61.0496 51.8919 64.6677 49.8031L 63.1678 47.2049ZM 52.7897 48.288C 56.2921 48.288 59.4462 47.4652 62.2039 45.7799L 60.6396 43.2201C 58.4053 44.5855 55.8048 45.288 52.7897 45.288L 52.7897 48.288ZM 62.2039 45.7799C 64.9284 44.115 67.0416 41.87 68.5207 39.0634L 65.8668 37.6646C 64.6419 39.9887 62.9071 41.8344 60.6396 43.2201L 62.2039 45.7799ZM 68.5246 39.056C 69.9936 36.2309 70.7218 33.1491 70.7218 29.836L 67.7218 29.836C 67.7218 32.6935 67.0979 35.2971 65.8629 37.672L 68.5246 39.056ZM 70.7218 29.836C 70.7218 26.1236 69.5193 23.0279 67.0129 20.7237L 64.9826 22.9323C 66.7749 24.5801 67.7218 26.8231 67.7218 29.836L 70.7218 29.836ZM 67.0313 20.7409C 64.5512 18.3828 61.0955 17.312 56.8978 17.312L 56.8978 20.312C 60.604 20.312 63.215 21.2519 64.9642 22.9151L 67.0313 20.7409ZM 56.8978 17.312C 53.3954 17.312 50.2413 18.1348 47.4836 19.8201L 49.0479 22.3799C 51.2822 21.0145 53.8827 20.312 56.8978 20.312L 56.8978 17.312ZM 47.4836 19.8201C 44.7574 21.4861 42.6299 23.7477 41.1182 26.5821L 43.7653 27.9939C 45.0269 25.6283 46.7821 23.7646 49.0479 22.3799L 47.4836 19.8201ZM 41.1109 26.596C 39.6432 29.4186 38.9138 32.4826 38.9138 35.764L 41.9138 35.764C 41.9138 32.944 42.5363 30.3574 43.7726 27.98L 41.1109 26.596ZM 38.9138 35.764C 38.9138 39.4769 40.1161 42.5836 42.613 44.9194L 44.6625 42.7286C 42.8607 41.0431 41.9138 38.7765 41.9138 35.764L 38.9138 35.764ZM 42.6226 44.9283C 45.1342 47.2373 48.5966 48.288 52.7897 48.288L 52.7897 45.288C 49.0789 45.288 46.44 44.3627 44.6529 42.7197L 42.6226 44.9283ZM 84.5016 48.192L 83.499 49.3078L 83.5071 49.3149L 84.5016 48.192ZM 81.3296 35.296L 79.8583 35.004L 79.8566 35.0128L 79.8549 35.0216L 81.3296 35.296ZM 85.4376 14.6L 85.4376 13.1L 84.2061 13.1L 83.9663 14.308L 85.4376 14.6ZM 90.6376 14.6L 92.1081 14.8963L 92.47 13.1L 90.6376 13.1L 90.6376 14.6ZM 86.4776 35.244L 87.9468 35.5465L 87.9481 35.5403L 86.4776 35.244ZM 88.4016 44.76L 87.3926 45.8699L 87.3996 45.8763L 87.4067 45.8825L 88.4016 44.76ZM 102.858 43.98L 101.826 42.891L 101.816 42.9002L 102.858 43.98ZM 107.018 35.192L 108.488 35.4862L 108.489 35.4855L 107.018 35.192ZM 111.126 14.6L 111.126 13.1L 109.895 13.1L 109.655 14.3065L 111.126 14.6ZM 116.222 14.6L 117.693 14.8921L 118.049 13.1L 116.222 13.1L 116.222 14.6ZM 112.062 35.556L 113.531 35.8558L 113.533 35.8481L 112.062 35.556ZM 106.03 47.464L 107.036 48.5763L 107.037 48.5757L 106.03 47.464ZM 94.5896 49.916C 90.5359 49.916 87.5695 48.9055 85.4962 47.0691L 83.5071 49.3149C 86.2871 51.7772 90.046 52.916 94.5896 52.916L 94.5896 49.916ZM 85.5042 47.0763C 83.4879 45.2645 82.4136 42.7221 82.4136 39.248L 79.4136 39.248C 79.4136 43.4005 80.7314 46.8208 83.4991 49.3077L 85.5042 47.0763ZM 82.4136 39.248C 82.4136 38.2201 82.5387 36.9978 82.8043 35.5704L 79.8549 35.0216C 79.5658 36.5755 79.4136 37.9879 79.4136 39.248L 82.4136 39.248ZM 82.8009 35.588L 86.9089 14.892L 83.9663 14.308L 79.8583 35.004L 82.8009 35.588ZM 85.4376 16.1L 90.6376 16.1L 90.6376 13.1L 85.4376 13.1L 85.4376 16.1ZM 89.1672 14.3037L 85.0072 34.9477L 87.9481 35.5403L 92.1081 14.8963L 89.1672 14.3037ZM 85.0084 34.9415C 84.747 36.2114 84.6136 37.4569 84.6136 38.676L 87.6136 38.676C 87.6136 37.6764 87.7229 36.6339 87.9468 35.5465L 85.0084 34.9415ZM 84.6136 38.676C 84.6136 41.6359 85.4686 44.1208 87.3926 45.8699L 89.4106 43.6501C 88.284 42.6258 87.6136 41.0548 87.6136 38.676L 84.6136 38.676ZM 87.4067 45.8825C 89.3039 47.5642 91.9345 48.288 95.0576 48.288L 95.0576 45.288C 92.3567 45.288 90.55 44.6598 89.3966 43.6375L 87.4067 45.8825ZM 95.0576 48.288C 98.6188 48.288 101.622 47.2556 103.899 45.0598L 101.816 42.9002C 100.211 44.4484 98.0138 45.288 95.0576 45.288L 95.0576 48.288ZM 103.889 45.0689C 106.176 42.9022 107.659 39.6349 108.488 35.4862L 105.547 34.8978C 104.782 38.7224 103.491 41.3138 101.826 42.8911L 103.889 45.0689ZM 108.489 35.4855L 112.597 14.8935L 109.655 14.3065L 105.547 34.8985L 108.489 35.4855ZM 111.126 16.1L 116.222 16.1L 116.222 13.1L 111.126 13.1L 111.126 16.1ZM 114.75 14.3079L 110.59 35.2639L 113.533 35.8481L 117.693 14.8921L 114.75 14.3079ZM 110.592 35.2562C 109.559 40.3213 107.662 43.9616 105.023 46.3523L 107.037 48.5757C 110.291 45.6277 112.415 41.3293 113.531 35.8558L 110.592 35.2562ZM 105.023 46.3517C 102.44 48.6887 99.011 49.916 94.5896 49.916L 94.5896 52.916C 99.5976 52.916 103.795 51.5087 107.036 48.5763L 105.023 46.3517ZM 151.01 34.204L 152.183 35.139L 151.01 34.204ZM 142.95 39.144L 142.573 37.6923L 140.69 38.1818L 141.642 39.8783L 142.95 39.144ZM 149.606 51L 149.606 52.5L 152.169 52.5L 150.914 50.2657L 149.606 51ZM 144.094 51L 142.791 51.7429L 143.223 52.5L 144.094 52.5L 144.094 51ZM 137.75 39.872L 139.054 39.1291L 138.622 38.372L 137.75 38.372L 137.75 39.872ZM 127.038 39.872L 127.038 38.372L 125.804 38.372L 125.567 39.5831L 127.038 39.872ZM 124.854 51L 124.854 52.5L 126.089 52.5L 126.326 51.2889L 124.854 51ZM 119.602 51L 118.132 50.7058L 117.773 52.5L 119.602 52.5L 119.602 51ZM 126.882 14.6L 126.882 13.1L 125.653 13.1L 125.412 14.3058L 126.882 14.6ZM 150.334 17.408L 149.393 18.5759L 149.403 18.5836L 149.412 18.5911L 150.334 17.408ZM 145.602 32.956L 144.656 31.7924L 145.602 32.956ZM 146.434 20.788L 147.33 19.5847L 146.434 20.788ZM 131.198 19.124L 131.198 17.624L 129.969 17.624L 129.728 18.8289L 131.198 19.124ZM 127.922 35.452L 126.452 35.1569L 126.092 36.952L 127.922 36.952L 127.922 35.452ZM 152.37 25.26C 152.37 28.5504 151.498 31.1857 149.837 33.269L 152.183 35.139C 154.336 32.4383 155.37 29.111 155.37 25.26L 152.37 25.26ZM 149.837 33.269C 148.166 35.3657 145.781 36.8581 142.573 37.6923L 143.328 40.5957C 147.053 39.6272 150.041 37.8263 152.183 35.139L 149.837 33.269ZM 141.642 39.8783L 148.298 51.7343L 150.914 50.2657L 144.258 38.4097L 141.642 39.8783ZM 149.606 49.5L 144.094 49.5L 144.094 52.5L 149.606 52.5L 149.606 49.5ZM 145.398 50.2571L 139.054 39.1291L 136.447 40.6149L 142.791 51.7429L 145.398 50.2571ZM 137.75 38.372L 136.762 38.372L 136.762 41.372L 137.75 41.372L 137.75 38.372ZM 136.762 38.372L 127.038 38.372L 127.038 41.372L 136.762 41.372L 136.762 38.372ZM 125.567 39.5831L 123.383 50.7111L 126.326 51.2889L 128.51 40.1609L 125.567 39.5831ZM 124.854 49.5L 119.602 49.5L 119.602 52.5L 124.854 52.5L 124.854 49.5ZM 121.073 51.2942L 128.353 14.8942L 125.412 14.3058L 118.132 50.7058L 121.073 51.2942ZM 126.882 16.1L 140.454 16.1L 140.454 13.1L 126.882 13.1L 126.882 16.1ZM 140.454 16.1C 144.52 16.1 147.431 16.9943 149.393 18.5759L 151.276 16.2401C 148.593 14.0777 144.917 13.1 140.454 13.1L 140.454 16.1ZM 149.412 18.5911C 151.352 20.1028 152.37 22.2533 152.37 25.26L 155.37 25.26C 155.37 21.4721 154.032 18.3878 151.257 16.2249L 149.412 18.5911ZM 136.918 36.952C 140.865 36.952 144.144 36.0765 146.549 34.1196L 144.656 31.7924C 142.971 33.1635 140.46 33.952 136.918 33.952L 136.918 36.952ZM 146.549 34.1196C 149.014 32.114 150.17 29.2357 150.17 25.728L 147.17 25.728C 147.17 28.5296 146.281 30.47 144.656 31.7924L 146.549 34.1196ZM 150.17 25.728C 150.17 23.1641 149.271 21.0289 147.33 19.5847L 145.539 21.9913C 146.58 22.7657 147.17 23.9239 147.17 25.728L 150.17 25.728ZM 147.33 19.5847C 145.478 18.2067 142.961 17.624 139.986 17.624L 139.986 20.624C 142.628 20.624 144.409 21.1507 145.539 21.9913L 147.33 19.5847ZM 139.986 17.624L 131.198 17.624L 131.198 20.624L 139.986 20.624L 139.986 17.624ZM 129.728 18.8289L 126.452 35.1569L 129.393 35.7471L 132.669 19.4191L 129.728 18.8289ZM 127.922 36.952L 136.918 36.952L 136.918 33.952L 127.922 33.952L 127.922 36.952ZM 178.629 14.6L 178.629 13.1L 177.399 13.1L 177.158 14.3058L 178.629 14.6ZM 183.829 14.6L 185.299 14.8942L 185.658 13.1L 183.829 13.1L 183.829 14.6ZM 176.549 51L 176.549 52.5L 177.778 52.5L 178.019 51.2942L 176.549 51ZM 171.349 51L 169.878 50.7058L 169.519 52.5L 171.349 52.5L 171.349 51ZM 178.629 16.1L 183.829 16.1L 183.829 13.1L 178.629 13.1L 178.629 16.1ZM 182.358 14.3058L 175.078 50.7058L 178.019 51.2942L 185.299 14.8942L 182.358 14.3058ZM 176.549 49.5L 171.349 49.5L 171.349 52.5L 176.549 52.5L 176.549 49.5ZM 172.819 51.2942L 180.099 14.8942L 177.158 14.3058L 169.878 50.7058L 172.819 51.2942ZM 226.03 14.6L 227.501 14.8942L 227.86 13.1L 226.03 13.1L 226.03 14.6ZM 218.75 51L 218.75 52.5L 219.98 52.5L 220.221 51.2942L 218.75 51ZM 214.486 51L 213.189 51.7533L 213.623 52.5L 214.486 52.5L 214.486 51ZM 198.21 22.972L 199.507 22.2187L 197.512 18.7834L 196.739 22.6799L 198.21 22.972ZM 192.646 51L 192.646 52.5L 193.878 52.5L 194.117 51.2921L 192.646 51ZM 187.446 51L 185.975 50.7058L 185.616 52.5L 187.446 52.5L 187.446 51ZM 194.726 14.6L 194.726 13.1L 193.496 13.1L 193.255 14.3058L 194.726 14.6ZM 198.99 14.6L 200.287 13.8467L 199.854 13.1L 198.99 13.1L 198.99 14.6ZM 215.266 42.628L 213.969 43.3813L 215.964 46.8166L 216.737 42.9201L 215.266 42.628ZM 220.83 14.6L 220.83 13.1L 219.599 13.1L 219.359 14.3079L 220.83 14.6ZM 224.559 14.3058L 217.279 50.7058L 220.221 51.2942L 227.501 14.8942L 224.559 14.3058ZM 218.75 49.5L 214.486 49.5L 214.486 52.5L 218.75 52.5L 218.75 49.5ZM 215.783 50.2467L 199.507 22.2187L 196.913 23.7253L 213.189 51.7533L 215.783 50.2467ZM 196.739 22.6799L 191.175 50.7079L 194.117 51.2921L 199.681 23.2641L 196.739 22.6799ZM 192.646 49.5L 187.446 49.5L 187.446 52.5L 192.646 52.5L 192.646 49.5ZM 188.917 51.2942L 196.197 14.8942L 193.255 14.3058L 185.975 50.7058L 188.917 51.2942ZM 194.726 16.1L 198.99 16.1L 198.99 13.1L 194.726 13.1L 194.726 16.1ZM 197.693 15.3533L 213.969 43.3813L 216.563 41.8747L 200.287 13.8467L 197.693 15.3533ZM 216.737 42.9201L 222.301 14.8921L 219.359 14.3079L 213.795 42.3359L 216.737 42.9201ZM 220.83 16.1L 226.03 16.1L 226.03 13.1L 220.83 13.1L 220.83 16.1ZM 236.925 14.6L 236.925 13.1L 235.696 13.1L 235.455 14.3058L 236.925 14.6ZM 260.533 16.472L 259.884 17.8243L 259.895 17.8295L 259.906 17.8345L 260.533 16.472ZM 266.513 21.672L 265.227 22.4437L 265.234 22.4554L 265.241 22.467L 266.513 21.672ZM 265.733 40.756L 264.439 39.9985L 264.433 40.0088L 265.733 40.756ZM 257.777 48.348L 258.47 49.6786L 258.475 49.676L 257.777 48.348ZM 229.645 51L 228.175 50.7058L 227.816 52.5L 229.645 52.5L 229.645 51ZM 255.229 44.344L 255.949 45.6602L 255.229 44.344ZM 261.209 38.468L 259.902 37.7335L 259.898 37.7395L 261.209 38.468ZM 260.117 21.984L 259.122 23.1062L 259.132 23.1151L 260.117 21.984ZM 241.189 19.124L 241.189 17.624L 239.959 17.624L 239.718 18.8304L 241.189 19.124ZM 235.729 46.476L 234.258 46.1824L 233.9 47.976L 235.729 47.976L 235.729 46.476ZM 236.925 16.1L 251.173 16.1L 251.173 13.1L 236.925 13.1L 236.925 16.1ZM 251.173 16.1C 254.646 16.1 257.533 16.6956 259.884 17.8243L 261.183 15.1197C 258.334 13.7524 254.981 13.1 251.173 13.1L 251.173 16.1ZM 259.906 17.8345C 262.296 18.9353 264.046 20.4757 265.227 22.4437L 267.8 20.9003C 266.276 18.3616 264.04 16.4354 261.161 15.1095L 259.906 17.8345ZM 265.241 22.467C 266.457 24.4126 267.093 26.7453 267.093 29.524L 270.093 29.524C 270.093 26.2707 269.343 23.3687 267.785 20.877L 265.241 22.467ZM 267.093 29.524C 267.093 33.5198 266.195 36.9963 264.439 39.9985L 267.028 41.5135C 269.085 37.9983 270.093 33.9868 270.093 29.524L 267.093 29.524ZM 264.433 40.0088C 262.707 43.0125 260.268 45.3454 257.08 47.02L 258.475 49.676C 262.151 47.7453 265.016 45.0169 267.034 41.5032L 264.433 40.0088ZM 257.085 47.0174C 253.936 48.656 250.23 49.5 245.921 49.5L 245.921 52.5C 250.627 52.5 254.824 51.576 258.47 49.6786L 257.085 47.0174ZM 245.921 49.5L 229.645 49.5L 229.645 52.5L 245.921 52.5L 245.921 49.5ZM 231.116 51.2942L 238.396 14.8942L 235.455 14.3058L 228.175 50.7058L 231.116 51.2942ZM 246.077 47.976C 249.784 47.976 253.091 47.2223 255.949 45.6602L 254.51 43.0278C 252.167 44.3084 249.373 44.976 246.077 44.976L 246.077 47.976ZM 255.949 45.6602C 258.788 44.1082 260.991 41.95 262.521 39.1965L 259.898 37.7395C 258.655 39.978 256.871 41.7371 254.51 43.0278L 255.949 45.6602ZM 262.517 39.2025C 264.078 36.4235 264.841 33.2882 264.841 29.836L 261.841 29.836C 261.841 32.8318 261.183 35.4512 259.902 37.7335L 262.517 39.2025ZM 264.841 29.836C 264.841 26.1254 263.639 23.0617 261.103 20.8529L 259.132 23.1151C 260.895 24.6503 261.841 26.8212 261.841 29.836L 264.841 29.836ZM 261.113 20.8619C 258.588 18.6224 255.018 17.624 250.653 17.624L 250.653 20.624C 254.608 20.624 257.348 21.5323 259.122 23.1061L 261.113 20.8619ZM 250.653 17.624L 241.189 17.624L 241.189 20.624L 250.653 20.624L 250.653 17.624ZM 239.718 18.8304L 234.258 46.1824L 237.2 46.7696L 242.66 19.4176L 239.718 18.8304ZM 235.729 47.976L 246.077 47.976L 246.077 44.976L 235.729 44.976L 235.729 47.976ZM 279.886 14.6L 279.886 13.1L 278.657 13.1L 278.415 14.3058L 279.886 14.6ZM 285.086 14.6L 286.557 14.8942L 286.916 13.1L 285.086 13.1L 285.086 14.6ZM 277.806 51L 277.806 52.5L 279.036 52.5L 279.277 51.2942L 277.806 51ZM 272.606 51L 271.135 50.7058L 270.777 52.5L 272.606 52.5L 272.606 51ZM 279.886 16.1L 285.086 16.1L 285.086 13.1L 279.886 13.1L 279.886 16.1ZM 283.615 14.3058L 276.335 50.7058L 279.277 51.2942L 286.557 14.8942L 283.615 14.3058ZM 277.806 49.5L 272.606 49.5L 272.606 52.5L 277.806 52.5L 277.806 49.5ZM 274.077 51.2942L 281.357 14.8942L 278.415 14.3058L 271.135 50.7058L 274.077 51.2942ZM 327.245 14.6L 328.508 15.4086L 329.985 13.1L 327.245 13.1L 327.245 14.6ZM 303.949 51L 303.949 52.5L 304.769 52.5L 305.212 51.8086L 303.949 51ZM 298.853 51L 297.394 51.3501L 297.67 52.5L 298.853 52.5L 298.853 51ZM 290.117 14.6L 290.117 13.1L 288.214 13.1L 288.658 14.9501L 290.117 14.6ZM 295.473 14.6L 296.932 14.2553L 296.66 13.1L 295.473 13.1L 295.473 14.6ZM 302.545 44.552L 301.085 44.8967L 301.895 48.33L 303.806 45.3642L 302.545 44.552ZM 321.837 14.6L 321.837 13.1L 321.018 13.1L 320.575 13.7878L 321.837 14.6ZM 325.981 13.7914L 302.685 50.1914L 305.212 51.8086L 328.508 15.4086L 325.981 13.7914ZM 303.949 49.5L 298.853 49.5L 298.853 52.5L 303.949 52.5L 303.949 49.5ZM 300.311 50.6499L 291.575 14.2499L 288.658 14.9501L 297.394 51.3501L 300.311 50.6499ZM 290.117 16.1L 295.473 16.1L 295.473 13.1L 290.117 13.1L 290.117 16.1ZM 294.013 14.9447L 301.085 44.8967L 304.004 44.2073L 296.932 14.2553L 294.013 14.9447ZM 303.806 45.3642L 323.098 15.4122L 320.575 13.7878L 301.283 43.7398L 303.806 45.3642ZM 321.837 16.1L 327.245 16.1L 327.245 13.1L 321.837 13.1L 321.837 16.1ZM 331.886 14.6L 331.886 13.1L 330.657 13.1L 330.415 14.3058L 331.886 14.6ZM 337.086 14.6L 338.557 14.8942L 338.916 13.1L 337.086 13.1L 337.086 14.6ZM 329.806 51L 329.806 52.5L 331.036 52.5L 331.277 51.2942L 329.806 51ZM 324.606 51L 323.135 50.7058L 322.777 52.5L 324.606 52.5L 324.606 51ZM 331.886 16.1L 337.086 16.1L 337.086 13.1L 331.886 13.1L 331.886 16.1ZM 335.615 14.3058L 328.335 50.7058L 331.277 51.2942L 338.557 14.8942L 335.615 14.3058ZM 329.806 49.5L 324.606 49.5L 324.606 52.5L 329.806 52.5L 329.806 49.5ZM 326.077 51.2942L 333.357 14.8942L 330.415 14.3058L 323.135 50.7058L 326.077 51.2942ZM 347.984 14.6L 347.984 13.1L 346.754 13.1L 346.513 14.3058L 347.984 14.6ZM 371.592 16.472L 370.943 17.8243L 370.954 17.8295L 370.965 17.8345L 371.592 16.472ZM 377.572 21.672L 376.286 22.4437L 376.293 22.4554L 376.3 22.467L 377.572 21.672ZM 376.792 40.756L 375.497 39.9985L 375.491 40.0088L 376.792 40.756ZM 368.836 48.348L 369.528 49.6786L 369.534 49.676L 368.836 48.348ZM 340.704 51L 339.233 50.7058L 338.874 52.5L 340.704 52.5L 340.704 51ZM 366.288 44.344L 367.008 45.6602L 366.288 44.344ZM 372.268 38.468L 370.96 37.7335L 370.957 37.7395L 372.268 38.468ZM 371.176 21.984L 370.181 23.1062L 370.191 23.1151L 371.176 21.984ZM 352.248 19.124L 352.248 17.624L 351.018 17.624L 350.777 18.8304L 352.248 19.124ZM 346.788 46.476L 345.317 46.1824L 344.959 47.976L 346.788 47.976L 346.788 46.476ZM 347.984 16.1L 362.232 16.1L 362.232 13.1L 347.984 13.1L 347.984 16.1ZM 362.232 16.1C 365.705 16.1 368.591 16.6956 370.943 17.8243L 372.241 15.1197C 369.393 13.7524 366.039 13.1 362.232 13.1L 362.232 16.1ZM 370.965 17.8345C 373.355 18.9353 375.105 20.4757 376.286 22.4437L 378.858 20.9003C 377.335 18.3616 375.098 16.4354 372.219 15.1095L 370.965 17.8345ZM 376.3 22.467C 377.516 24.4126 378.152 26.7453 378.152 29.524L 381.152 29.524C 381.152 26.2707 380.401 23.3687 378.844 20.877L 376.3 22.467ZM 378.152 29.524C 378.152 33.5198 377.254 36.9963 375.497 39.9985L 378.087 41.5135C 380.143 37.9983 381.152 33.9868 381.152 29.524L 378.152 29.524ZM 375.491 40.0088C 373.766 43.0125 371.327 45.3454 368.138 47.02L 369.534 49.676C 373.209 47.7453 376.074 45.0169 378.093 41.5032L 375.491 40.0088ZM 368.144 47.0174C 364.995 48.656 361.288 49.5 356.98 49.5L 356.98 52.5C 361.685 52.5 365.882 51.576 369.528 49.6786L 368.144 47.0174ZM 356.98 49.5L 340.704 49.5L 340.704 52.5L 356.98 52.5L 356.98 49.5ZM 342.175 51.2942L 349.455 14.8942L 346.513 14.3058L 339.233 50.7058L 342.175 51.2942ZM 357.136 47.976C 360.843 47.976 364.15 47.2223 367.008 45.6602L 365.568 43.0278C 363.226 44.3084 360.432 44.976 357.136 44.976L 357.136 47.976ZM 367.008 45.6602C 369.846 44.1082 372.049 41.95 373.579 39.1965L 370.957 37.7395C 369.713 39.978 367.93 41.7371 365.568 43.0278L 367.008 45.6602ZM 373.576 39.2025C 375.137 36.4235 375.9 33.2882 375.9 29.836L 372.9 29.836C 372.9 32.8318 372.242 35.4512 370.96 37.7335L 373.576 39.2025ZM 375.9 29.836C 375.9 26.1254 374.697 23.0617 372.161 20.8529L 370.191 23.1151C 371.953 24.6503 372.9 26.8212 372.9 29.836L 375.9 29.836ZM 372.171 20.8619C 369.647 18.6224 366.077 17.624 361.712 17.624L 361.712 20.624C 365.667 20.624 368.406 21.5323 370.181 23.1061L 372.171 20.8619ZM 361.712 17.624L 352.248 17.624L 352.248 20.624L 361.712 20.624L 361.712 17.624ZM 350.777 18.8304L 345.317 46.1824L 348.259 46.7696L 353.719 19.4176L 350.777 18.8304ZM 346.788 47.976L 357.136 47.976L 357.136 44.976L 346.788 44.976L 346.788 47.976ZM 389.697 48.192L 388.694 49.3078L 388.702 49.3149L 389.697 48.192ZM 386.525 35.296L 385.054 35.004L 385.052 35.0128L 385.05 35.0216L 386.525 35.296ZM 390.633 14.6L 390.633 13.1L 389.401 13.1L 389.162 14.308L 390.633 14.6ZM 395.833 14.6L 397.303 14.8963L 397.665 13.1L 395.833 13.1L 395.833 14.6ZM 391.673 35.244L 393.142 35.5465L 393.143 35.5403L 391.673 35.244ZM 393.597 44.76L 392.588 45.8699L 392.595 45.8763L 392.602 45.8825L 393.597 44.76ZM 408.053 43.98L 407.021 42.891L 407.012 42.9002L 408.053 43.98ZM 412.213 35.192L 413.684 35.4862L 413.684 35.4855L 412.213 35.192ZM 416.321 14.6L 416.321 13.1L 415.091 13.1L 414.85 14.3065L 416.321 14.6ZM 421.417 14.6L 422.888 14.8921L 423.244 13.1L 421.417 13.1L 421.417 14.6ZM 417.257 35.556L 418.727 35.8558L 418.728 35.8481L 417.257 35.556ZM 411.225 47.464L 412.231 48.5763L 412.232 48.5757L 411.225 47.464ZM 399.785 49.916C 395.731 49.916 392.765 48.9055 390.691 47.0691L 388.702 49.3149C 391.482 51.7772 395.241 52.916 399.785 52.916L 399.785 49.916ZM 390.699 47.0763C 388.683 45.2645 387.609 42.7221 387.609 39.248L 384.609 39.248C 384.609 43.4005 385.927 46.8208 388.694 49.3077L 390.699 47.0763ZM 387.609 39.248C 387.609 38.2201 387.734 36.9978 388 35.5704L 385.05 35.0216C 384.761 36.5755 384.609 37.9879 384.609 39.248L 387.609 39.248ZM 387.996 35.588L 392.104 14.892L 389.162 14.308L 385.054 35.004L 387.996 35.588ZM 390.633 16.1L 395.833 16.1L 395.833 13.1L 390.633 13.1L 390.633 16.1ZM 394.362 14.3037L 390.202 34.9477L 393.143 35.5403L 397.303 14.8963L 394.362 14.3037ZM 390.204 34.9415C 389.942 36.2114 389.809 37.4569 389.809 38.676L 392.809 38.676C 392.809 37.6764 392.918 36.6339 393.142 35.5465L 390.204 34.9415ZM 389.809 38.676C 389.809 41.6359 390.664 44.1208 392.588 45.8699L 394.606 43.6501C 393.479 42.6258 392.809 41.0548 392.809 38.676L 389.809 38.676ZM 392.602 45.8825C 394.499 47.5642 397.13 48.288 400.253 48.288L 400.253 45.288C 397.552 45.288 395.745 44.6598 394.592 43.6375L 392.602 45.8825ZM 400.253 48.288C 403.814 48.288 406.817 47.2556 409.094 45.0598L 407.012 42.9002C 405.406 44.4484 403.209 45.288 400.253 45.288L 400.253 48.288ZM 409.085 45.0689C 411.372 42.9022 412.854 39.6349 413.684 35.4862L 410.742 34.8978C 409.977 38.7224 408.686 41.3138 407.021 42.8911L 409.085 45.0689ZM 413.684 35.4855L 417.792 14.8935L 414.85 14.3065L 410.742 34.8985L 413.684 35.4855ZM 416.321 16.1L 421.417 16.1L 421.417 13.1L 416.321 13.1L 416.321 16.1ZM 419.946 14.3079L 415.786 35.2639L 418.728 35.8481L 422.888 14.8921L 419.946 14.3079ZM 415.787 35.2562C 414.754 40.3213 412.857 43.9616 410.218 46.3523L 412.232 48.5757C 415.486 45.6277 417.61 41.3293 418.727 35.8558L 415.787 35.2562ZM 410.219 46.3517C 407.636 48.6887 404.206 49.916 399.785 49.916L 399.785 52.916C 404.793 52.916 408.99 51.5087 412.231 48.5763L 410.219 46.3517ZM 449.36 41.9L 450.819 41.5499L 450.543 40.4L 449.36 40.4L 449.36 41.9ZM 429.912 41.9L 429.912 40.4L 429.087 40.4L 428.645 41.0966L 429.912 41.9ZM 424.14 51L 424.14 52.5L 424.965 52.5L 425.407 51.8034L 424.14 51ZM 418.524 51L 417.269 50.1787L 415.75 52.5L 418.524 52.5L 418.524 51ZM 442.34 14.6L 442.34 13.1L 441.529 13.1L 441.085 13.7787L 442.34 14.6ZM 447.488 14.6L 448.942 14.2323L 448.656 13.1L 447.488 13.1L 447.488 14.6ZM 456.692 51L 456.692 52.5L 458.619 52.5L 458.146 50.6323L 456.692 51ZM 451.544 51L 450.085 51.3501L 450.361 52.5L 451.544 52.5L 451.544 51ZM 448.32 37.74L 448.32 39.24L 450.224 39.24L 449.778 37.3891L 448.32 37.74ZM 444.004 19.8L 445.462 19.4491L 444.637 16.0177L 442.739 18.9935L 444.004 19.8ZM 432.564 37.74L 431.299 36.9335L 429.828 39.24L 432.564 39.24L 432.564 37.74ZM 449.36 40.4L 429.912 40.4L 429.912 43.4L 449.36 43.4L 449.36 40.4ZM 428.645 41.0966L 422.873 50.1966L 425.407 51.8034L 431.179 42.7034L 428.645 41.0966ZM 424.14 49.5L 418.524 49.5L 418.524 52.5L 424.14 52.5L 424.14 49.5ZM 419.779 51.8213L 443.595 15.4213L 441.085 13.7787L 417.269 50.1787L 419.779 51.8213ZM 442.34 16.1L 447.488 16.1L 447.488 13.1L 442.34 13.1L 442.34 16.1ZM 446.034 14.9677L 455.238 51.3677L 458.146 50.6323L 448.942 14.2323L 446.034 14.9677ZM 456.692 49.5L 451.544 49.5L 451.544 52.5L 456.692 52.5L 456.692 49.5ZM 453.003 50.6499L 450.819 41.5499L 447.901 42.2501L 450.085 51.3501L 453.003 50.6499ZM 449.778 37.3891L 445.462 19.4491L 442.546 20.1509L 446.862 38.0909L 449.778 37.3891ZM 442.739 18.9935L 431.299 36.9335L 433.829 38.5465L 445.269 20.6065L 442.739 18.9935ZM 432.564 39.24L 448.32 39.24L 448.32 36.24L 432.564 36.24L 432.564 39.24ZM 469.402 14.6L 469.402 13.1L 468.172 13.1L 467.931 14.3058L 469.402 14.6ZM 474.602 14.6L 476.073 14.8951L 476.433 13.1L 474.602 13.1L 474.602 14.6ZM 468.206 46.476L 466.735 46.1809L 466.375 47.976L 468.206 47.976L 468.206 46.476ZM 487.966 46.476L 489.438 46.7637L 489.787 44.976L 487.966 44.976L 487.966 46.476ZM 487.082 51L 487.082 52.5L 488.317 52.5L 488.554 51.2877L 487.082 51ZM 462.122 51L 460.651 50.7058L 460.292 52.5L 462.122 52.5L 462.122 51ZM 469.402 16.1L 474.602 16.1L 474.602 13.1L 469.402 13.1L 469.402 16.1ZM 473.131 14.3049L 466.735 46.1809L 469.677 46.7711L 476.073 14.8951L 473.131 14.3049ZM 468.206 47.976L 487.966 47.976L 487.966 44.976L 468.206 44.976L 468.206 47.976ZM 486.494 46.1883L 485.61 50.7123L 488.554 51.2877L 489.438 46.7637L 486.494 46.1883ZM 487.082 49.5L 462.122 49.5L 462.122 52.5L 487.082 52.5L 487.082 49.5ZM 463.593 51.2942L 470.873 14.8942L 467.931 14.3058L 460.651 50.7058L 463.593 51.2942ZM 9.984 78.6L 9.984 77.1L 8.75429 77.1L 8.51313 78.3058L 9.984 78.6ZM 33.592 80.472L 32.9429 81.8243L 32.9537 81.8295L 32.9645 81.8345L 33.592 80.472ZM 39.572 85.672L 38.2858 86.4437L 38.2928 86.4554L 38.3 86.467L 39.572 85.672ZM 38.792 104.756L 37.4973 103.998L 37.4913 104.009L 38.792 104.756ZM 30.836 112.348L 31.5285 113.679L 31.5335 113.676L 30.836 112.348ZM 2.704 115L 1.23313 114.706L 0.874294 116.5L 2.704 116.5L 2.704 115ZM 28.288 108.344L 29.0075 109.66L 28.288 108.344ZM 34.268 102.468L 32.9601 101.733L 32.9568 101.74L 34.268 102.468ZM 33.176 85.984L 32.1805 87.1062L 32.1908 87.1151L 33.176 85.984ZM 14.248 83.124L 14.248 81.624L 13.0178 81.624L 12.777 82.8304L 14.248 83.124ZM 8.788 110.476L 7.31702 110.182L 6.95898 111.976L 8.788 111.976L 8.788 110.476ZM 9.984 80.1L 24.232 80.1L 24.232 77.1L 9.984 77.1L 9.984 80.1ZM 24.232 80.1C 27.7045 80.1 30.5914 80.6956 32.9429 81.8243L 34.2411 79.1197C 31.3926 77.7524 28.0395 77.1 24.232 77.1L 24.232 80.1ZM 32.9645 81.8345C 35.3549 82.9353 37.105 84.4757 38.2858 86.4437L 40.8582 84.9003C 39.335 82.3616 37.0984 80.4354 34.2195 79.1095L 32.9645 81.8345ZM 38.3 86.467C 39.516 88.4126 40.152 90.7453 40.152 93.524L 43.152 93.524C 43.152 90.2707 42.4013 87.3687 40.844 84.877L 38.3 86.467ZM 40.152 93.524C 40.152 97.5198 39.2539 100.996 37.4973 103.998L 40.0867 105.514C 42.1434 101.998 43.152 97.9868 43.152 93.524L 40.152 93.524ZM 37.4913 104.009C 35.7658 107.012 33.3268 109.345 30.1385 111.02L 31.5335 113.676C 35.2092 111.745 38.0742 109.017 40.0927 105.503L 37.4913 104.009ZM 30.1435 111.017C 26.9949 112.656 23.2881 113.5 18.98 113.5L 18.98 116.5C 23.6852 116.5 27.8825 115.576 31.5285 113.679L 30.1435 111.017ZM 18.98 113.5L 2.704 113.5L 2.704 116.5L 18.98 116.5L 18.98 113.5ZM 4.17487 115.294L 11.4549 78.8942L 8.51313 78.3058L 1.23313 114.706L 4.17487 115.294ZM 19.136 111.976C 22.8431 111.976 26.15 111.222 29.0075 109.66L 27.5685 107.028C 25.226 108.308 22.4316 108.976 19.136 108.976L 19.136 111.976ZM 29.0075 109.66C 31.8465 108.108 34.0495 105.95 35.5792 103.196L 32.9568 101.74C 31.7132 103.978 29.9295 105.737 27.5685 107.028L 29.0075 109.66ZM 35.5758 103.203C 37.1367 100.423 37.9 97.2882 37.9 93.836L 34.9 93.836C 34.9 96.8318 34.242 99.4512 32.9602 101.733L 35.5758 103.203ZM 37.9 93.836C 37.9 90.1254 36.6972 87.0617 34.1612 84.8529L 32.1908 87.1151C 33.9535 88.6503 34.9 90.8212 34.9 93.836L 37.9 93.836ZM 34.1714 84.8619C 31.6469 82.6224 28.0771 81.624 23.712 81.624L 23.712 84.624C 27.6669 84.624 30.4064 85.5323 32.1806 87.1061L 34.1714 84.8619ZM 23.712 81.624L 14.248 81.624L 14.248 84.624L 23.712 84.624L 23.712 81.624ZM 12.777 82.8304L 7.31702 110.182L 10.259 110.77L 15.719 83.4176L 12.777 82.8304ZM 8.788 111.976L 19.136 111.976L 19.136 108.976L 8.788 108.976L 8.788 111.976ZM 70.4811 105.9L 71.9397 105.55L 71.6637 104.4L 70.4811 104.4L 70.4811 105.9ZM 51.0331 105.9L 51.0331 104.4L 50.2083 104.4L 49.7664 105.097L 51.0331 105.9ZM 45.2611 115L 45.2611 116.5L 46.086 116.5L 46.5278 115.803L 45.2611 115ZM 39.6451 115L 38.3899 114.179L 36.8712 116.5L 39.6451 116.5L 39.6451 115ZM 63.4611 78.6L 63.4611 77.1L 62.65 77.1L 62.2059 77.7787L 63.4611 78.6ZM 68.6091 78.6L 70.0634 78.2323L 69.777 77.1L 68.6091 77.1L 68.6091 78.6ZM 77.8131 115L 77.8131 116.5L 79.7396 116.5L 79.2674 114.632L 77.8131 115ZM 72.6651 115L 71.2065 115.35L 71.4825 116.5L 72.6651 116.5L 72.6651 115ZM 69.4411 101.74L 69.4411 103.24L 71.3448 103.24L 70.8995 101.389L 69.4411 101.74ZM 65.1251 83.8L 66.5835 83.4491L 65.758 80.0177L 63.8604 82.9935L 65.1251 83.8ZM 53.6851 101.74L 52.4204 100.934L 50.9496 103.24L 53.6851 103.24L 53.6851 101.74ZM 70.4811 104.4L 51.0331 104.4L 51.0331 107.4L 70.4811 107.4L 70.4811 104.4ZM 49.7664 105.097L 43.9944 114.197L 46.5278 115.803L 52.2998 106.703L 49.7664 105.097ZM 45.2611 113.5L 39.6451 113.5L 39.6451 116.5L 45.2611 116.5L 45.2611 113.5ZM 40.9003 115.821L 64.7163 79.4213L 62.2059 77.7787L 38.3899 114.179L 40.9003 115.821ZM 63.4611 80.1L 68.6091 80.1L 68.6091 77.1L 63.4611 77.1L 63.4611 80.1ZM 67.1549 78.9677L 76.3589 115.368L 79.2674 114.632L 70.0634 78.2323L 67.1549 78.9677ZM 77.8131 113.5L 72.6651 113.5L 72.6651 116.5L 77.8131 116.5L 77.8131 113.5ZM 74.1237 114.65L 71.9397 105.55L 69.0225 106.25L 71.2065 115.35L 74.1237 114.65ZM 70.8995 101.389L 66.5835 83.4491L 63.6667 84.1509L 67.9827 102.091L 70.8995 101.389ZM 63.8604 82.9935L 52.4204 100.934L 54.9499 102.546L 66.3899 84.6065L 63.8604 82.9935ZM 53.6851 103.24L 69.4411 103.24L 69.4411 100.24L 53.6851 100.24L 53.6851 103.24ZM 86.6231 114.168L 86.1487 115.591L 86.1546 115.593L 86.6231 114.168ZM 80.8511 110.996L 79.5367 110.273L 78.9789 111.287L 79.8187 112.084L 80.8511 110.996ZM 83.1391 106.836L 84.1576 105.735L 82.7493 104.432L 81.8247 106.113L 83.1391 106.836ZM 88.3911 109.904L 87.8822 111.315L 87.8925 111.319L 87.9028 111.322L 88.3911 109.904ZM 102.067 109.384L 102.846 110.666L 102.853 110.661L 102.067 109.384ZM 103.731 102.208L 102.67 103.269L 103.731 102.208ZM 101.183 100.544L 101.757 99.158L 101.183 100.544ZM 96.9191 99.088L 97.3526 97.652L 97.3481 97.6507L 96.9191 99.088ZM 87.6111 94.356L 86.4429 95.297L 86.4573 95.3148L 86.4722 95.3322L 87.6111 94.356ZM 88.0271 83.488L 89.2241 84.3919L 88.0271 83.488ZM 93.3831 79.588L 93.9328 80.9836L 93.942 80.98L 93.951 80.9763L 93.3831 79.588ZM 107.631 79.016L 107.232 80.462L 107.247 80.466L 107.261 80.4698L 107.631 79.016ZM 112.935 81.252L 114.283 81.9096L 114.864 80.7183L 113.754 79.995L 112.935 81.252ZM 110.855 85.516L 109.98 86.7345L 111.424 87.771L 112.203 86.1736L 110.855 85.516ZM 106.279 83.332L 105.859 84.772L 105.867 84.7743L 106.279 83.332ZM 93.8511 84.372L 94.6659 85.6314L 94.6746 85.6258L 94.6831 85.6201L 93.8511 84.372ZM 92.2391 91.704L 91.1529 92.7385L 91.1655 92.7517L 91.1784 92.7647L 92.2391 91.704ZM 94.8911 93.42L 94.334 94.8127L 94.3418 94.8158L 94.3496 94.8189L 94.8911 93.42ZM 99.2591 94.876L 99.6941 93.4405L 99.6926 93.44L 99.2591 94.876ZM 104.771 96.852L 104.156 98.2199L 104.176 98.2291L 104.197 98.2376L 104.771 96.852ZM 108.359 99.504L 107.201 100.458L 107.209 100.468L 107.218 100.477L 108.359 99.504ZM 107.891 110.112L 106.706 109.193L 106.7 109.2L 106.694 109.208L 107.891 110.112ZM 102.483 114.064L 103.026 115.462L 103.035 115.459L 103.044 115.455L 102.483 114.064ZM 94.4751 113.916C 91.9278 113.916 89.4687 113.525 87.0915 112.743L 86.1546 115.593C 88.8387 116.475 91.6143 116.916 94.4751 116.916L 94.4751 113.916ZM 87.0974 112.745C 84.7297 111.956 83.0246 110.99 81.8835 109.908L 79.8187 112.084C 81.3815 113.567 83.5244 114.716 86.1487 115.591L 87.0974 112.745ZM 82.1654 111.719L 84.4534 107.559L 81.8247 106.113L 79.5367 110.273L 82.1654 111.719ZM 82.1205 107.937C 83.6798 109.38 85.6138 110.497 87.8822 111.315L 88.9 108.493C 86.9389 107.786 85.3716 106.858 84.1576 105.735L 82.1205 107.937ZM 87.9028 111.322C 90.1758 112.105 92.5248 112.496 94.9431 112.496L 94.9431 109.496C 92.8546 109.496 90.8357 109.159 88.8793 108.486L 87.9028 111.322ZM 94.9431 112.496C 98.0848 112.496 100.762 111.933 102.846 110.666L 101.288 108.102C 99.8363 108.985 97.764 109.496 94.9431 109.496L 94.9431 112.496ZM 102.853 110.661C 105.051 109.309 106.271 107.324 106.271 104.808L 103.271 104.808C 103.271 106.174 102.688 107.241 101.281 108.107L 102.853 110.661ZM 106.271 104.808C 106.271 103.397 105.785 102.14 104.792 101.147L 102.67 103.269C 103.064 103.662 103.271 104.139 103.271 104.808L 106.271 104.808ZM 104.792 101.147C 103.944 100.3 102.924 99.6411 101.757 99.158L 100.61 101.93C 101.453 102.279 102.131 102.729 102.67 103.269L 104.792 101.147ZM 101.757 99.158C 100.684 98.714 99.2075 98.212 97.3526 97.652L 96.4856 100.524C 98.3053 101.073 99.6719 101.542 100.61 101.93L 101.757 99.158ZM 97.3481 97.6507C 95.0558 96.9664 93.2486 96.328 91.906 95.7385L 90.7001 98.4855C 92.2002 99.144 94.137 99.8229 96.49 100.525L 97.3481 97.6507ZM 91.906 95.7385C 90.6971 95.2078 89.6479 94.4274 88.7499 93.3798L 86.4722 95.3322C 87.6543 96.7113 89.0664 97.7682 90.7001 98.4855L 91.906 95.7385ZM 88.7792 93.415C 88.0386 92.4956 87.6031 91.2255 87.6031 89.468L 84.6031 89.468C 84.6031 91.7318 85.1729 93.7204 86.4429 95.297L 88.7792 93.415ZM 87.6031 89.468C 87.6031 87.4802 88.1531 85.8102 89.2241 84.3919L 86.83 82.5841C 85.3356 84.5631 84.6031 86.8798 84.6031 89.468L 87.6031 89.468ZM 89.2241 84.3919C 90.3159 82.946 91.8611 81.7997 93.9328 80.9836L 92.8333 78.1924C 90.329 79.1789 88.3035 80.6327 86.83 82.5841L 89.2241 84.3919ZM 93.951 80.9763C 96.0277 80.1268 98.4465 79.684 101.235 79.684L 101.235 76.684C 98.1303 76.684 95.3144 77.1772 92.8151 78.1997L 93.951 80.9763ZM 101.235 79.684C 103.364 79.684 105.361 79.9459 107.232 80.462L 108.03 77.57C 105.879 76.9767 103.612 76.684 101.235 76.684L 101.235 79.684ZM 107.261 80.4698C 109.176 80.9566 110.787 81.643 112.117 82.509L 113.754 79.995C 112.102 78.9196 110.176 78.1154 108.001 77.5622L 107.261 80.4698ZM 111.587 80.5944L 109.507 84.8584L 112.203 86.1736L 114.283 81.9096L 111.587 80.5944ZM 111.73 84.2975C 110.229 83.2201 108.546 82.4195 106.691 81.8897L 105.867 84.7743C 107.41 85.2151 108.777 85.8705 109.98 86.7345L 111.73 84.2975ZM 106.699 81.892C 104.888 81.3638 102.978 81.104 100.975 81.104L 100.975 84.104C 102.716 84.104 104.342 84.3295 105.859 84.772L 106.699 81.892ZM 100.975 81.104C 97.8125 81.104 95.1142 81.7271 93.019 83.1239L 94.6831 85.6201C 96.1239 84.6595 98.175 84.104 100.975 84.104L 100.975 81.104ZM 93.0362 83.1126C 90.8841 84.5052 89.6991 86.5005 89.6991 89L 92.6991 89C 92.6991 87.6168 93.282 86.5268 94.6659 85.6314L 93.0362 83.1126ZM 89.6991 89C 89.6991 90.4306 90.1744 91.7111 91.1529 92.7385L 93.3253 90.6695C 92.917 90.2409 92.6991 89.7187 92.6991 89L 89.6991 89ZM 91.1784 92.7647C 92.0623 93.6485 93.1221 94.328 94.334 94.8127L 95.4481 92.0273C 94.58 91.68 93.8719 91.2155 93.2997 90.6433L 91.1784 92.7647ZM 94.3496 94.8189C 95.4753 95.2546 96.9723 95.7525 98.8256 96.312L 99.6926 93.44C 97.8712 92.8902 96.4562 92.4174 95.4326 92.0211L 94.3496 94.8189ZM 98.8241 96.3115C 101.081 96.9955 102.851 97.6328 104.156 98.2199L 105.387 95.4841C 103.918 94.8232 102.013 94.1432 99.6941 93.4405L 98.8241 96.3115ZM 104.197 98.2376C 105.393 98.7336 106.388 99.47 107.201 100.458L 109.517 98.5504C 108.389 97.1806 106.992 96.149 105.346 95.4664L 104.197 98.2376ZM 107.218 100.477C 107.946 101.331 108.367 102.487 108.367 104.08L 111.367 104.08C 111.367 101.929 110.783 100.034 109.5 98.5306L 107.218 100.477ZM 108.367 104.08C 108.367 106.098 107.802 107.779 106.706 109.193L 109.076 111.031C 110.615 109.048 111.367 106.707 111.367 104.08L 108.367 104.08ZM 106.694 109.208C 105.602 110.654 104.038 111.82 101.922 112.673L 103.044 115.455C 105.574 114.436 107.614 112.967 109.088 111.016L 106.694 109.208ZM 101.94 112.666C 99.823 113.487 97.3435 113.916 94.4751 113.916L 94.4751 116.916C 97.6387 116.916 100.498 116.443 103.026 115.462L 101.94 112.666ZM 154.124 78.6L 155.595 78.8942L 155.954 77.1L 154.124 77.1L 154.124 78.6ZM 146.844 115L 146.844 116.5L 148.074 116.5L 148.315 115.294L 146.844 115ZM 141.644 115L 140.173 114.706L 139.814 116.5L 141.644 116.5L 141.644 115ZM 144.868 98.88L 146.339 99.1742L 146.698 97.38L 144.868 97.38L 144.868 98.88ZM 123.964 98.88L 123.964 97.38L 122.734 97.38L 122.493 98.5858L 123.964 98.88ZM 120.74 115L 120.74 116.5L 121.97 116.5L 122.211 115.294L 120.74 115ZM 115.54 115L 114.069 114.706L 113.71 116.5L 115.54 116.5L 115.54 115ZM 122.82 78.6L 122.82 77.1L 121.59 77.1L 121.349 78.3058L 122.82 78.6ZM 128.02 78.6L 129.491 78.8942L 129.85 77.1L 128.02 77.1L 128.02 78.6ZM 124.9 94.2L 123.429 93.9058L 123.07 95.7L 124.9 95.7L 124.9 94.2ZM 145.804 94.2L 145.804 95.7L 147.034 95.7L 147.275 94.4942L 145.804 94.2ZM 148.924 78.6L 148.924 77.1L 147.694 77.1L 147.453 78.3058L 148.924 78.6ZM 152.653 78.3058L 145.373 114.706L 148.315 115.294L 155.595 78.8942L 152.653 78.3058ZM 146.844 113.5L 141.644 113.5L 141.644 116.5L 146.844 116.5L 146.844 113.5ZM 143.115 115.294L 146.339 99.1742L 143.397 98.5858L 140.173 114.706L 143.115 115.294ZM 144.868 97.38L 123.964 97.38L 123.964 100.38L 144.868 100.38L 144.868 97.38ZM 122.493 98.5858L 119.269 114.706L 122.211 115.294L 125.435 99.1742L 122.493 98.5858ZM 120.74 113.5L 115.54 113.5L 115.54 116.5L 120.74 116.5L 120.74 113.5ZM 117.011 115.294L 124.291 78.8942L 121.349 78.3058L 114.069 114.706L 117.011 115.294ZM 122.82 80.1L 128.02 80.1L 128.02 77.1L 122.82 77.1L 122.82 80.1ZM 126.549 78.3058L 123.429 93.9058L 126.371 94.4942L 129.491 78.8942L 126.549 78.3058ZM 124.9 95.7L 145.804 95.7L 145.804 92.7L 124.9 92.7L 124.9 95.7ZM 147.275 94.4942L 150.395 78.8942L 147.453 78.3058L 144.333 93.9058L 147.275 94.4942ZM 148.924 80.1L 154.124 80.1L 154.124 77.1L 148.924 77.1L 148.924 80.1ZM 185.923 96.228L 185.391 94.8255L 181.493 96.3043L 185.44 97.648L 185.923 96.228ZM 189.719 98.932L 188.503 99.8102L 189.719 98.932ZM 186.807 112.088L 187.66 113.322L 187.663 113.32L 186.807 112.088ZM 157.739 115L 156.268 114.706L 155.909 116.5L 157.739 116.5L 157.739 115ZM 165.019 78.6L 165.019 77.1L 163.789 77.1L 163.548 78.3058L 165.019 78.6ZM 189.615 80.68L 188.754 81.9078L 188.766 81.9164L 188.778 81.9248L 189.615 80.68ZM 190.759 92.64L 189.559 91.74L 189.556 91.7441L 190.759 92.64ZM 169.335 82.812L 169.335 81.312L 168.107 81.312L 167.865 82.5166L 169.335 82.812ZM 166.995 94.46L 165.525 94.1646L 165.164 95.96L 166.995 95.96L 166.995 94.46ZM 184.623 92.692L 185.478 93.9244L 185.483 93.9208L 184.623 92.692ZM 185.351 83.956L 184.553 85.226L 184.561 85.231L 184.569 85.2359L 185.351 83.956ZM 183.219 108.968L 184.068 110.205L 184.073 110.201L 183.219 108.968ZM 183.999 99.816L 183.217 101.096L 183.225 101.101L 183.233 101.105L 183.999 99.816ZM 166.163 98.672L 166.163 97.172L 164.93 97.172L 164.692 98.3815L 166.163 98.672ZM 163.771 110.788L 162.3 110.497L 161.946 112.288L 163.771 112.288L 163.771 110.788ZM 185.44 97.648C 186.811 98.1147 187.805 98.8438 188.503 99.8102L 190.935 98.0538C 189.83 96.5242 188.294 95.4506 186.407 94.808L 185.44 97.648ZM 188.503 99.8102C 189.183 100.752 189.571 101.986 189.571 103.612L 192.571 103.612C 192.571 101.494 192.058 99.6085 190.935 98.0538L 188.503 99.8102ZM 189.571 103.612C 189.571 106.831 188.362 109.18 185.951 110.856L 187.663 113.32C 190.938 111.044 192.571 107.742 192.571 103.612L 189.571 103.612ZM 185.954 110.854C 183.484 112.562 179.973 113.5 175.263 113.5L 175.263 116.5C 180.33 116.5 184.515 115.497 187.66 113.322L 185.954 110.854ZM 175.263 113.5L 157.739 113.5L 157.739 116.5L 175.263 116.5L 175.263 113.5ZM 159.21 115.294L 166.49 78.8942L 163.548 78.3058L 156.268 114.706L 159.21 115.294ZM 165.019 80.1L 181.139 80.1L 181.139 77.1L 165.019 77.1L 165.019 80.1ZM 181.139 80.1C 184.656 80.1 187.13 80.7688 188.754 81.9078L 190.477 79.4522C 188.148 77.8179 184.971 77.1 181.139 77.1L 181.139 80.1ZM 188.778 81.9248C 190.34 82.9748 191.131 84.4641 191.131 86.608L 194.131 86.608C 194.131 83.5519 192.912 81.0892 190.452 79.4352L 188.778 81.9248ZM 191.131 86.608C 191.131 88.6861 190.587 90.3697 189.559 91.74L 191.959 93.54C 193.427 91.5823 194.131 89.2446 194.131 86.608L 191.131 86.608ZM 189.556 91.7441C 188.524 93.1304 187.151 94.158 185.391 94.8255L 186.455 97.6305C 188.717 96.7726 190.568 95.4083 191.962 93.5359L 189.556 91.7441ZM 167.865 82.5166L 165.525 94.1646L 168.466 94.7554L 170.806 83.1074L 167.865 82.5166ZM 166.995 95.96L 177.655 95.96L 177.655 92.96L 166.995 92.96L 166.995 95.96ZM 177.655 95.96C 180.783 95.96 183.442 95.337 185.478 93.9244L 183.768 91.4596C 182.407 92.4043 180.421 92.96 177.655 92.96L 177.655 95.96ZM 185.483 93.9208C 187.655 92.401 188.723 90.1707 188.723 87.44L 185.723 87.44C 185.723 89.2853 185.058 90.5563 183.763 91.4632L 185.483 93.9208ZM 188.723 87.44C 188.723 85.3996 187.862 83.7325 186.133 82.6761L 184.569 85.2359C 185.336 85.7048 185.723 86.3604 185.723 87.44L 188.723 87.44ZM 186.149 82.686C 184.591 81.7066 182.494 81.312 180.047 81.312L 180.047 84.312C 182.246 84.312 183.684 84.6801 184.553 85.226L 186.149 82.686ZM 180.047 81.312L 169.335 81.312L 169.335 84.312L 180.047 84.312L 180.047 81.312ZM 175.627 112.288C 179.072 112.288 181.949 111.659 184.068 110.205L 182.37 107.731C 180.953 108.704 178.769 109.288 175.627 109.288L 175.627 112.288ZM 184.073 110.201C 186.301 108.659 187.423 106.419 187.423 103.664L 184.423 103.664C 184.423 105.485 183.743 106.781 182.365 107.735L 184.073 110.201ZM 187.423 103.664C 187.423 101.461 186.604 99.6197 184.766 98.5267L 183.233 101.105C 183.96 101.538 184.423 102.261 184.423 103.664L 187.423 103.664ZM 184.781 98.5361C 183.183 97.559 180.961 97.172 178.331 97.172L 178.331 100.172C 180.763 100.172 182.32 100.548 183.217 101.096L 184.781 98.5361ZM 178.331 97.172L 166.163 97.172L 166.163 100.172L 178.331 100.172L 178.331 97.172ZM 164.692 98.3815L 162.3 110.497L 165.243 111.079L 167.635 98.9625L 164.692 98.3815ZM 163.771 112.288L 175.627 112.288L 175.627 109.288L 163.771 109.288L 163.771 112.288ZM 205.415 113.492L 204.744 114.834L 205.415 113.492ZM 199.539 108.136L 198.242 108.891L 198.247 108.899L 199.539 108.136ZM 200.267 89L 198.953 88.275L 200.267 89ZM 208.015 81.096L 207.265 79.7969L 207.259 79.8003L 208.015 81.096ZM 228.815 80.108L 228.144 81.4497L 228.151 81.4532L 228.815 80.108ZM 234.743 85.516L 233.446 86.2706L 233.451 86.2791L 234.743 85.516ZM 223.719 108.5L 224.501 109.78L 223.719 108.5ZM 229.491 102.364L 230.818 103.063L 230.821 103.056L 229.491 102.364ZM 228.295 85.828L 227.261 86.9151L 227.27 86.9237L 227.279 86.9323L 228.295 85.828ZM 204.739 91.288L 203.415 90.5821L 203.411 90.589L 203.408 90.596L 204.739 91.288ZM 205.935 107.824L 204.91 108.919L 204.919 108.928L 205.935 107.824ZM 214.619 113.916C 211.225 113.916 208.398 113.307 206.085 112.15L 204.744 114.834C 207.562 116.243 210.871 116.916 214.619 116.916L 214.619 113.916ZM 206.085 112.15C 203.757 110.986 202.023 109.393 200.83 107.373L 198.247 108.899C 199.758 111.455 201.942 113.433 204.744 114.834L 206.085 112.15ZM 200.835 107.381C 199.634 105.317 199.011 102.898 199.011 100.076L 196.011 100.076C 196.011 103.355 196.74 106.309 198.242 108.891L 200.835 107.381ZM 199.011 100.076C 199.011 96.256 199.873 92.8161 201.58 89.725L 198.953 88.275C 196.985 91.8399 196.011 95.784 196.011 100.076L 199.011 100.076ZM 201.58 89.725C 203.284 86.6374 205.673 84.1985 208.77 82.3917L 207.259 79.8003C 203.7 81.8762 200.924 84.7066 198.953 88.275L 201.58 89.725ZM 208.765 82.3951C 211.872 80.6012 215.472 79.684 219.611 79.684L 219.611 76.684C 215.013 76.684 210.883 77.7081 207.265 79.7969L 208.765 82.3951ZM 219.611 79.684C 223.004 79.684 225.831 80.2935 228.144 81.4496L 229.485 78.7664C 226.667 77.3572 223.358 76.684 219.611 76.684L 219.611 79.684ZM 228.151 81.4532C 230.508 82.6162 232.254 84.2229 233.446 86.2706L 236.039 84.7614C 234.527 82.1637 232.321 80.1651 229.478 78.7628L 228.151 81.4532ZM 233.451 86.2791C 234.647 88.3035 235.271 90.7014 235.271 93.524L 238.271 93.524C 238.271 90.2453 237.542 87.3045 236.034 84.7529L 233.451 86.2791ZM 235.271 93.524C 235.271 97.344 234.408 100.784 232.701 103.875L 235.328 105.325C 237.296 101.76 238.271 97.816 238.271 93.524L 235.271 93.524ZM 232.701 103.875C 230.999 106.959 228.596 109.397 225.465 111.205L 226.965 113.803C 230.558 111.728 233.356 108.897 235.328 105.325L 232.701 103.875ZM 225.465 111.205C 222.357 112.999 218.757 113.916 214.619 113.916L 214.619 116.916C 219.216 116.916 223.346 115.892 226.965 113.803L 225.465 111.205ZM 215.087 112.288C 218.589 112.288 221.743 111.465 224.501 109.78L 222.936 107.22C 220.702 108.585 218.102 109.288 215.087 109.288L 215.087 112.288ZM 224.501 109.78C 227.225 108.115 229.338 105.87 230.818 103.063L 228.164 101.665C 226.939 103.989 225.204 105.834 222.936 107.22L 224.501 109.78ZM 230.821 103.056C 232.29 100.231 233.019 97.1491 233.019 93.836L 230.019 93.836C 230.019 96.6935 229.395 99.2971 228.16 101.672L 230.821 103.056ZM 233.019 93.836C 233.019 90.1236 231.816 87.0279 229.31 84.7237L 227.279 86.9323C 229.072 88.5801 230.019 90.8231 230.019 93.836L 233.019 93.836ZM 229.328 84.7409C 226.848 82.3828 223.392 81.312 219.195 81.312L 219.195 84.312C 222.901 84.312 225.512 85.2519 227.261 86.9151L 229.328 84.7409ZM 219.195 81.312C 215.692 81.312 212.538 82.1348 209.78 83.8201L 211.345 86.3799C 213.579 85.0145 216.18 84.312 219.195 84.312L 219.195 81.312ZM 209.78 83.8201C 207.054 85.4861 204.927 87.7477 203.415 90.5821L 206.062 91.9939C 207.324 89.6283 209.079 87.7646 211.345 86.3799L 209.78 83.8201ZM 203.408 90.596C 201.94 93.4186 201.211 96.4826 201.211 99.764L 204.211 99.764C 204.211 96.944 204.833 94.3574 206.069 91.98L 203.408 90.596ZM 201.211 99.764C 201.211 103.477 202.413 106.584 204.91 108.919L 206.959 106.729C 205.158 105.043 204.211 102.776 204.211 99.764L 201.211 99.764ZM 204.919 108.928C 207.431 111.237 210.894 112.288 215.087 112.288L 215.087 109.288C 211.376 109.288 208.737 108.363 206.95 106.72L 204.919 108.928ZM 265.583 105.9L 267.041 105.55L 266.765 104.4L 265.583 104.4L 265.583 105.9ZM 246.135 105.9L 246.135 104.4L 245.31 104.4L 244.868 105.097L 246.135 105.9ZM 240.363 115L 240.363 116.5L 241.188 116.5L 241.629 115.803L 240.363 115ZM 234.747 115L 233.491 114.179L 231.973 116.5L 234.747 116.5L 234.747 115ZM 258.563 78.6L 258.563 77.1L 257.752 77.1L 257.307 77.7787L 258.563 78.6ZM 263.711 78.6L 265.165 78.2323L 264.879 77.1L 263.711 77.1L 263.711 78.6ZM 272.915 115L 272.915 116.5L 274.841 116.5L 274.369 114.632L 272.915 115ZM 267.767 115L 266.308 115.35L 266.584 116.5L 267.767 116.5L 267.767 115ZM 264.543 101.74L 264.543 103.24L 266.446 103.24L 266.001 101.389L 264.543 101.74ZM 260.227 83.8L 261.685 83.4491L 260.86 80.0177L 258.962 82.9935L 260.227 83.8ZM 248.787 101.74L 247.522 100.934L 246.051 103.24L 248.787 103.24L 248.787 101.74ZM 265.583 104.4L 246.135 104.4L 246.135 107.4L 265.583 107.4L 265.583 104.4ZM 244.868 105.097L 239.096 114.197L 241.629 115.803L 247.401 106.703L 244.868 105.097ZM 240.363 113.5L 234.747 113.5L 234.747 116.5L 240.363 116.5L 240.363 113.5ZM 236.002 115.821L 259.818 79.4213L 257.307 77.7787L 233.491 114.179L 236.002 115.821ZM 258.563 80.1L 263.711 80.1L 263.711 77.1L 258.563 77.1L 258.563 80.1ZM 262.256 78.9677L 271.46 115.368L 274.369 114.632L 265.165 78.2323L 262.256 78.9677ZM 272.915 113.5L 267.767 113.5L 267.767 116.5L 272.915 116.5L 272.915 113.5ZM 269.225 114.65L 267.041 105.55L 264.124 106.25L 266.308 115.35L 269.225 114.65ZM 266.001 101.389L 261.685 83.4491L 258.768 84.1509L 263.084 102.091L 266.001 101.389ZM 258.962 82.9935L 247.522 100.934L 250.051 102.546L 261.491 84.6065L 258.962 82.9935ZM 248.787 103.24L 264.543 103.24L 264.543 100.24L 248.787 100.24L 248.787 103.24ZM 309.753 98.204L 310.926 99.139L 309.753 98.204ZM 301.693 103.144L 301.315 101.692L 299.432 102.182L 300.385 103.878L 301.693 103.144ZM 308.349 115L 308.349 116.5L 310.911 116.5L 309.657 114.266L 308.349 115ZM 302.837 115L 301.534 115.743L 301.965 116.5L 302.837 116.5L 302.837 115ZM 296.493 103.872L 297.796 103.129L 297.364 102.372L 296.493 102.372L 296.493 103.872ZM 285.781 103.872L 285.781 102.372L 284.546 102.372L 284.309 103.583L 285.781 103.872ZM 283.597 115L 283.597 116.5L 284.831 116.5L 285.069 115.289L 283.597 115ZM 278.345 115L 276.874 114.706L 276.515 116.5L 278.345 116.5L 278.345 115ZM 285.625 78.6L 285.625 77.1L 284.395 77.1L 284.154 78.3058L 285.625 78.6ZM 309.077 81.408L 308.135 82.5759L 308.145 82.5836L 308.155 82.5911L 309.077 81.408ZM 304.345 96.956L 303.398 95.7924L 304.345 96.956ZM 305.177 84.788L 306.072 83.5847L 305.177 84.788ZM 289.941 83.124L 289.941 81.624L 288.712 81.624L 288.47 82.8289L 289.941 83.124ZM 286.665 99.452L 285.194 99.1569L 284.834 100.952L 286.665 100.952L 286.665 99.452ZM 311.113 89.26C 311.113 92.5504 310.24 95.1857 308.58 97.269L 310.926 99.139C 313.078 96.4383 314.113 93.111 314.113 89.26L 311.113 89.26ZM 308.58 97.269C 306.908 99.3657 304.523 100.858 301.315 101.692L 302.07 104.596C 305.795 103.627 308.784 101.826 310.926 99.139L 308.58 97.269ZM 300.385 103.878L 307.041 115.734L 309.657 114.266L 303.001 102.41L 300.385 103.878ZM 308.349 113.5L 302.837 113.5L 302.837 116.5L 308.349 116.5L 308.349 113.5ZM 304.14 114.257L 297.796 103.129L 295.19 104.615L 301.534 115.743L 304.14 114.257ZM 296.493 102.372L 295.505 102.372L 295.505 105.372L 296.493 105.372L 296.493 102.372ZM 295.505 102.372L 285.781 102.372L 285.781 105.372L 295.505 105.372L 295.505 102.372ZM 284.309 103.583L 282.125 114.711L 285.069 115.289L 287.253 104.161L 284.309 103.583ZM 283.597 113.5L 278.345 113.5L 278.345 116.5L 283.597 116.5L 283.597 113.5ZM 279.815 115.294L 287.095 78.8942L 284.154 78.3058L 276.874 114.706L 279.815 115.294ZM 285.625 80.1L 299.197 80.1L 299.197 77.1L 285.625 77.1L 285.625 80.1ZM 299.197 80.1C 303.262 80.1 306.173 80.9943 308.135 82.5759L 310.018 80.2401C 307.335 78.0777 303.659 77.1 299.197 77.1L 299.197 80.1ZM 308.155 82.5911C 310.094 84.1028 311.113 86.2533 311.113 89.26L 314.113 89.26C 314.113 85.4721 312.774 82.3878 309.999 80.2249L 308.155 82.5911ZM 295.661 100.952C 299.607 100.952 302.886 100.076 305.291 98.1196L 303.398 95.7924C 301.713 97.1635 299.202 97.952 295.661 97.952L 295.661 100.952ZM 305.291 98.1196C 307.756 96.114 308.913 93.2357 308.913 89.728L 305.913 89.728C 305.913 92.5296 305.023 94.47 303.398 95.7924L 305.291 98.1196ZM 308.913 89.728C 308.913 87.1641 308.013 85.0289 306.072 83.5847L 304.281 85.9913C 305.322 86.7657 305.913 87.9239 305.913 89.728L 308.913 89.728ZM 306.072 83.5847C 304.22 82.2067 301.703 81.624 298.729 81.624L 298.729 84.624C 301.37 84.624 303.151 85.1507 304.281 85.9913L 306.072 83.5847ZM 298.729 81.624L 289.941 81.624L 289.941 84.624L 298.729 84.624L 298.729 81.624ZM 288.47 82.8289L 285.194 99.1569L 288.135 99.7471L 291.411 83.4191L 288.47 82.8289ZM 286.665 100.952L 295.661 100.952L 295.661 97.952L 286.665 97.952L 286.665 100.952ZM 323.406 78.6L 323.406 77.1L 322.176 77.1L 321.935 78.3058L 323.406 78.6ZM 347.014 80.472L 346.365 81.8243L 346.376 81.8295L 346.386 81.8345L 347.014 80.472ZM 352.994 85.672L 351.708 86.4437L 351.715 86.4554L 351.722 86.467L 352.994 85.672ZM 352.214 104.756L 350.919 103.998L 350.913 104.009L 352.214 104.756ZM 344.258 112.348L 344.95 113.679L 344.955 113.676L 344.258 112.348ZM 316.126 115L 314.655 114.706L 314.296 116.5L 316.126 116.5L 316.126 115ZM 341.71 108.344L 342.429 109.66L 341.71 108.344ZM 347.69 102.468L 346.382 101.733L 346.379 101.74L 347.69 102.468ZM 346.598 85.984L 345.602 87.1062L 345.613 87.1151L 346.598 85.984ZM 327.67 83.124L 327.67 81.624L 326.44 81.624L 326.199 82.8304L 327.67 83.124ZM 322.21 110.476L 320.739 110.182L 320.381 111.976L 322.21 111.976L 322.21 110.476ZM 323.406 80.1L 337.654 80.1L 337.654 77.1L 323.406 77.1L 323.406 80.1ZM 337.654 80.1C 341.126 80.1 344.013 80.6956 346.365 81.8243L 347.663 79.1197C 344.814 77.7524 341.461 77.1 337.654 77.1L 337.654 80.1ZM 346.386 81.8345C 348.777 82.9353 350.527 84.4757 351.708 86.4437L 354.28 84.9003C 352.757 82.3616 350.52 80.4354 347.641 79.1095L 346.386 81.8345ZM 351.722 86.467C 352.938 88.4126 353.574 90.7453 353.574 93.524L 356.574 93.524C 356.574 90.2707 355.823 87.3687 354.266 84.877L 351.722 86.467ZM 353.574 93.524C 353.574 97.5198 352.676 100.996 350.919 103.998L 353.509 105.514C 355.565 101.998 356.574 97.9868 356.574 93.524L 353.574 93.524ZM 350.913 104.009C 349.188 107.012 346.749 109.345 343.56 111.02L 344.955 113.676C 348.631 111.745 351.496 109.017 353.515 105.503L 350.913 104.009ZM 343.565 111.017C 340.417 112.656 336.71 113.5 332.402 113.5L 332.402 116.5C 337.107 116.5 341.304 115.576 344.95 113.679L 343.565 111.017ZM 332.402 113.5L 316.126 113.5L 316.126 116.5L 332.402 116.5L 332.402 113.5ZM 317.597 115.294L 324.877 78.8942L 321.935 78.3058L 314.655 114.706L 317.597 115.294ZM 332.558 111.976C 336.265 111.976 339.572 111.222 342.429 109.66L 340.99 107.028C 338.648 108.308 335.853 108.976 332.558 108.976L 332.558 111.976ZM 342.429 109.66C 345.268 108.108 347.471 105.95 349.001 103.196L 346.379 101.74C 345.135 103.978 343.351 105.737 340.99 107.028L 342.429 109.66ZM 348.998 103.203C 350.559 100.423 351.322 97.2882 351.322 93.836L 348.322 93.836C 348.322 96.8318 347.664 99.4512 346.382 101.733L 348.998 103.203ZM 351.322 93.836C 351.322 90.1254 350.119 87.0617 347.583 84.8529L 345.613 87.1151C 347.375 88.6503 348.322 90.8212 348.322 93.836L 351.322 93.836ZM 347.593 84.8619C 345.069 82.6224 341.499 81.624 337.134 81.624L 337.134 84.624C 341.089 84.624 343.828 85.5323 345.602 87.1061L 347.593 84.8619ZM 337.134 81.624L 327.67 81.624L 327.67 84.624L 337.134 84.624L 337.134 81.624ZM 326.199 82.8304L 320.739 110.182L 323.681 110.77L 329.141 83.4176L 326.199 82.8304ZM 322.21 111.976L 332.558 111.976L 332.558 108.976L 322.21 108.976L 322.21 111.976Z"/>
</defs>
</svg>
