<svg width="769" height="300" viewBox="0 0 769 300" version="1.1" xmlns="http://www.w3.org/2000/svg" xmlns:xlink="http://www.w3.org/1999/xlink">
<title>Quiui Logo</title>
<desc>Created using Figma</desc>
<g id="Canvas" transform="translate(65 486)">
<g id="Quiui Logo">
<g id="Group">
<g id="Ellipse">
<use xlink:href="#path0_fill" transform="translate(-65 -486)" fill="#FFFFFF"/>
</g>
<g id="Ellipse 2">
<use xlink:href="#path1_fill" transform="translate(-16.6725 -433.917)" fill="#085F89"/>
</g>
<g id="Vector">
<use xlink:href="#path2_fill" transform="translate(60.6513 -323.5)" fill="#FF6400"/>
</g>
</g>
<g id="UIUI">
<use xlink:href="#path3_fill" transform="translate(215.61 -486)" fill="#FFFFFF"/>
</g>
<g id="YOUR INDIVIDUAL DASHBOARD">
<use xlink:href="#path4_fill" transform="translate(215.61 -323)" fill="#FFFFFF"/>
</g>
</g>
</g>
<defs>
<path id="path0_fill" d="M 278.366 150C 278.366 232.843 216.052 300 139.183 300C 62.3144 300 0 232.843 0 150C 0 67.1573 62.3144 0 139.183 0C 216.052 0 278.366 67.1573 278.366 150Z"/>
<path id="path1_fill" d="M 181.711 97.9167C 181.711 151.995 141.034 195.833 90.8557 195.833C 40.6775 195.833 0 151.995 0 97.9167C 0 43.8388 40.6775 0 90.8557 0C 141.034 0 181.711 43.8388 181.711 97.9167Z"/>
<path id="path2_fill" d="M 62.1788 0L 5.57807 0C 3.18755 0 1.75726 2.65942 3.07513 4.65387L 89.9662 136.154C 90.5216 136.994 91.4617 137.5 92.4692 137.5L 149.07 137.5C 151.46 137.5 152.891 134.841 151.573 132.846L 64.6818 1.34613C 64.1264 0.505635 63.1863 0 62.1788 0Z"/>
<path id="path3_fill" d="M 68.78 150.52C 53.0733 150.52 40.7867 146.593 31.92 138.74C 23.18 130.887 18.81 119.993 18.81 106.06C 18.81 101.88 19.3167 97.0667 20.33 91.62L 35.34 16L 54.34 16L 39.14 91.43C 38.2533 95.7367 37.81 99.9167 37.81 103.97C 37.81 113.723 40.5967 121.133 46.17 126.2C 51.7433 131.14 59.85 133.61 70.49 133.61C 82.3967 133.61 91.8967 130.19 98.99 123.35C 106.21 116.51 111.277 105.807 114.19 91.24L 129.2 16L 147.82 16L 132.62 92.57C 128.693 111.823 121.347 126.327 110.58 136.08C 99.94 145.707 86.0067 150.52 68.78 150.52ZM 186.773 16L 205.773 16L 179.173 149L 160.173 149L 186.773 16ZM 277.891 150.52C 262.185 150.52 249.898 146.593 241.031 138.74C 232.291 130.887 227.921 119.993 227.921 106.06C 227.921 101.88 228.428 97.0667 229.441 91.62L 244.451 16L 263.451 16L 248.251 91.43C 247.365 95.7367 246.921 99.9167 246.921 103.97C 246.921 113.723 249.708 121.133 255.281 126.2C 260.855 131.14 268.961 133.61 279.601 133.61C 291.508 133.61 301.008 130.19 308.101 123.35C 315.321 116.51 320.388 105.807 323.301 91.24L 338.311 16L 356.931 16L 341.731 92.57C 337.805 111.823 330.458 126.327 319.691 136.08C 309.051 145.707 295.118 150.52 277.891 150.52ZM 395.884 16L 414.884 16L 388.284 149L 369.284 149L 395.884 16Z"/>
<path id="path4_fill" d="M 19.136 38.572L 16.64 51L 11.44 51L 13.988 38.26L 4.368 14.6L 9.464 14.6L 17.316 33.892L 32.864 14.6L 38.376 14.6L 19.136 38.572ZM 52.3217 51.416C 48.7511 51.416 45.6831 50.7747 43.1177 49.492C 40.5524 48.2093 38.5938 46.424 37.2417 44.136C 35.8897 41.8133 35.2137 39.1267 35.2137 36.076C 35.2137 32.02 36.1324 28.328 37.9697 25C 39.8071 21.672 42.3897 19.0373 45.7177 17.096C 49.0804 15.1547 52.9457 14.184 57.3138 14.184C 60.8844 14.184 63.9524 14.8253 66.5178 16.108C 69.1178 17.3907 71.0938 19.1933 72.4458 21.516C 73.7977 23.804 74.4737 26.4733 74.4737 29.524C 74.4737 33.58 73.5551 37.272 71.7178 40.6C 69.8804 43.928 67.2804 46.5627 63.9177 48.504C 60.5551 50.4453 56.6897 51.416 52.3217 51.416ZM 52.7898 46.788C 56.0484 46.788 58.9257 46.0253 61.4218 44.5C 63.9177 42.9747 65.8417 40.9293 67.1938 38.364C 68.5457 35.764 69.2217 32.9213 69.2217 29.836C 69.2217 26.4733 68.1471 23.804 65.9978 21.828C 63.8831 19.8173 60.8497 18.812 56.8977 18.812C 53.6391 18.812 50.7617 19.5747 48.2657 21.1C 45.7698 22.6253 43.8284 24.688 42.4418 27.288C 41.0897 29.888 40.4137 32.7133 40.4137 35.764C 40.4137 39.1267 41.4884 41.8133 43.6378 43.824C 45.7871 45.8 48.8377 46.788 52.7898 46.788ZM 94.5896 51.416C 90.291 51.416 86.9283 50.3413 84.5016 48.192C 82.1096 46.0427 80.9136 43.0613 80.9136 39.248C 80.9136 38.104 81.0523 36.7867 81.3296 35.296L 85.4376 14.6L 90.6376 14.6L 86.4776 35.244C 86.235 36.4227 86.1136 37.5667 86.1136 38.676C 86.1136 41.3453 86.8763 43.3733 88.4016 44.76C 89.927 46.112 92.1456 46.788 95.0576 46.788C 98.3163 46.788 100.916 45.852 102.858 43.98C 104.834 42.108 106.22 39.1787 107.018 35.192L 111.126 14.6L 116.222 14.6L 112.062 35.556C 110.987 40.8253 108.976 44.7947 106.03 47.464C 103.118 50.0987 99.3043 51.416 94.5896 51.416ZM 153.87 25.26C 153.87 28.8307 152.917 31.812 151.01 34.204C 149.104 36.596 146.417 38.2427 142.95 39.144L 149.606 51L 144.094 51L 137.75 39.872L 136.762 39.872L 127.038 39.872L 124.854 51L 119.602 51L 126.882 14.6L 140.454 14.6C 144.718 14.6 148.012 15.536 150.334 17.408C 152.692 19.2453 153.87 21.8627 153.87 25.26ZM 136.918 35.452C 140.662 35.452 143.557 34.62 145.602 32.956C 147.648 31.292 148.67 28.8827 148.67 25.728C 148.67 23.544 147.925 21.8973 146.434 20.788C 144.944 19.6787 142.794 19.124 139.986 19.124L 131.198 19.124L 127.922 35.452L 136.918 35.452ZM 178.629 14.6L 183.829 14.6L 176.549 51L 171.349 51L 178.629 14.6ZM 226.03 14.6L 218.75 51L 214.486 51L 198.21 22.972L 192.646 51L 187.446 51L 194.726 14.6L 198.99 14.6L 215.266 42.628L 220.83 14.6L 226.03 14.6ZM 236.925 14.6L 251.173 14.6C 254.813 14.6 257.933 15.224 260.533 16.472C 263.168 17.6853 265.161 19.4187 266.513 21.672C 267.9 23.8907 268.593 26.508 268.593 29.524C 268.593 33.7533 267.64 37.4973 265.733 40.756C 263.861 44.0147 261.209 46.5453 257.777 48.348C 254.38 50.116 250.428 51 245.921 51L 229.645 51L 236.925 14.6ZM 246.077 46.476C 249.579 46.476 252.629 45.7653 255.229 44.344C 257.829 42.9227 259.823 40.964 261.209 38.468C 262.631 35.9373 263.341 33.06 263.341 29.836C 263.341 26.4733 262.267 23.856 260.117 21.984C 257.968 20.0773 254.813 19.124 250.653 19.124L 241.189 19.124L 235.729 46.476L 246.077 46.476ZM 279.886 14.6L 285.086 14.6L 277.806 51L 272.606 51L 279.886 14.6ZM 327.245 14.6L 303.949 51L 298.853 51L 290.117 14.6L 295.473 14.6L 302.545 44.552L 321.837 14.6L 327.245 14.6ZM 331.886 14.6L 337.086 14.6L 329.806 51L 324.606 51L 331.886 14.6ZM 347.984 14.6L 362.232 14.6C 365.872 14.6 368.992 15.224 371.592 16.472C 374.227 17.6853 376.22 19.4187 377.572 21.672C 378.959 23.8907 379.652 26.508 379.652 29.524C 379.652 33.7533 378.699 37.4973 376.792 40.756C 374.92 44.0147 372.268 46.5453 368.836 48.348C 365.439 50.116 361.487 51 356.98 51L 340.704 51L 347.984 14.6ZM 357.136 46.476C 360.637 46.476 363.688 45.7653 366.288 44.344C 368.888 42.9227 370.881 40.964 372.268 38.468C 373.689 35.9373 374.4 33.06 374.4 29.836C 374.4 26.4733 373.325 23.856 371.176 21.984C 369.027 20.0773 365.872 19.124 361.712 19.124L 352.248 19.124L 346.788 46.476L 357.136 46.476ZM 399.785 51.416C 395.486 51.416 392.124 50.3413 389.697 48.192C 387.305 46.0427 386.109 43.0613 386.109 39.248C 386.109 38.104 386.248 36.7867 386.525 35.296L 390.633 14.6L 395.833 14.6L 391.673 35.244C 391.43 36.4227 391.309 37.5667 391.309 38.676C 391.309 41.3453 392.072 43.3733 393.597 44.76C 395.122 46.112 397.341 46.788 400.253 46.788C 403.512 46.788 406.112 45.852 408.053 43.98C 410.029 42.108 411.416 39.1787 412.213 35.192L 416.321 14.6L 421.417 14.6L 417.257 35.556C 416.182 40.8253 414.172 44.7947 411.225 47.464C 408.313 50.0987 404.5 51.416 399.785 51.416ZM 449.36 41.9L 429.912 41.9L 424.14 51L 418.524 51L 442.34 14.6L 447.488 14.6L 456.692 51L 451.544 51L 449.36 41.9ZM 448.32 37.74L 444.004 19.8L 432.564 37.74L 448.32 37.74ZM 469.402 14.6L 474.602 14.6L 468.206 46.476L 487.966 46.476L 487.082 51L 462.122 51L 469.402 14.6ZM 9.984 78.6L 24.232 78.6C 27.872 78.6 30.992 79.224 33.592 80.472C 36.2267 81.6853 38.22 83.4187 39.572 85.672C 40.9587 87.8907 41.652 90.508 41.652 93.524C 41.652 97.7533 40.6987 101.497 38.792 104.756C 36.92 108.015 34.268 110.545 30.836 112.348C 27.4387 114.116 23.4867 115 18.98 115L 2.704 115L 9.984 78.6ZM 19.136 110.476C 22.6373 110.476 25.688 109.765 28.288 108.344C 30.888 106.923 32.8813 104.964 34.268 102.468C 35.6893 99.9373 36.4 97.06 36.4 93.836C 36.4 90.4733 35.3253 87.856 33.176 85.984C 31.0267 84.0773 27.872 83.124 23.712 83.124L 14.248 83.124L 8.788 110.476L 19.136 110.476ZM 70.4811 105.9L 51.0331 105.9L 45.2611 115L 39.6451 115L 63.4611 78.6L 68.6091 78.6L 77.8131 115L 72.6651 115L 70.4811 105.9ZM 69.4411 101.74L 65.1251 83.8L 53.6851 101.74L 69.4411 101.74ZM 94.4751 115.416C 91.7711 115.416 89.1537 115 86.6231 114.168C 84.1271 113.336 82.2031 112.279 80.8511 110.996L 83.1391 106.836C 84.5257 108.119 86.2764 109.141 88.3911 109.904C 90.5057 110.632 92.6897 110.996 94.9431 110.996C 97.9244 110.996 100.299 110.459 102.067 109.384C 103.87 108.275 104.771 106.749 104.771 104.808C 104.771 103.768 104.424 102.901 103.731 102.208C 103.038 101.515 102.188 100.96 101.183 100.544C 100.178 100.128 98.7564 99.6427 96.9191 99.088C 94.5964 98.3947 92.7244 97.736 91.3031 97.112C 89.8817 96.488 88.6511 95.5693 87.6111 94.356C 86.6057 93.108 86.1031 91.4787 86.1031 89.468C 86.1031 87.18 86.7444 85.1867 88.0271 83.488C 89.3097 81.7893 91.0951 80.4893 93.3831 79.588C 95.6711 78.652 98.2884 78.184 101.235 78.184C 103.488 78.184 105.62 78.4613 107.631 79.016C 109.676 79.536 111.444 80.2813 112.935 81.252L 110.855 85.516C 109.503 84.5453 107.978 83.8173 106.279 83.332C 104.615 82.8467 102.847 82.604 100.975 82.604C 97.9937 82.604 95.6191 83.1933 93.8511 84.372C 92.0831 85.516 91.1991 87.0587 91.1991 89C 91.1991 90.0747 91.5457 90.976 92.2391 91.704C 92.9671 92.432 93.8511 93.004 94.8911 93.42C 95.9657 93.836 97.4217 94.3213 99.2591 94.876C 101.547 95.5693 103.384 96.228 104.771 96.852C 106.192 97.4413 107.388 98.3253 108.359 99.504C 109.364 100.683 109.867 102.208 109.867 104.08C 109.867 106.403 109.208 108.413 107.891 110.112C 106.608 111.811 104.806 113.128 102.483 114.064C 100.16 114.965 97.4911 115.416 94.4751 115.416ZM 154.124 78.6L 146.844 115L 141.644 115L 144.868 98.88L 123.964 98.88L 120.74 115L 115.54 115L 122.82 78.6L 128.02 78.6L 124.9 94.2L 145.804 94.2L 148.924 78.6L 154.124 78.6ZM 185.923 96.228C 187.552 96.7827 188.818 97.684 189.719 98.932C 190.62 100.18 191.071 101.74 191.071 103.612C 191.071 107.287 189.65 110.112 186.807 112.088C 183.999 114.029 180.151 115 175.263 115L 157.739 115L 165.019 78.6L 181.139 78.6C 184.814 78.6 187.639 79.2933 189.615 80.68C 191.626 82.032 192.631 84.008 192.631 86.608C 192.631 88.9653 192.007 90.976 190.759 92.64C 189.546 94.2693 187.934 95.4653 185.923 96.228ZM 169.335 82.812L 166.995 94.46L 177.655 94.46C 180.602 94.46 182.924 93.8707 184.623 92.692C 186.356 91.4787 187.223 89.728 187.223 87.44C 187.223 85.88 186.599 84.7187 185.351 83.956C 184.138 83.1933 182.37 82.812 180.047 82.812L 169.335 82.812ZM 175.627 110.788C 178.92 110.788 181.451 110.181 183.219 108.968C 185.022 107.72 185.923 105.952 185.923 103.664C 185.923 101.861 185.282 100.579 183.999 99.816C 182.751 99.0533 180.862 98.672 178.331 98.672L 166.163 98.672L 163.771 110.788L 175.627 110.788ZM 214.619 115.416C 211.048 115.416 207.98 114.775 205.415 113.492C 202.849 112.209 200.891 110.424 199.539 108.136C 198.187 105.813 197.511 103.127 197.511 100.076C 197.511 96.02 198.429 92.328 200.267 89C 202.104 85.672 204.687 83.0373 208.015 81.096C 211.377 79.1547 215.243 78.184 219.611 78.184C 223.181 78.184 226.249 78.8253 228.815 80.108C 231.415 81.3907 233.391 83.1933 234.743 85.516C 236.095 87.804 236.771 90.4733 236.771 93.524C 236.771 97.58 235.852 101.272 234.015 104.6C 232.177 107.928 229.577 110.563 226.215 112.504C 222.852 114.445 218.987 115.416 214.619 115.416ZM 215.087 110.788C 218.345 110.788 221.223 110.025 223.719 108.5C 226.215 106.975 228.139 104.929 229.491 102.364C 230.843 99.764 231.519 96.9213 231.519 93.836C 231.519 90.4733 230.444 87.804 228.295 85.828C 226.18 83.8173 223.147 82.812 219.195 82.812C 215.936 82.812 213.059 83.5747 210.563 85.1C 208.067 86.6253 206.125 88.688 204.739 91.288C 203.387 93.888 202.711 96.7133 202.711 99.764C 202.711 103.127 203.785 105.813 205.935 107.824C 208.084 109.8 211.135 110.788 215.087 110.788ZM 265.583 105.9L 246.135 105.9L 240.363 115L 234.747 115L 258.563 78.6L 263.711 78.6L 272.915 115L 267.767 115L 265.583 105.9ZM 264.543 101.74L 260.227 83.8L 248.787 101.74L 264.543 101.74ZM 312.613 89.26C 312.613 92.8307 311.659 95.812 309.753 98.204C 307.846 100.596 305.159 102.243 301.693 103.144L 308.349 115L 302.837 115L 296.493 103.872L 295.505 103.872L 285.781 103.872L 283.597 115L 278.345 115L 285.625 78.6L 299.197 78.6C 303.461 78.6 306.754 79.536 309.077 81.408C 311.434 83.2453 312.613 85.8627 312.613 89.26ZM 295.661 99.452C 299.405 99.452 302.299 98.62 304.345 96.956C 306.39 95.292 307.413 92.8827 307.413 89.728C 307.413 87.544 306.667 85.8973 305.177 84.788C 303.686 83.6787 301.537 83.124 298.729 83.124L 289.941 83.124L 286.665 99.452L 295.661 99.452ZM 323.406 78.6L 337.654 78.6C 341.294 78.6 344.414 79.224 347.014 80.472C 349.649 81.6853 351.642 83.4187 352.994 85.672C 354.381 87.8907 355.074 90.508 355.074 93.524C 355.074 97.7533 354.121 101.497 352.214 104.756C 350.342 108.015 347.69 110.545 344.258 112.348C 340.861 114.116 336.909 115 332.402 115L 316.126 115L 323.406 78.6ZM 332.558 110.476C 336.059 110.476 339.11 109.765 341.71 108.344C 344.31 106.923 346.303 104.964 347.69 102.468C 349.111 99.9373 349.822 97.06 349.822 93.836C 349.822 90.4733 348.747 87.856 346.598 85.984C 344.449 84.0773 341.294 83.124 337.134 83.124L 327.67 83.124L 322.21 110.476L 332.558 110.476Z"/>
</defs>
</svg>
