<svg width="289" height="107" viewBox="0 0 289 107" version="1.1" xmlns="http://www.w3.org/2000/svg" xmlns:xlink="http://www.w3.org/1999/xlink">
<title>Quiui Logo</title>
<desc>Created using Figma</desc>
<g id="Canvas" transform="translate(1483 61)">
<g id="Quiui Logo">
<g id="Group">
<g id="Ellipse">
<use xlink:href="#path0_fill" transform="translate(-1483 -61)" fill="#FFFFFF"/>
<mask id="mask0_outline_ins">
<use xlink:href="#path0_fill" fill="white" transform="translate(-1483 -61)"/>
</mask>
<g mask="url(#mask0_outline_ins)">
<use xlink:href="#path1_stroke_2x" transform="translate(-1483 -61)"/>
</g>
</g>
<g id="Ellipse 2">
<use xlink:href="#path2_fill" transform="translate(-1467.14 -42.7708)" fill="#FF6400"/>
<mask id="mask1_outline_ins">
<use xlink:href="#path2_fill" fill="white" transform="translate(-1467.14 -42.7708)"/>
</mask>
<g mask="url(#mask1_outline_ins)">
<use xlink:href="#path3_stroke_2x" transform="translate(-1467.14 -42.7708)"/>
</g>
</g>
<g id="Vector">
<use xlink:href="#path4_fill" transform="translate(-1441.76 -4.125)" fill="#313131"/>
<use xlink:href="#path5_stroke" transform="translate(-1441.76 -4.125)"/>
</g>
</g>
<g id="UIUI">
<use xlink:href="#path6_fill" transform="translate(-1392 -76)" fill="#FFFFFF"/>
<mask id="mask2_outline_out">
<rect id="mask2_outline_inv" fill="white" x="6" y="23" width="144" height="51" transform="translate(-1392 -76)"/>
<use xlink:href="#path6_fill" fill="black" transform="translate(-1392 -76)"/>
</mask>
<g mask="url(#mask2_outline_out)">
<use xlink:href="#path7_stroke_2x" transform="translate(-1392 -76)"/>
</g>
</g>
<g id="YOUR INDIVIDUAL DASHBOARD">
<use xlink:href="#path8_fill" transform="translate(-1392 -7)" fill="#FFFFFF"/>
<mask id="mask3_outline_out">
<rect id="mask3_outline_inv" fill="white" x="0" y="10" width="198" height="43" transform="translate(-1392 -7)"/>
<use xlink:href="#path8_fill" fill="black" transform="translate(-1392 -7)"/>
</mask>
<g mask="url(#mask3_outline_out)">
<use xlink:href="#path9_stroke_2x" transform="translate(-1392 -7)"/>
</g>
</g>
</g>
</g>
<defs>
<path id="path0_fill" d="M 91.3655 52.5C 91.3655 81.4949 70.9127 105 45.6828 105C 20.4529 105 0 81.4949 0 52.5C 0 23.5051 20.4529 0 45.6828 0C 70.9127 0 91.3655 23.5051 91.3655 52.5Z"/>
<path id="path1_stroke_2x" d="M 90.8655 52.5C 90.8655 81.2864 70.5735 104.5 45.6828 104.5L 45.6828 105.5C 71.2518 105.5 91.8655 81.7035 91.8655 52.5L 90.8655 52.5ZM 45.6828 104.5C 20.7921 104.5 0.5 81.2864 0.5 52.5L -0.5 52.5C -0.5 81.7035 20.1137 105.5 45.6828 105.5L 45.6828 104.5ZM 0.5 52.5C 0.5 23.7136 20.7921 0.5 45.6828 0.5L 45.6828 -0.5C 20.1137 -0.5 -0.5 23.2965 -0.5 52.5L 0.5 52.5ZM 45.6828 0.5C 70.5735 0.5 90.8655 23.7136 90.8655 52.5L 91.8655 52.5C 91.8655 23.2965 71.2518 -0.5 45.6828 -0.5L 45.6828 0.5Z"/>
<path id="path2_fill" d="M 59.6414 34.2708C 59.6414 53.1981 46.2902 68.5417 29.8207 68.5417C 13.3512 68.5417 0 53.1981 0 34.2708C 0 15.3436 13.3512 0 29.8207 0C 46.2902 0 59.6414 15.3436 59.6414 34.2708Z"/>
<path id="path3_stroke_2x" d="M 59.1414 34.2708C 59.1414 52.9895 45.951 68.0417 29.8207 68.0417L 29.8207 69.0417C 46.6294 69.0417 60.1414 53.4067 60.1414 34.2708L 59.1414 34.2708ZM 29.8207 68.0417C 13.6904 68.0417 0.5 52.9895 0.5 34.2708L -0.5 34.2708C -0.5 53.4067 13.012 69.0417 29.8207 69.0417L 29.8207 68.0417ZM 0.5 34.2708C 0.5 15.5521 13.6904 0.5 29.8207 0.5L 29.8207 -0.5C 13.012 -0.5 -0.5 15.135 -0.5 34.2708L 0.5 34.2708ZM 29.8207 0.5C 45.951 0.5 59.1414 15.5521 59.1414 34.2708L 60.1414 34.2708C 60.1414 15.135 46.6294 -0.5 29.8207 -0.5L 29.8207 0.5Z"/>
<path id="path4_fill" d="M 19.2676 0L 5.38822 0C 3.0371 0 1.59972 2.58165 2.83811 4.58018L 28.9409 46.7052C 29.4879 47.5879 30.4525 48.125 31.491 48.125L 45.3704 48.125C 47.7215 48.125 49.1589 45.5434 47.9205 43.5448L 21.8177 1.41982C 21.2707 0.537075 20.3061 0 19.2676 0Z"/>
<path id="path5_stroke" d="M 21.8177 1.41982L 22.0302 1.28814L 22.0302 1.28814L 21.8177 1.41982ZM 47.9205 43.5448L 47.708 43.6765L 47.708 43.6765L 47.9205 43.5448ZM 28.9409 46.7052L 28.7284 46.8369L 28.7284 46.8369L 28.9409 46.7052ZM 2.83811 4.58018L 2.6256 4.71186L 2.83811 4.58018ZM 5.38822 0.25L 19.2676 0.25L 19.2676 -0.25L 5.38822 -0.25L 5.38822 0.25ZM 21.6052 1.55151L 47.708 43.6765L 48.133 43.4131L 22.0302 1.28814L 21.6052 1.55151ZM 45.3704 47.875L 31.491 47.875L 31.491 48.375L 45.3704 48.375L 45.3704 47.875ZM 29.1534 46.5735L 3.05062 4.4485L 2.6256 4.71186L 28.7284 46.8369L 29.1534 46.5735ZM 31.491 47.875C 30.5391 47.875 29.6548 47.3827 29.1534 46.5735L 28.7284 46.8369C 29.321 47.7932 30.366 48.375 31.491 48.375L 31.491 47.875ZM 47.708 43.6765C 48.8432 45.5085 47.5256 47.875 45.3704 47.875L 45.3704 48.375C 47.9174 48.375 49.4746 45.5782 48.133 43.4131L 47.708 43.6765ZM 19.2676 0.25C 20.2196 0.25 21.1038 0.742319 21.6052 1.55151L 22.0302 1.28814C 21.4377 0.331832 20.3926 -0.25 19.2676 -0.25L 19.2676 0.25ZM 5.38822 -0.25C 2.84117 -0.25 1.28401 2.54678 2.6256 4.71186L 3.05062 4.4485C 1.91543 2.61651 3.23303 0.25 5.38822 0.25L 5.38822 -0.25Z"/>
<path id="path6_fill" d="M 24.616 72.544C 18.9947 72.544 14.5973 71.1387 11.424 68.328C 8.296 65.5173 6.732 61.6187 6.732 56.632C 6.732 55.136 6.91333 53.4133 7.276 51.464L 12.648 24.4L 19.448 24.4L 14.008 51.396C 13.6907 52.9373 13.532 54.4333 13.532 55.884C 13.532 59.3747 14.5293 62.0267 16.524 63.84C 18.5187 65.608 21.42 66.492 25.228 66.492C 29.4893 66.492 32.8893 65.268 35.428 62.82C 38.012 60.372 39.8253 56.5413 40.868 51.328L 46.24 24.4L 52.904 24.4L 47.464 51.804C 46.0587 58.6947 43.4293 63.8853 39.576 67.376C 35.768 70.8213 30.7813 72.544 24.616 72.544ZM 66.8451 24.4L 73.6451 24.4L 64.1251 72L 57.3251 72L 66.8451 24.4ZM 99.4558 72.544C 93.8345 72.544 89.4372 71.1387 86.2638 68.328C 83.1358 65.5173 81.5718 61.6187 81.5718 56.632C 81.5718 55.136 81.7532 53.4133 82.1158 51.464L 87.4878 24.4L 94.2878 24.4L 88.8478 51.396C 88.5305 52.9373 88.3718 54.4333 88.3718 55.884C 88.3718 59.3747 89.3692 62.0267 91.3638 63.84C 93.3585 65.608 96.2598 66.492 100.068 66.492C 104.329 66.492 107.729 65.268 110.268 62.82C 112.852 60.372 114.665 56.5413 115.708 51.328L 121.08 24.4L 127.744 24.4L 122.304 51.804C 120.899 58.6947 118.269 63.8853 114.416 67.376C 110.608 70.8213 105.621 72.544 99.4558 72.544ZM 141.685 24.4L 148.485 24.4L 138.965 72L 132.165 72L 141.685 24.4Z"/>
<path id="path7_stroke_2x" d="M 11.424 68.328L 11.0898 68.6999L 11.0925 68.7023L 11.424 68.328ZM 7.276 51.464L 6.78553 51.3666L 6.78443 51.3725L 7.276 51.464ZM 12.648 24.4L 12.648 23.9L 12.2375 23.9L 12.1576 24.3027L 12.648 24.4ZM 19.448 24.4L 19.9381 24.4988L 20.0588 23.9L 19.448 23.9L 19.448 24.4ZM 14.008 51.396L 14.4977 51.4968L 14.4981 51.4948L 14.008 51.396ZM 16.524 63.84L 16.1876 64.21L 16.1923 64.2142L 16.524 63.84ZM 35.428 62.82L 35.0841 62.457L 35.0809 62.4601L 35.428 62.82ZM 40.868 51.328L 41.3583 51.4261L 41.3583 51.4258L 40.868 51.328ZM 46.24 24.4L 46.24 23.9L 45.8299 23.9L 45.7497 24.3022L 46.24 24.4ZM 52.904 24.4L 53.3944 24.4974L 53.513 23.9L 52.904 23.9L 52.904 24.4ZM 47.464 51.804L 47.9539 51.9039L 47.9544 51.9014L 47.464 51.804ZM 39.576 67.376L 39.9115 67.7468L 39.9117 67.7466L 39.576 67.376ZM 24.616 72.044C 19.0763 72.044 14.8111 70.66 11.7555 67.9537L 11.0925 68.7023C 14.3836 71.6173 18.913 73.044 24.616 73.044L 24.616 72.044ZM 11.7582 67.9561C 8.75541 65.2579 7.232 61.5056 7.232 56.632L 6.232 56.632C 6.232 61.7317 7.83659 65.7767 11.0898 68.6999L 11.7582 67.9561ZM 7.232 56.632C 7.232 55.1747 7.40882 53.4837 7.76757 51.5555L 6.78443 51.3725C 6.41785 53.343 6.232 55.0973 6.232 56.632L 7.232 56.632ZM 7.76643 51.5613L 13.1384 24.4973L 12.1576 24.3027L 6.78557 51.3667L 7.76643 51.5613ZM 12.648 24.9L 19.448 24.9L 19.448 23.9L 12.648 23.9L 12.648 24.9ZM 18.9579 24.3012L 13.5179 51.2972L 14.4981 51.4948L 19.9381 24.4988L 18.9579 24.3012ZM 13.5183 51.2952C 13.1947 52.8669 13.032 54.3967 13.032 55.884L 14.032 55.884C 14.032 54.4699 14.1867 53.0078 14.4977 51.4968L 13.5183 51.2952ZM 13.032 55.884C 13.032 59.4715 14.0601 62.2758 16.1877 64.21L 16.8603 63.47C 14.9986 61.7775 14.032 59.2778 14.032 55.884L 13.032 55.884ZM 16.1923 64.2142C 18.311 66.0921 21.3496 66.992 25.228 66.992L 25.228 65.992C 21.4904 65.992 18.7264 65.1239 16.8557 63.4658L 16.1923 64.2142ZM 25.228 66.992C 29.5902 66.992 33.1244 65.7359 35.7751 63.1799L 35.0809 62.4601C 32.6542 64.8001 29.3885 65.992 25.228 65.992L 25.228 66.992ZM 35.7719 63.183C 38.4596 60.6367 40.3048 56.6934 41.3583 51.4261L 40.3777 51.2299C 39.3458 56.3893 37.5644 60.1073 35.0841 62.457L 35.7719 63.183ZM 41.3583 51.4258L 46.7303 24.4978L 45.7497 24.3022L 40.3777 51.2302L 41.3583 51.4258ZM 46.24 24.9L 52.904 24.9L 52.904 23.9L 46.24 23.9L 46.24 24.9ZM 52.4136 24.3026L 46.9736 51.7066L 47.9544 51.9014L 53.3944 24.4974L 52.4136 24.3026ZM 46.9741 51.7041C 45.5826 58.5267 42.9911 63.6076 39.2403 67.0054L 39.9117 67.7466C 43.8675 64.163 46.5347 58.8627 47.9539 51.9039L 46.9741 51.7041ZM 39.2405 67.0052C 35.5422 70.3513 30.6836 72.044 24.616 72.044L 24.616 73.044C 30.8791 73.044 35.9938 71.2913 39.9115 67.7468L 39.2405 67.0052ZM 66.8451 24.4L 66.8451 23.9L 66.4352 23.9L 66.3548 24.3019L 66.8451 24.4ZM 73.6451 24.4L 74.1354 24.4981L 74.255 23.9L 73.6451 23.9L 73.6451 24.4ZM 64.1251 72L 64.1251 72.5L 64.535 72.5L 64.6154 72.0981L 64.1251 72ZM 57.3251 72L 56.8348 71.9019L 56.7152 72.5L 57.3251 72.5L 57.3251 72ZM 66.8451 24.9L 73.6451 24.9L 73.6451 23.9L 66.8451 23.9L 66.8451 24.9ZM 73.1548 24.3019L 63.6348 71.9019L 64.6154 72.0981L 74.1354 24.4981L 73.1548 24.3019ZM 64.1251 71.5L 57.3251 71.5L 57.3251 72.5L 64.1251 72.5L 64.1251 71.5ZM 57.8154 72.0981L 67.3354 24.4981L 66.3548 24.3019L 56.8348 71.9019L 57.8154 72.0981ZM 86.2638 68.328L 85.9297 68.6999L 85.9323 68.7023L 86.2638 68.328ZM 82.1158 51.464L 81.6254 51.3666L 81.6243 51.3725L 82.1158 51.464ZM 87.4878 24.4L 87.4878 23.9L 87.0773 23.9L 86.9974 24.3027L 87.4878 24.4ZM 94.2878 24.4L 94.778 24.4988L 94.8987 23.9L 94.2878 23.9L 94.2878 24.4ZM 88.8478 51.396L 89.3376 51.4968L 89.338 51.4948L 88.8478 51.396ZM 91.3638 63.84L 91.0275 64.21L 91.0322 64.2142L 91.3638 63.84ZM 110.268 62.82L 109.924 62.457L 109.921 62.4601L 110.268 62.82ZM 115.708 51.328L 116.198 51.4261L 116.198 51.4258L 115.708 51.328ZM 121.08 24.4L 121.08 23.9L 120.67 23.9L 120.59 24.3022L 121.08 24.4ZM 127.744 24.4L 128.234 24.4974L 128.353 23.9L 127.744 23.9L 127.744 24.4ZM 122.304 51.804L 122.794 51.9039L 122.794 51.9014L 122.304 51.804ZM 114.416 67.376L 114.751 67.7468L 114.752 67.7466L 114.416 67.376ZM 99.4558 72.044C 93.9162 72.044 89.6509 70.66 86.5954 67.9537L 85.9323 68.7023C 89.2234 71.6173 93.7529 73.044 99.4558 73.044L 99.4558 72.044ZM 86.598 67.9561C 83.5953 65.2579 82.0718 61.5056 82.0718 56.632L 81.0718 56.632C 81.0718 61.7317 82.6764 65.7767 85.9297 68.6999L 86.598 67.9561ZM 82.0718 56.632C 82.0718 55.1747 82.2487 53.4837 82.6074 51.5555L 81.6243 51.3725C 81.2577 53.343 81.0718 55.0973 81.0718 56.632L 82.0718 56.632ZM 82.6063 51.5613L 87.9783 24.4973L 86.9974 24.3027L 81.6254 51.3667L 82.6063 51.5613ZM 87.4878 24.9L 94.2878 24.9L 94.2878 23.9L 87.4878 23.9L 87.4878 24.9ZM 93.7977 24.3012L 88.3577 51.2972L 89.338 51.4948L 94.778 24.4988L 93.7977 24.3012ZM 88.3581 51.2952C 88.0345 52.8669 87.8718 54.3967 87.8718 55.884L 88.8718 55.884C 88.8718 54.4699 89.0265 53.0078 89.3376 51.4968L 88.3581 51.2952ZM 87.8718 55.884C 87.8718 59.4715 88.9 62.2758 91.0275 64.21L 91.7002 63.47C 89.8384 61.7775 88.8718 59.2778 88.8718 55.884L 87.8718 55.884ZM 91.0322 64.2142C 93.1508 66.0921 96.1895 66.992 100.068 66.992L 100.068 65.992C 96.3302 65.992 93.5662 65.1239 91.6955 63.4658L 91.0322 64.2142ZM 100.068 66.992C 104.43 66.992 107.964 65.7359 110.615 63.1799L 109.921 62.4601C 107.494 64.8001 104.228 65.992 100.068 65.992L 100.068 66.992ZM 110.612 63.183C 113.299 60.6367 115.145 56.6934 116.198 51.4261L 115.218 51.2299C 114.186 56.3893 112.404 60.1073 109.924 62.457L 110.612 63.183ZM 116.198 51.4258L 121.57 24.4978L 120.59 24.3022L 115.218 51.2302L 116.198 51.4258ZM 121.08 24.9L 127.744 24.9L 127.744 23.9L 121.08 23.9L 121.08 24.9ZM 127.253 24.3026L 121.813 51.7066L 122.794 51.9014L 128.234 24.4974L 127.253 24.3026ZM 121.814 51.7041C 120.422 58.5267 117.831 63.6076 114.08 67.0054L 114.752 67.7466C 118.707 64.163 121.375 58.8627 122.794 51.9039L 121.814 51.7041ZM 114.08 67.0052C 110.382 70.3513 105.523 72.044 99.4558 72.044L 99.4558 73.044C 105.719 73.044 110.834 71.2913 114.751 67.7468L 114.08 67.0052ZM 141.685 24.4L 141.685 23.9L 141.275 23.9L 141.195 24.3019L 141.685 24.4ZM 148.485 24.4L 148.975 24.4981L 149.095 23.9L 148.485 23.9L 148.485 24.4ZM 138.965 72L 138.965 72.5L 139.375 72.5L 139.455 72.0981L 138.965 72ZM 132.165 72L 131.675 71.9019L 131.555 72.5L 132.165 72.5L 132.165 72ZM 141.685 24.9L 148.485 24.9L 148.485 23.9L 141.685 23.9L 141.685 24.9ZM 147.995 24.3019L 138.475 71.9019L 139.455 72.0981L 148.975 24.4981L 147.995 24.3019ZM 138.965 71.5L 132.165 71.5L 132.165 72.5L 138.965 72.5L 138.965 71.5ZM 132.655 72.0981L 142.175 24.4981L 141.195 24.3019L 131.675 71.9019L 132.655 72.0981Z"/>
<path id="path8_fill" d="M 7.728 20.981L 6.72 26L 4.62 26L 5.649 20.855L 1.764 11.3L 3.822 11.3L 6.993 19.091L 13.272 11.3L 15.498 11.3L 7.728 20.981ZM 21.1299 26.168C 19.6879 26.168 18.4489 25.909 17.4129 25.391C 16.3769 24.873 15.5859 24.152 15.0399 23.228C 14.4939 22.29 14.2209 21.205 14.2209 19.973C 14.2209 18.335 14.5919 16.844 15.3339 15.5C 16.0759 14.156 17.1189 13.092 18.4629 12.308C 19.8209 11.524 21.3819 11.132 23.1459 11.132C 24.5879 11.132 25.8269 11.391 26.8629 11.909C 27.9129 12.427 28.7109 13.155 29.2569 14.093C 29.8029 15.017 30.0759 16.095 30.0759 17.327C 30.0759 18.965 29.7049 20.456 28.9629 21.8C 28.2209 23.144 27.1709 24.208 25.8129 24.992C 24.4549 25.776 22.8939 26.168 21.1299 26.168ZM 21.3189 24.299C 22.6349 24.299 23.7969 23.991 24.8049 23.375C 25.8129 22.759 26.5899 21.933 27.1359 20.897C 27.6819 19.847 27.9549 18.699 27.9549 17.453C 27.9549 16.095 27.5209 15.017 26.6529 14.219C 25.7989 13.407 24.5739 13.001 22.9779 13.001C 21.6619 13.001 20.4999 13.309 19.4919 13.925C 18.4839 14.541 17.6999 15.374 17.1399 16.424C 16.5939 17.474 16.3209 18.615 16.3209 19.847C 16.3209 21.205 16.7549 22.29 17.6229 23.102C 18.4909 23.9 19.7229 24.299 21.3189 24.299ZM 38.1997 26.168C 36.4637 26.168 35.1057 25.734 34.1257 24.866C 33.1597 23.998 32.6767 22.794 32.6767 21.254C 32.6767 20.792 32.7327 20.26 32.8447 19.658L 34.5037 11.3L 36.6037 11.3L 34.9237 19.637C 34.8257 20.113 34.7767 20.575 34.7767 21.023C 34.7767 22.101 35.0847 22.92 35.7007 23.48C 36.3167 24.026 37.2127 24.299 38.3887 24.299C 39.7047 24.299 40.7547 23.921 41.5387 23.165C 42.3367 22.409 42.8967 21.226 43.2187 19.616L 44.8777 11.3L 46.9357 11.3L 45.2557 19.763C 44.8217 21.891 44.0097 23.494 42.8197 24.572C 41.6437 25.636 40.1037 26.168 38.1997 26.168ZM 62.14 15.605C 62.14 17.047 61.755 18.251 60.985 19.217C 60.215 20.183 59.13 20.848 57.73 21.212L 60.418 26L 58.192 26L 55.63 21.506L 55.231 21.506L 51.304 21.506L 50.422 26L 48.301 26L 51.241 11.3L 56.722 11.3C 58.444 11.3 59.774 11.678 60.712 12.434C 61.664 13.176 62.14 14.233 62.14 15.605ZM 55.294 19.721C 56.806 19.721 57.975 19.385 58.801 18.713C 59.627 18.041 60.04 17.068 60.04 15.794C 60.04 14.912 59.739 14.247 59.137 13.799C 58.535 13.351 57.667 13.127 56.533 13.127L 52.984 13.127L 51.661 19.721L 55.294 19.721ZM 72.1384 11.3L 74.2384 11.3L 71.2984 26L 69.1984 26L 72.1384 11.3ZM 91.2814 11.3L 88.3414 26L 86.6194 26L 80.0464 14.681L 77.7994 26L 75.6994 26L 78.6394 11.3L 80.3614 11.3L 86.9344 22.619L 89.1814 11.3L 91.2814 11.3ZM 95.6814 11.3L 101.435 11.3C 102.905 11.3 104.165 11.552 105.215 12.056C 106.279 12.546 107.084 13.246 107.63 14.156C 108.19 15.052 108.47 16.109 108.47 17.327C 108.47 19.035 108.085 20.547 107.315 21.863C 106.559 23.179 105.488 24.201 104.102 24.929C 102.73 25.643 101.134 26 99.3144 26L 92.7414 26L 95.6814 11.3ZM 99.3774 24.173C 100.791 24.173 102.023 23.886 103.073 23.312C 104.123 22.738 104.928 21.947 105.488 20.939C 106.062 19.917 106.349 18.755 106.349 17.453C 106.349 16.095 105.915 15.038 105.047 14.282C 104.179 13.512 102.905 13.127 101.225 13.127L 97.4034 13.127L 95.1984 24.173L 99.3774 24.173ZM 113.031 11.3L 115.131 11.3L 112.191 26L 110.091 26L 113.031 11.3ZM 132.156 11.3L 122.748 26L 120.69 26L 117.162 11.3L 119.325 11.3L 122.181 23.396L 129.972 11.3L 132.156 11.3ZM 134.031 11.3L 136.131 11.3L 133.191 26L 131.091 26L 134.031 11.3ZM 140.532 11.3L 146.286 11.3C 147.756 11.3 149.016 11.552 150.066 12.056C 151.13 12.546 151.935 13.246 152.481 14.156C 153.041 15.052 153.321 16.109 153.321 17.327C 153.321 19.035 152.936 20.547 152.166 21.863C 151.41 23.179 150.339 24.201 148.953 24.929C 147.581 25.643 145.985 26 144.165 26L 137.592 26L 140.532 11.3ZM 144.228 24.173C 145.642 24.173 146.874 23.886 147.924 23.312C 148.974 22.738 149.779 21.947 150.339 20.939C 150.913 19.917 151.2 18.755 151.2 17.453C 151.2 16.095 150.766 15.038 149.898 14.282C 149.03 13.512 147.756 13.127 146.076 13.127L 142.254 13.127L 140.049 24.173L 144.228 24.173ZM 161.452 26.168C 159.716 26.168 158.358 25.734 157.378 24.866C 156.412 23.998 155.929 22.794 155.929 21.254C 155.929 20.792 155.985 20.26 156.097 19.658L 157.756 11.3L 159.856 11.3L 158.176 19.637C 158.078 20.113 158.029 20.575 158.029 21.023C 158.029 22.101 158.337 22.92 158.953 23.48C 159.569 24.026 160.465 24.299 161.641 24.299C 162.957 24.299 164.007 23.921 164.791 23.165C 165.589 22.409 166.149 21.226 166.471 19.616L 168.13 11.3L 170.188 11.3L 168.508 19.763C 168.074 21.891 167.262 23.494 166.072 24.572C 164.896 25.636 163.356 26.168 161.452 26.168ZM 181.472 22.325L 173.618 22.325L 171.287 26L 169.019 26L 178.637 11.3L 180.716 11.3L 184.433 26L 182.354 26L 181.472 22.325ZM 181.052 20.645L 179.309 13.4L 174.689 20.645L 181.052 20.645ZM 189.566 11.3L 191.666 11.3L 189.083 24.173L 197.063 24.173L 196.706 26L 186.626 26L 189.566 11.3ZM 4.032 37.3L 9.786 37.3C 11.256 37.3 12.516 37.552 13.566 38.056C 14.63 38.546 15.435 39.246 15.981 40.156C 16.541 41.052 16.821 42.109 16.821 43.327C 16.821 45.035 16.436 46.547 15.666 47.863C 14.91 49.179 13.839 50.201 12.453 50.929C 11.081 51.643 9.485 52 7.665 52L 1.092 52L 4.032 37.3ZM 7.728 50.173C 9.142 50.173 10.374 49.886 11.424 49.312C 12.474 48.738 13.279 47.947 13.839 46.939C 14.413 45.917 14.7 44.755 14.7 43.453C 14.7 42.095 14.266 41.038 13.398 40.282C 12.53 39.512 11.256 39.127 9.576 39.127L 5.754 39.127L 3.549 50.173L 7.728 50.173ZM 28.4635 48.325L 20.6095 48.325L 18.2785 52L 16.0105 52L 25.6285 37.3L 27.7075 37.3L 31.4245 52L 29.3455 52L 28.4635 48.325ZM 28.0435 46.645L 26.3005 39.4L 21.6805 46.645L 28.0435 46.645ZM 38.1534 52.168C 37.0614 52.168 36.0044 52 34.9824 51.664C 33.9744 51.328 33.1974 50.901 32.6514 50.383L 33.5754 48.703C 34.1354 49.221 34.8424 49.634 35.6964 49.942C 36.5504 50.236 37.4324 50.383 38.3424 50.383C 39.5464 50.383 40.5054 50.166 41.2194 49.732C 41.9474 49.284 42.3114 48.668 42.3114 47.884C 42.3114 47.464 42.1714 47.114 41.8914 46.834C 41.6114 46.554 41.2684 46.33 40.8624 46.162C 40.4564 45.994 39.8824 45.798 39.1404 45.574C 38.2024 45.294 37.4464 45.028 36.8724 44.776C 36.2984 44.524 35.8014 44.153 35.3814 43.663C 34.9754 43.159 34.7724 42.501 34.7724 41.689C 34.7724 40.765 35.0314 39.96 35.5494 39.274C 36.0674 38.588 36.7884 38.063 37.7124 37.699C 38.6364 37.321 39.6934 37.132 40.8834 37.132C 41.7934 37.132 42.6544 37.244 43.4664 37.468C 44.2924 37.678 45.0064 37.979 45.6084 38.371L 44.7684 40.093C 44.2224 39.701 43.6064 39.407 42.9204 39.211C 42.2484 39.015 41.5344 38.917 40.7784 38.917C 39.5744 38.917 38.6154 39.155 37.9014 39.631C 37.1874 40.093 36.8304 40.716 36.8304 41.5C 36.8304 41.934 36.9704 42.298 37.2504 42.592C 37.5444 42.886 37.9014 43.117 38.3214 43.285C 38.7554 43.453 39.3434 43.649 40.0854 43.873C 41.0094 44.153 41.7514 44.419 42.3114 44.671C 42.8854 44.909 43.3684 45.266 43.7604 45.742C 44.1664 46.218 44.3694 46.834 44.3694 47.59C 44.3694 48.528 44.1034 49.34 43.5714 50.026C 43.0534 50.712 42.3254 51.244 41.3874 51.622C 40.4494 51.986 39.3714 52.168 38.1534 52.168ZM 62.2424 37.3L 59.3024 52L 57.2024 52L 58.5044 45.49L 50.0624 45.49L 48.7604 52L 46.6604 52L 49.6004 37.3L 51.7004 37.3L 50.4404 43.6L 58.8824 43.6L 60.1424 37.3L 62.2424 37.3ZM 75.0844 44.419C 75.7424 44.643 76.2534 45.007 76.6174 45.511C 76.9814 46.015 77.1634 46.645 77.1634 47.401C 77.1634 48.885 76.5894 50.026 75.4414 50.824C 74.3074 51.608 72.7534 52 70.7794 52L 63.7024 52L 66.6424 37.3L 73.1524 37.3C 74.6364 37.3 75.7774 37.58 76.5754 38.14C 77.3874 38.686 77.7934 39.484 77.7934 40.534C 77.7934 41.486 77.5414 42.298 77.0374 42.97C 76.5474 43.628 75.8964 44.111 75.0844 44.419ZM 68.3854 39.001L 67.4404 43.705L 71.7454 43.705C 72.9354 43.705 73.8734 43.467 74.5594 42.991C 75.2594 42.501 75.6094 41.794 75.6094 40.87C 75.6094 40.24 75.3574 39.771 74.8534 39.463C 74.3634 39.155 73.6494 39.001 72.7114 39.001L 68.3854 39.001ZM 70.9264 50.299C 72.2564 50.299 73.2784 50.054 73.9924 49.564C 74.7204 49.06 75.0844 48.346 75.0844 47.422C 75.0844 46.694 74.8254 46.176 74.3074 45.868C 73.8034 45.56 73.0404 45.406 72.0184 45.406L 67.1044 45.406L 66.1384 50.299L 70.9264 50.299ZM 86.6729 52.168C 85.2309 52.168 83.9919 51.909 82.9559 51.391C 81.9199 50.873 81.1289 50.152 80.5829 49.228C 80.0369 48.29 79.7639 47.205 79.7639 45.973C 79.7639 44.335 80.1349 42.844 80.8769 41.5C 81.6189 40.156 82.6619 39.092 84.0059 38.308C 85.3639 37.524 86.9249 37.132 88.6889 37.132C 90.1309 37.132 91.3699 37.391 92.4059 37.909C 93.4559 38.427 94.2539 39.155 94.7999 40.093C 95.3459 41.017 95.6189 42.095 95.6189 43.327C 95.6189 44.965 95.2479 46.456 94.5059 47.8C 93.7639 49.144 92.7139 50.208 91.3559 50.992C 89.9979 51.776 88.4369 52.168 86.6729 52.168ZM 86.8619 50.299C 88.1779 50.299 89.3399 49.991 90.3479 49.375C 91.3559 48.759 92.1329 47.933 92.6789 46.897C 93.2249 45.847 93.4979 44.699 93.4979 43.453C 93.4979 42.095 93.0639 41.017 92.1959 40.219C 91.3419 39.407 90.1169 39.001 88.5209 39.001C 87.2049 39.001 86.0429 39.309 85.0349 39.925C 84.0269 40.541 83.2429 41.374 82.6829 42.424C 82.1369 43.474 81.8639 44.615 81.8639 45.847C 81.8639 47.205 82.2979 48.29 83.1659 49.102C 84.0339 49.9 85.2659 50.299 86.8619 50.299ZM 107.255 48.325L 99.4005 48.325L 97.0695 52L 94.8015 52L 104.42 37.3L 106.499 37.3L 110.216 52L 108.137 52L 107.255 48.325ZM 106.835 46.645L 105.092 39.4L 100.472 46.645L 106.835 46.645ZM 126.247 41.605C 126.247 43.047 125.862 44.251 125.092 45.217C 124.322 46.183 123.237 46.848 121.837 47.212L 124.525 52L 122.299 52L 119.737 47.506L 119.338 47.506L 115.411 47.506L 114.529 52L 112.408 52L 115.348 37.3L 120.829 37.3C 122.551 37.3 123.881 37.678 124.819 38.434C 125.771 39.176 126.247 40.233 126.247 41.605ZM 119.401 45.721C 120.913 45.721 122.082 45.385 122.908 44.713C 123.734 44.041 124.147 43.068 124.147 41.794C 124.147 40.912 123.846 40.247 123.244 39.799C 122.642 39.351 121.774 39.127 120.64 39.127L 117.091 39.127L 115.768 45.721L 119.401 45.721ZM 130.606 37.3L 136.36 37.3C 137.83 37.3 139.09 37.552 140.14 38.056C 141.204 38.546 142.009 39.246 142.555 40.156C 143.115 41.052 143.395 42.109 143.395 43.327C 143.395 45.035 143.01 46.547 142.24 47.863C 141.484 49.179 140.413 50.201 139.027 50.929C 137.655 51.643 136.059 52 134.239 52L 127.666 52L 130.606 37.3ZM 134.302 50.173C 135.716 50.173 136.948 49.886 137.998 49.312C 139.048 48.738 139.853 47.947 140.413 46.939C 140.987 45.917 141.274 44.755 141.274 43.453C 141.274 42.095 140.84 41.038 139.972 40.282C 139.104 39.512 137.83 39.127 136.15 39.127L 132.328 39.127L 130.123 50.173L 134.302 50.173Z"/>
<path id="path9_stroke_2x" d="M 7.728 20.981L 7.33806 20.668L 7.26178 20.7631L 7.23779 20.8825L 7.728 20.981ZM 6.72 26L 6.72 26.5L 7.12957 26.5L 7.21021 26.0985L 6.72 26ZM 4.62 26L 4.12971 25.9019L 4.0101 26.5L 4.62 26.5L 4.62 26ZM 5.649 20.855L 6.13929 20.9531L 6.16874 20.8058L 6.11218 20.6667L 5.649 20.855ZM 1.764 11.3L 1.764 10.8L 1.02095 10.8L 1.30082 11.4883L 1.764 11.3ZM 3.822 11.3L 4.28511 11.1115L 4.15832 10.8L 3.822 10.8L 3.822 11.3ZM 6.993 19.091L 6.52989 19.2795L 6.8498 20.0655L 7.38231 19.4048L 6.993 19.091ZM 13.272 11.3L 13.272 10.8L 13.0328 10.8L 12.8827 10.9862L 13.272 11.3ZM 15.498 11.3L 15.8879 11.613L 16.5404 10.8L 15.498 10.8L 15.498 11.3ZM 7.23779 20.8825L 6.22979 25.9015L 7.21021 26.0985L 8.21821 21.0795L 7.23779 20.8825ZM 6.72 25.5L 4.62 25.5L 4.62 26.5L 6.72 26.5L 6.72 25.5ZM 5.11029 26.0981L 6.13929 20.9531L 5.15871 20.7569L 4.12971 25.9019L 5.11029 26.0981ZM 6.11218 20.6667L 2.22718 11.1117L 1.30082 11.4883L 5.18582 21.0433L 6.11218 20.6667ZM 1.764 11.8L 3.822 11.8L 3.822 10.8L 1.764 10.8L 1.764 11.8ZM 3.35889 11.4885L 6.52989 19.2795L 7.45611 18.9025L 4.28511 11.1115L 3.35889 11.4885ZM 7.38231 19.4048L 13.6613 11.6138L 12.8827 10.9862L 6.60369 18.7772L 7.38231 19.4048ZM 13.272 11.8L 15.498 11.8L 15.498 10.8L 13.272 10.8L 13.272 11.8ZM 15.1081 10.987L 7.33806 20.668L 8.11794 21.294L 15.8879 11.613L 15.1081 10.987ZM 17.4129 25.391L 17.1893 25.8382L 17.4129 25.391ZM 15.0399 23.228L 14.6078 23.4795L 14.6095 23.4824L 15.0399 23.228ZM 18.4629 12.308L 18.2129 11.875L 18.211 11.8761L 18.4629 12.308ZM 26.8629 11.909L 26.6393 12.3562L 26.6417 12.3574L 26.8629 11.909ZM 29.2569 14.093L 28.8248 14.3445L 28.8265 14.3474L 29.2569 14.093ZM 28.9629 21.8L 28.5252 21.5583L 28.9629 21.8ZM 24.8049 23.375L 25.0657 23.8016L 24.8049 23.375ZM 27.1359 20.897L 27.5783 21.1301L 27.5795 21.1277L 27.1359 20.897ZM 26.6529 14.219L 26.3084 14.5814L 26.3145 14.5871L 26.6529 14.219ZM 17.1399 16.424L 16.6987 16.1887L 16.6963 16.1933L 17.1399 16.424ZM 17.6229 23.102L 17.2813 23.4671L 17.2845 23.4701L 17.6229 23.102ZM 21.1299 25.668C 19.747 25.668 18.5882 25.4196 17.6365 24.9438L 17.1893 25.8382C 18.3097 26.3984 19.6289 26.668 21.1299 26.668L 21.1299 25.668ZM 17.6365 24.9438C 16.6795 24.4653 15.9635 23.8082 15.4704 22.9736L 14.6095 23.4824C 15.2083 24.4958 16.0744 25.2807 17.1893 25.8382L 17.6365 24.9438ZM 15.4721 22.9765C 14.9763 22.1247 14.7209 21.1288 14.7209 19.973L 13.7209 19.973C 13.7209 21.2812 14.0116 22.4553 14.6078 23.4795L 15.4721 22.9765ZM 14.7209 19.973C 14.7209 18.4137 15.0732 17.0067 15.7717 15.7417L 14.8962 15.2583C 14.1106 16.6813 13.7209 18.2563 13.7209 19.973L 14.7209 19.973ZM 15.7717 15.7417C 16.4694 14.4778 17.4477 13.4791 18.7149 12.7399L 18.211 11.8761C 16.7901 12.7049 15.6825 13.8342 14.8962 15.2583L 15.7717 15.7417ZM 18.7129 12.741C 19.9858 12.0062 21.4585 11.632 23.1459 11.632L 23.1459 10.632C 21.3054 10.632 19.6561 11.0418 18.2129 11.875L 18.7129 12.741ZM 23.1459 11.632C 24.5289 11.632 25.6877 11.8804 26.6393 12.3562L 27.0865 11.4618C 25.9662 10.9016 24.647 10.632 23.1459 10.632L 23.1459 11.632ZM 26.6417 12.3574C 27.6109 12.8355 28.3322 13.4982 28.8248 14.3445L 29.6891 13.8415C 29.0897 12.8118 28.215 12.0185 27.0841 11.4606L 26.6417 12.3574ZM 28.8265 14.3474C 29.3206 15.1835 29.5759 16.171 29.5759 17.327L 30.5759 17.327C 30.5759 16.019 30.2853 14.8505 29.6874 13.8386L 28.8265 14.3474ZM 29.5759 17.327C 29.5759 18.8863 29.2236 20.2933 28.5252 21.5583L 29.4007 22.0417C 30.1862 20.6187 30.5759 19.0437 30.5759 17.327L 29.5759 17.327ZM 28.5252 21.5583C 27.8282 22.8209 26.8439 23.8195 25.5629 24.559L 26.0629 25.425C 27.498 24.5965 28.6137 23.4671 29.4007 22.0417L 28.5252 21.5583ZM 25.5629 24.559C 24.2901 25.2938 22.8174 25.668 21.1299 25.668L 21.1299 26.668C 22.9705 26.668 24.6198 26.2582 26.0629 25.425L 25.5629 24.559ZM 21.3189 24.799C 22.7161 24.799 23.9704 24.4709 25.0657 23.8016L 24.5442 22.9484C 23.6234 23.5111 22.5537 23.799 21.3189 23.799L 21.3189 24.799ZM 25.0657 23.8016C 26.1498 23.1391 26.9899 22.2465 27.5783 21.1301L 26.6936 20.6639C 26.19 21.6195 25.4761 22.3789 24.5442 22.9484L 25.0657 23.8016ZM 27.5795 21.1277C 28.1646 20.0026 28.4549 18.7749 28.4549 17.453L 27.4549 17.453C 27.4549 18.6231 27.1993 19.6914 26.6923 20.6663L 27.5795 21.1277ZM 28.4549 17.453C 28.4549 15.9784 27.9783 14.7583 26.9913 13.8509L 26.3145 14.5871C 27.0635 15.2757 27.4549 16.2116 27.4549 17.453L 28.4549 17.453ZM 26.9975 13.8566C 26.0216 12.9288 24.6559 12.501 22.9779 12.501L 22.9779 13.501C 24.492 13.501 25.5762 13.8852 26.3084 14.5814L 26.9975 13.8566ZM 22.9779 12.501C 21.5807 12.501 20.3264 12.8291 19.2312 13.4984L 19.7527 14.3516C 20.6734 13.7889 21.7431 13.501 22.9779 13.501L 22.9779 12.501ZM 19.2312 13.4984C 18.1465 14.1613 17.3004 15.0606 16.6988 16.1887L 17.5811 16.6593C 18.0994 15.6874 18.8214 14.9207 19.7527 14.3516L 19.2312 13.4984ZM 16.6963 16.1933C 16.1117 17.3175 15.8209 18.5381 15.8209 19.847L 16.8209 19.847C 16.8209 18.6919 17.0761 17.6305 17.5835 16.6547L 16.6963 16.1933ZM 15.8209 19.847C 15.8209 21.3217 16.2975 22.5467 17.2814 23.4671L 17.9645 22.7369C 17.2124 22.0333 16.8209 21.0883 16.8209 19.847L 15.8209 19.847ZM 17.2845 23.4701C 18.2733 24.3791 19.6426 24.799 21.3189 24.799L 21.3189 23.799C 19.8033 23.799 18.7086 23.4209 17.9613 22.7339L 17.2845 23.4701ZM 34.1257 24.866L 33.7915 25.2379L 33.7941 25.2403L 34.1257 24.866ZM 32.8447 19.658L 32.3542 19.5606L 32.3531 19.5665L 32.8447 19.658ZM 34.5037 11.3L 34.5037 10.8L 34.0931 10.8L 34.0132 11.2027L 34.5037 11.3ZM 36.6037 11.3L 37.0938 11.3988L 37.2145 10.8L 36.6037 10.8L 36.6037 11.3ZM 34.9237 19.637L 35.4134 19.7378L 35.4138 19.7358L 34.9237 19.637ZM 35.7007 23.48L 35.3643 23.85L 35.369 23.8542L 35.7007 23.48ZM 41.5387 23.165L 41.1948 22.802L 41.1916 22.8051L 41.5387 23.165ZM 43.2187 19.616L 43.7089 19.7141L 43.709 19.7138L 43.2187 19.616ZM 44.8777 11.3L 44.8777 10.8L 44.4676 10.8L 44.3873 11.2022L 44.8777 11.3ZM 46.9357 11.3L 47.4261 11.3974L 47.5447 10.8L 46.9357 10.8L 46.9357 11.3ZM 45.2557 19.763L 45.7456 19.8629L 45.7461 19.8604L 45.2557 19.763ZM 42.8197 24.572L 43.1551 24.9428L 43.1553 24.9426L 42.8197 24.572ZM 38.1997 25.668C 36.5453 25.668 35.3194 25.2554 34.4572 24.4917L 33.7941 25.2403C 34.8919 26.2126 36.382 26.668 38.1997 26.668L 38.1997 25.668ZM 34.4598 24.4941C 33.6191 23.7386 33.1767 22.6809 33.1767 21.254L 32.1767 21.254C 32.1767 22.9071 32.7002 24.2574 33.7915 25.2379L 34.4598 24.4941ZM 33.1767 21.254C 33.1767 20.8307 33.2281 20.3304 33.3362 19.7495L 32.3531 19.5665C 32.2372 20.1896 32.1767 20.7533 32.1767 21.254L 33.1767 21.254ZM 33.3351 19.7553L 34.9941 11.3973L 34.0132 11.2027L 32.3542 19.5607L 33.3351 19.7553ZM 34.5037 11.8L 36.6037 11.8L 36.6037 10.8L 34.5037 10.8L 34.5037 11.8ZM 36.1135 11.2012L 34.4335 19.5382L 35.4138 19.7358L 37.0938 11.3988L 36.1135 11.2012ZM 34.4339 19.5362C 34.3297 20.0426 34.2767 20.5384 34.2767 21.023L 35.2767 21.023C 35.2767 20.6116 35.3216 20.1834 35.4134 19.7378L 34.4339 19.5362ZM 34.2767 21.023C 34.2767 22.1978 34.6154 23.1692 35.3643 23.85L 36.037 23.11C 35.5539 22.6708 35.2767 22.0042 35.2767 21.023L 34.2767 21.023ZM 35.369 23.8542C 36.109 24.5101 37.1423 24.799 38.3887 24.799L 38.3887 23.799C 37.283 23.799 36.5243 23.5419 36.0323 23.1058L 35.369 23.8542ZM 38.3887 24.799C 39.8055 24.799 40.9898 24.3889 41.8857 23.5249L 41.1916 22.8051C 40.5195 23.4531 39.6038 23.799 38.3887 23.799L 38.3887 24.799ZM 41.8825 23.528C 42.7842 22.6737 43.3761 21.3781 43.7089 19.7141L 42.7284 19.5179C 42.4172 21.0739 41.8891 22.1443 41.1948 22.802L 41.8825 23.528ZM 43.709 19.7138L 45.368 11.3978L 44.3873 11.2022L 42.7283 19.5182L 43.709 19.7138ZM 44.8777 11.8L 46.9357 11.8L 46.9357 10.8L 44.8777 10.8L 44.8777 11.8ZM 46.4452 11.2026L 44.7652 19.6656L 45.7461 19.8604L 47.4261 11.3974L 46.4452 11.2026ZM 44.7657 19.6631C 44.3456 21.723 43.5714 23.2163 42.484 24.2014L 43.1553 24.9426C 44.4479 23.7717 45.2977 22.059 45.7456 19.8629L 44.7657 19.6631ZM 42.4842 24.2012C 41.4179 25.166 40.0059 25.668 38.1997 25.668L 38.1997 26.668C 40.2014 26.668 41.8694 26.106 43.1551 24.9428L 42.4842 24.2012ZM 60.985 19.217L 61.376 19.5287L 60.985 19.217ZM 57.73 21.212L 57.6042 20.7281L 56.9765 20.8913L 57.294 21.4568L 57.73 21.212ZM 60.418 26L 60.418 26.5L 61.2721 26.5L 60.854 25.7552L 60.418 26ZM 58.192 26L 57.7576 26.2476L 57.9015 26.5L 58.192 26.5L 58.192 26ZM 55.63 21.506L 56.0644 21.2584L 55.9205 21.006L 55.63 21.006L 55.63 21.506ZM 51.304 21.506L 51.304 21.006L 50.8926 21.006L 50.8133 21.4097L 51.304 21.506ZM 50.422 26L 50.422 26.5L 50.8334 26.5L 50.9126 26.0963L 50.422 26ZM 48.301 26L 47.8107 25.9019L 47.6911 26.5L 48.301 26.5L 48.301 26ZM 51.241 11.3L 51.241 10.8L 50.8311 10.8L 50.7507 11.2019L 51.241 11.3ZM 60.712 12.434L 60.3982 12.8233L 60.4046 12.8284L 60.712 12.434ZM 58.801 18.713L 58.4854 18.3251L 58.801 18.713ZM 59.137 13.799L 59.4355 13.3979L 59.137 13.799ZM 52.984 13.127L 52.984 12.627L 52.5743 12.627L 52.4938 13.0286L 52.984 13.127ZM 51.661 19.721L 51.1708 19.6226L 51.0507 20.221L 51.661 20.221L 51.661 19.721ZM 61.64 15.605C 61.64 16.9536 61.282 18.0422 60.594 18.9053L 61.376 19.5287C 62.228 18.4598 62.64 17.1404 62.64 15.605L 61.64 15.605ZM 60.594 18.9053C 59.9025 19.7729 58.918 20.3865 57.6042 20.7281L 57.8558 21.6959C 59.3419 21.3095 60.5275 20.5931 61.376 19.5287L 60.594 18.9053ZM 57.294 21.4568L 59.982 26.2448L 60.854 25.7552L 58.166 20.9672L 57.294 21.4568ZM 60.418 25.5L 58.192 25.5L 58.192 26.5L 60.418 26.5L 60.418 25.5ZM 58.6264 25.7524L 56.0644 21.2584L 55.1956 21.7536L 57.7576 26.2476L 58.6264 25.7524ZM 55.63 21.006L 55.231 21.006L 55.231 22.006L 55.63 22.006L 55.63 21.006ZM 55.231 21.006L 51.304 21.006L 51.304 22.006L 55.231 22.006L 55.231 21.006ZM 50.8133 21.4097L 49.9313 25.9037L 50.9126 26.0963L 51.7946 21.6023L 50.8133 21.4097ZM 50.422 25.5L 48.301 25.5L 48.301 26.5L 50.422 26.5L 50.422 25.5ZM 48.7913 26.0981L 51.7313 11.3981L 50.7507 11.2019L 47.8107 25.9019L 48.7913 26.0981ZM 51.241 11.8L 56.722 11.8L 56.722 10.8L 51.241 10.8L 51.241 11.8ZM 56.722 11.8C 58.3777 11.8 59.5803 12.1641 60.3982 12.8233L 61.0257 12.0447C 59.9676 11.1919 58.5103 10.8 56.722 10.8L 56.722 11.8ZM 60.4046 12.8284C 61.2174 13.4618 61.64 14.3632 61.64 15.605L 62.64 15.605C 62.64 14.1028 62.1106 12.8902 61.0194 12.0396L 60.4046 12.8284ZM 55.294 20.221C 56.8736 20.221 58.1705 19.8705 59.1165 19.1009L 58.4854 18.3251C 57.7795 18.8995 56.7384 19.221 55.294 19.221L 55.294 20.221ZM 59.1165 19.1009C 60.0825 18.315 60.54 17.1857 60.54 15.794L 59.54 15.794C 59.54 16.9503 59.1715 17.767 58.4854 18.3251L 59.1165 19.1009ZM 60.54 15.794C 60.54 14.7854 60.1875 13.9575 59.4355 13.3979L 58.8385 14.2001C 59.2905 14.5365 59.54 15.0386 59.54 15.794L 60.54 15.794ZM 59.4355 13.3979C 58.7132 12.8603 57.7225 12.627 56.533 12.627L 56.533 13.627C 57.6115 13.627 58.3568 13.8417 58.8385 14.2001L 59.4355 13.3979ZM 56.533 12.627L 52.984 12.627L 52.984 13.627L 56.533 13.627L 56.533 12.627ZM 52.4938 13.0286L 51.1708 19.6226L 52.1512 19.8194L 53.4742 13.2254L 52.4938 13.0286ZM 51.661 20.221L 55.294 20.221L 55.294 19.221L 51.661 19.221L 51.661 20.221ZM 72.1384 11.3L 72.1384 10.8L 71.7285 10.8L 71.6482 11.2019L 72.1384 11.3ZM 74.2384 11.3L 74.7287 11.3981L 74.8483 10.8L 74.2384 10.8L 74.2384 11.3ZM 71.2984 26L 71.2984 26.5L 71.7083 26.5L 71.7887 26.0981L 71.2984 26ZM 69.1984 26L 68.7082 25.9019L 68.5885 26.5L 69.1984 26.5L 69.1984 26ZM 72.1384 11.8L 74.2384 11.8L 74.2384 10.8L 72.1384 10.8L 72.1384 11.8ZM 73.7482 11.2019L 70.8082 25.9019L 71.7887 26.0981L 74.7287 11.3981L 73.7482 11.2019ZM 71.2984 25.5L 69.1984 25.5L 69.1984 26.5L 71.2984 26.5L 71.2984 25.5ZM 69.6887 26.0981L 72.6287 11.3981L 71.6482 11.2019L 68.7082 25.9019L 69.6887 26.0981ZM 91.2814 11.3L 91.7717 11.3981L 91.8913 10.8L 91.2814 10.8L 91.2814 11.3ZM 88.3414 26L 88.3414 26.5L 88.7513 26.5L 88.8317 26.0981L 88.3414 26ZM 86.6194 26L 86.187 26.2511L 86.3316 26.5L 86.6194 26.5L 86.6194 26ZM 80.0464 14.681L 80.4788 14.4299L 79.8138 13.2848L 79.556 14.5836L 80.0464 14.681ZM 77.7994 26L 77.7994 26.5L 78.2099 26.5L 78.2899 26.0974L 77.7994 26ZM 75.6994 26L 75.2091 25.9019L 75.0895 26.5L 75.6994 26.5L 75.6994 26ZM 78.6394 11.3L 78.6394 10.8L 78.2295 10.8L 78.1491 11.2019L 78.6394 11.3ZM 80.3614 11.3L 80.7938 11.0489L 80.6493 10.8L 80.3614 10.8L 80.3614 11.3ZM 86.9344 22.619L 86.502 22.8701L 87.167 24.0152L 87.4249 22.7164L 86.9344 22.619ZM 89.1814 11.3L 89.1814 10.8L 88.7709 10.8L 88.691 11.2026L 89.1814 11.3ZM 90.7911 11.2019L 87.8511 25.9019L 88.8317 26.0981L 91.7717 11.3981L 90.7911 11.2019ZM 88.3414 25.5L 86.6194 25.5L 86.6194 26.5L 88.3414 26.5L 88.3414 25.5ZM 87.0518 25.7489L 80.4788 14.4299L 79.614 14.9321L 86.187 26.2511L 87.0518 25.7489ZM 79.556 14.5836L 77.309 25.9026L 78.2899 26.0974L 80.5369 14.7784L 79.556 14.5836ZM 77.7994 25.5L 75.6994 25.5L 75.6994 26.5L 77.7994 26.5L 77.7994 25.5ZM 76.1897 26.0981L 79.1297 11.3981L 78.1491 11.2019L 75.2091 25.9019L 76.1897 26.0981ZM 78.6394 11.8L 80.3614 11.8L 80.3614 10.8L 78.6394 10.8L 78.6394 11.8ZM 79.929 11.5511L 86.502 22.8701L 87.3668 22.3679L 80.7938 11.0489L 79.929 11.5511ZM 87.4249 22.7164L 89.6719 11.3974L 88.691 11.2026L 86.444 22.5216L 87.4249 22.7164ZM 89.1814 11.8L 91.2814 11.8L 91.2814 10.8L 89.1814 10.8L 89.1814 11.8ZM 95.6814 11.3L 95.6814 10.8L 95.2715 10.8L 95.1911 11.2019L 95.6814 11.3ZM 105.215 12.056L 104.999 12.5068L 105.006 12.5102L 105.215 12.056ZM 107.63 14.156L 107.202 14.4133L 107.206 14.421L 107.63 14.156ZM 107.315 21.863L 106.884 21.6105L 106.882 21.6139L 107.315 21.863ZM 104.102 24.929L 104.333 25.3725L 104.335 25.3717L 104.102 24.929ZM 92.7414 26L 92.2511 25.9019L 92.1315 26.5L 92.7414 26.5L 92.7414 26ZM 105.488 20.939L 105.052 20.6942L 105.051 20.6962L 105.488 20.939ZM 105.047 14.282L 104.716 14.6561L 104.719 14.659L 105.047 14.282ZM 97.4034 13.127L 97.4034 12.627L 96.9934 12.627L 96.9131 13.0291L 97.4034 13.127ZM 95.1984 24.173L 94.7081 24.0751L 94.5887 24.673L 95.1984 24.673L 95.1984 24.173ZM 95.6814 11.8L 101.435 11.8L 101.435 10.8L 95.6814 10.8L 95.6814 11.8ZM 101.435 11.8C 102.85 11.8 104.032 12.0425 104.999 12.5068L 105.432 11.6052C 104.299 11.0615 102.961 10.8 101.435 10.8L 101.435 11.8ZM 105.006 12.5102C 105.989 12.9626 106.713 13.5984 107.202 14.4132L 108.059 13.8988C 107.456 12.8936 106.57 12.1294 105.425 11.6018L 105.006 12.5102ZM 107.206 14.421C 107.71 15.226 107.97 16.1881 107.97 17.327L 108.97 17.327C 108.97 16.0299 108.671 14.878 108.054 13.891L 107.206 14.421ZM 107.97 17.327C 107.97 18.9572 107.604 20.38 106.884 21.6105L 107.747 22.1155C 108.567 20.714 108.97 19.1128 108.97 17.327L 107.97 17.327ZM 106.882 21.6139C 106.175 22.8449 105.175 23.801 103.87 24.4863L 104.335 25.3717C 105.802 24.601 106.944 23.5131 107.749 22.1121L 106.882 21.6139ZM 103.872 24.4855C 102.582 25.1563 101.068 25.5 99.3144 25.5L 99.3144 26.5C 101.201 26.5 102.878 26.1297 104.333 25.3725L 103.872 24.4855ZM 99.3144 25.5L 92.7414 25.5L 92.7414 26.5L 99.3144 26.5L 99.3144 25.5ZM 93.2317 26.0981L 96.1717 11.3981L 95.1911 11.2019L 92.2511 25.9019L 93.2317 26.0981ZM 99.3774 24.673C 100.86 24.673 102.177 24.3717 103.313 23.7507L 102.834 22.8733C 101.869 23.4003 100.723 23.673 99.3774 23.673L 99.3774 24.673ZM 103.313 23.7507C 104.443 23.1332 105.318 22.2757 105.925 21.1818L 105.051 20.6962C 104.539 21.6183 103.804 22.3428 102.834 22.8733L 103.313 23.7507ZM 105.924 21.1838C 106.545 20.079 106.849 18.8311 106.849 17.453L 105.849 17.453C 105.849 18.6789 105.58 19.755 105.052 20.6942L 105.924 21.1838ZM 106.849 17.453C 106.849 15.979 106.373 14.7732 105.376 13.905L 104.719 14.659C 105.458 15.3028 105.849 16.211 105.849 17.453L 106.849 17.453ZM 105.379 13.908C 104.386 13.027 102.974 12.627 101.225 12.627L 101.225 13.627C 102.837 13.627 103.973 13.997 104.716 14.656L 105.379 13.908ZM 101.225 12.627L 97.4034 12.627L 97.4034 13.627L 101.225 13.627L 101.225 12.627ZM 96.9131 13.0291L 94.7081 24.0751L 95.6887 24.2709L 97.8937 13.2249L 96.9131 13.0291ZM 95.1984 24.673L 99.3774 24.673L 99.3774 23.673L 95.1984 23.673L 95.1984 24.673ZM 113.031 11.3L 113.031 10.8L 112.621 10.8L 112.541 11.2019L 113.031 11.3ZM 115.131 11.3L 115.621 11.3981L 115.741 10.8L 115.131 10.8L 115.131 11.3ZM 112.191 26L 112.191 26.5L 112.601 26.5L 112.681 26.0981L 112.191 26ZM 110.091 26L 109.601 25.9019L 109.481 26.5L 110.091 26.5L 110.091 26ZM 113.031 11.8L 115.131 11.8L 115.131 10.8L 113.031 10.8L 113.031 11.8ZM 114.641 11.2019L 111.701 25.9019L 112.681 26.0981L 115.621 11.3981L 114.641 11.2019ZM 112.191 25.5L 110.091 25.5L 110.091 26.5L 112.191 26.5L 112.191 25.5ZM 110.581 26.0981L 113.521 11.3981L 112.541 11.2019L 109.601 25.9019L 110.581 26.0981ZM 132.156 11.3L 132.578 11.5695L 133.07 10.8L 132.156 10.8L 132.156 11.3ZM 122.748 26L 122.748 26.5L 123.022 26.5L 123.17 26.2695L 122.748 26ZM 120.69 26L 120.204 26.1167L 120.296 26.5L 120.69 26.5L 120.69 26ZM 117.162 11.3L 117.162 10.8L 116.528 10.8L 116.676 11.4167L 117.162 11.3ZM 119.325 11.3L 119.812 11.1851L 119.721 10.8L 119.325 10.8L 119.325 11.3ZM 122.181 23.396L 121.695 23.5109L 121.965 24.6553L 122.602 23.6667L 122.181 23.396ZM 129.972 11.3L 129.972 10.8L 129.7 10.8L 129.552 11.0293L 129.972 11.3ZM 131.735 11.0305L 122.327 25.7305L 123.17 26.2695L 132.578 11.5695L 131.735 11.0305ZM 122.748 25.5L 120.69 25.5L 120.69 26.5L 122.748 26.5L 122.748 25.5ZM 121.177 25.8833L 117.649 11.1833L 116.676 11.4167L 120.204 26.1167L 121.177 25.8833ZM 117.162 11.8L 119.325 11.8L 119.325 10.8L 117.162 10.8L 117.162 11.8ZM 118.839 11.4149L 121.695 23.5109L 122.668 23.2811L 119.812 11.1851L 118.839 11.4149ZM 122.602 23.6667L 130.393 11.5707L 129.552 11.0293L 121.761 23.1253L 122.602 23.6667ZM 129.972 11.8L 132.156 11.8L 132.156 10.8L 129.972 10.8L 129.972 11.8ZM 134.031 11.3L 134.031 10.8L 133.621 10.8L 133.541 11.2019L 134.031 11.3ZM 136.131 11.3L 136.621 11.3981L 136.741 10.8L 136.131 10.8L 136.131 11.3ZM 133.191 26L 133.191 26.5L 133.601 26.5L 133.681 26.0981L 133.191 26ZM 131.091 26L 130.601 25.9019L 130.481 26.5L 131.091 26.5L 131.091 26ZM 134.031 11.8L 136.131 11.8L 136.131 10.8L 134.031 10.8L 134.031 11.8ZM 135.641 11.2019L 132.701 25.9019L 133.681 26.0981L 136.621 11.3981L 135.641 11.2019ZM 133.191 25.5L 131.091 25.5L 131.091 26.5L 133.191 26.5L 133.191 25.5ZM 131.581 26.0981L 134.521 11.3981L 133.541 11.2019L 130.601 25.9019L 131.581 26.0981ZM 140.532 11.3L 140.532 10.8L 140.122 10.8L 140.042 11.2019L 140.532 11.3ZM 150.066 12.056L 149.85 12.5068L 149.857 12.5102L 150.066 12.056ZM 152.481 14.156L 152.052 14.4133L 152.057 14.421L 152.481 14.156ZM 152.166 21.863L 151.734 21.6105L 151.732 21.6139L 152.166 21.863ZM 148.953 24.929L 149.184 25.3725L 149.186 25.3717L 148.953 24.929ZM 137.592 26L 137.102 25.9019L 136.982 26.5L 137.592 26.5L 137.592 26ZM 150.339 20.939L 149.903 20.6942L 149.902 20.6962L 150.339 20.939ZM 149.898 14.282L 149.566 14.6561L 149.57 14.659L 149.898 14.282ZM 142.254 13.127L 142.254 12.627L 141.844 12.627L 141.764 13.0291L 142.254 13.127ZM 140.049 24.173L 139.559 24.0751L 139.439 24.673L 140.049 24.673L 140.049 24.173ZM 140.532 11.8L 146.286 11.8L 146.286 10.8L 140.532 10.8L 140.532 11.8ZM 146.286 11.8C 147.7 11.8 148.882 12.0425 149.85 12.5068L 150.282 11.6052C 149.15 11.0615 147.812 10.8 146.286 10.8L 146.286 11.8ZM 149.857 12.5102C 150.839 12.9626 151.563 13.5984 152.052 14.4132L 152.91 13.8988C 152.307 12.8936 151.421 12.1294 150.275 11.6018L 149.857 12.5102ZM 152.057 14.421C 152.56 15.226 152.821 16.1881 152.821 17.327L 153.821 17.327C 153.821 16.0299 153.522 14.878 152.905 13.891L 152.057 14.421ZM 152.821 17.327C 152.821 18.9572 152.454 20.38 151.734 21.6105L 152.598 22.1155C 153.418 20.714 153.821 19.1128 153.821 17.327L 152.821 17.327ZM 151.732 21.6139C 151.025 22.8449 150.025 23.801 148.72 24.4863L 149.186 25.3717C 150.653 24.601 151.795 23.5131 152.6 22.1121L 151.732 21.6139ZM 148.722 24.4855C 147.433 25.1563 145.919 25.5 144.165 25.5L 144.165 26.5C 146.051 26.5 147.729 26.1297 149.184 25.3725L 148.722 24.4855ZM 144.165 25.5L 137.592 25.5L 137.592 26.5L 144.165 26.5L 144.165 25.5ZM 138.082 26.0981L 141.022 11.3981L 140.042 11.2019L 137.102 25.9019L 138.082 26.0981ZM 144.228 24.673C 145.711 24.673 147.028 24.3717 148.164 23.7507L 147.684 22.8733C 146.72 23.4003 145.573 23.673 144.228 23.673L 144.228 24.673ZM 148.164 23.7507C 149.293 23.1332 150.168 22.2757 150.776 21.1818L 149.902 20.6962C 149.39 21.6183 148.655 22.3428 147.684 22.8733L 148.164 23.7507ZM 150.775 21.1838C 151.395 20.079 151.7 18.8311 151.7 17.453L 150.7 17.453C 150.7 18.6789 150.431 19.755 149.903 20.6942L 150.775 21.1838ZM 151.7 17.453C 151.7 15.979 151.223 14.7732 150.226 13.905L 149.57 14.659C 150.309 15.3028 150.7 16.211 150.7 17.453L 151.7 17.453ZM 150.23 13.908C 149.237 13.027 147.824 12.627 146.076 12.627L 146.076 13.627C 147.688 13.627 148.823 13.997 149.566 14.656L 150.23 13.908ZM 146.076 12.627L 142.254 12.627L 142.254 13.627L 146.076 13.627L 146.076 12.627ZM 141.764 13.0291L 139.559 24.0751L 140.539 24.2709L 142.744 13.2249L 141.764 13.0291ZM 140.049 24.673L 144.228 24.673L 144.228 23.673L 140.049 23.673L 140.049 24.673ZM 157.378 24.866L 157.043 25.2379L 157.046 25.2403L 157.378 24.866ZM 156.097 19.658L 155.606 19.5606L 155.605 19.5665L 156.097 19.658ZM 157.756 11.3L 157.756 10.8L 157.345 10.8L 157.265 11.2027L 157.756 11.3ZM 159.856 11.3L 160.346 11.3988L 160.466 10.8L 159.856 10.8L 159.856 11.3ZM 158.176 19.637L 158.665 19.7378L 158.666 19.7358L 158.176 19.637ZM 158.953 23.48L 158.616 23.85L 158.621 23.8542L 158.953 23.48ZM 164.791 23.165L 164.447 22.802L 164.444 22.8051L 164.791 23.165ZM 166.471 19.616L 166.961 19.7141L 166.961 19.7138L 166.471 19.616ZM 168.13 11.3L 168.13 10.8L 167.72 10.8L 167.639 11.2022L 168.13 11.3ZM 170.188 11.3L 170.678 11.3974L 170.797 10.8L 170.188 10.8L 170.188 11.3ZM 168.508 19.763L 168.998 19.8629L 168.998 19.8604L 168.508 19.763ZM 166.072 24.572L 166.407 24.9428L 166.407 24.9426L 166.072 24.572ZM 161.452 25.668C 159.797 25.668 158.571 25.2554 157.709 24.4917L 157.046 25.2403C 158.144 26.2126 159.634 26.668 161.452 26.668L 161.452 25.668ZM 157.712 24.4941C 156.871 23.7386 156.429 22.6809 156.429 21.254L 155.429 21.254C 155.429 22.9071 155.952 24.2574 157.043 25.2379L 157.712 24.4941ZM 156.429 21.254C 156.429 20.8307 156.48 20.3304 156.588 19.7495L 155.605 19.5665C 155.489 20.1896 155.429 20.7533 155.429 21.254L 156.429 21.254ZM 156.587 19.7553L 158.246 11.3973L 157.265 11.2027L 155.606 19.5607L 156.587 19.7553ZM 157.756 11.8L 159.856 11.8L 159.856 10.8L 157.756 10.8L 157.756 11.8ZM 159.365 11.2012L 157.685 19.5382L 158.666 19.7358L 160.346 11.3988L 159.365 11.2012ZM 157.686 19.5362C 157.582 20.0426 157.529 20.5384 157.529 21.023L 158.529 21.023C 158.529 20.6116 158.574 20.1834 158.665 19.7378L 157.686 19.5362ZM 157.529 21.023C 157.529 22.1978 157.867 23.1692 158.616 23.85L 159.289 23.11C 158.806 22.6708 158.529 22.0042 158.529 21.023L 157.529 21.023ZM 158.621 23.8542C 159.361 24.5101 160.394 24.799 161.641 24.799L 161.641 23.799C 160.535 23.799 159.776 23.5419 159.284 23.1058L 158.621 23.8542ZM 161.641 24.799C 163.057 24.799 164.242 24.3889 165.138 23.5249L 164.444 22.8051C 163.771 23.4531 162.856 23.799 161.641 23.799L 161.641 24.799ZM 165.134 23.528C 166.036 22.6737 166.628 21.3781 166.961 19.7141L 165.98 19.5179C 165.669 21.0739 165.141 22.1443 164.447 22.802L 165.134 23.528ZM 166.961 19.7138L 168.62 11.3978L 167.639 11.2022L 165.98 19.5182L 166.961 19.7138ZM 168.13 11.8L 170.188 11.8L 170.188 10.8L 168.13 10.8L 168.13 11.8ZM 169.697 11.2026L 168.017 19.6656L 168.998 19.8604L 170.678 11.3974L 169.697 11.2026ZM 168.018 19.6631C 167.598 21.723 166.823 23.2163 165.736 24.2014L 166.407 24.9426C 167.7 23.7717 168.55 22.059 168.998 19.8629L 168.018 19.6631ZM 165.736 24.2012C 164.67 25.166 163.258 25.668 161.452 25.668L 161.452 26.668C 163.453 26.668 165.121 26.106 166.407 24.9428L 165.736 24.2012ZM 181.472 22.325L 181.959 22.2083L 181.867 21.825L 181.472 21.825L 181.472 22.325ZM 173.618 22.325L 173.618 21.825L 173.343 21.825L 173.196 22.0572L 173.618 22.325ZM 171.287 26L 171.287 26.5L 171.562 26.5L 171.71 26.2678L 171.287 26ZM 169.019 26L 168.601 25.7262L 168.095 26.5L 169.019 26.5L 169.019 26ZM 178.637 11.3L 178.637 10.8L 178.367 10.8L 178.219 11.0262L 178.637 11.3ZM 180.716 11.3L 181.201 11.1774L 181.106 10.8L 180.716 10.8L 180.716 11.3ZM 184.433 26L 184.433 26.5L 185.075 26.5L 184.918 25.8774L 184.433 26ZM 182.354 26L 181.868 26.1167L 181.96 26.5L 182.354 26.5L 182.354 26ZM 181.052 20.645L 181.052 21.145L 181.687 21.145L 181.538 20.528L 181.052 20.645ZM 179.309 13.4L 179.795 13.283L 179.52 12.1392L 178.888 13.1312L 179.309 13.4ZM 174.689 20.645L 174.268 20.3762L 173.777 21.145L 174.689 21.145L 174.689 20.645ZM 181.472 21.825L 173.618 21.825L 173.618 22.825L 181.472 22.825L 181.472 21.825ZM 173.196 22.0572L 170.865 25.7322L 171.71 26.2678L 174.041 22.5928L 173.196 22.0572ZM 171.287 25.5L 169.019 25.5L 169.019 26.5L 171.287 26.5L 171.287 25.5ZM 169.438 26.2738L 179.056 11.5738L 178.219 11.0262L 168.601 25.7262L 169.438 26.2738ZM 178.637 11.8L 180.716 11.8L 180.716 10.8L 178.637 10.8L 178.637 11.8ZM 180.232 11.4226L 183.949 26.1226L 184.918 25.8774L 181.201 11.1774L 180.232 11.4226ZM 184.433 25.5L 182.354 25.5L 182.354 26.5L 184.433 26.5L 184.433 25.5ZM 182.841 25.8833L 181.959 22.2083L 180.986 22.4417L 181.868 26.1167L 182.841 25.8833ZM 181.538 20.528L 179.795 13.283L 178.823 13.517L 180.566 20.762L 181.538 20.528ZM 178.888 13.1312L 174.268 20.3762L 175.111 20.9138L 179.731 13.6688L 178.888 13.1312ZM 174.689 21.145L 181.052 21.145L 181.052 20.145L 174.689 20.145L 174.689 21.145ZM 189.566 11.3L 189.566 10.8L 189.156 10.8L 189.076 11.2019L 189.566 11.3ZM 191.666 11.3L 192.156 11.3984L 192.276 10.8L 191.666 10.8L 191.666 11.3ZM 189.083 24.173L 188.593 24.0746L 188.473 24.673L 189.083 24.673L 189.083 24.173ZM 197.063 24.173L 197.554 24.2689L 197.67 23.673L 197.063 23.673L 197.063 24.173ZM 196.706 26L 196.706 26.5L 197.118 26.5L 197.197 26.0959L 196.706 26ZM 186.626 26L 186.136 25.9019L 186.016 26.5L 186.626 26.5L 186.626 26ZM 189.566 11.8L 191.666 11.8L 191.666 10.8L 189.566 10.8L 189.566 11.8ZM 191.176 11.2016L 188.593 24.0746L 189.573 24.2714L 192.156 11.3984L 191.176 11.2016ZM 189.083 24.673L 197.063 24.673L 197.063 23.673L 189.083 23.673L 189.083 24.673ZM 196.572 24.0771L 196.215 25.9041L 197.197 26.0959L 197.554 24.2689L 196.572 24.0771ZM 196.706 25.5L 186.626 25.5L 186.626 26.5L 196.706 26.5L 196.706 25.5ZM 187.116 26.0981L 190.056 11.3981L 189.076 11.2019L 186.136 25.9019L 187.116 26.0981ZM 4.032 37.3L 4.032 36.8L 3.6221 36.8L 3.54171 37.2019L 4.032 37.3ZM 13.566 38.056L 13.3496 38.5068L 13.3568 38.5102L 13.566 38.056ZM 15.981 40.156L 15.5522 40.4133L 15.557 40.421L 15.981 40.156ZM 15.666 47.863L 15.2344 47.6105L 15.2324 47.6139L 15.666 47.863ZM 12.453 50.929L 12.6838 51.3725L 12.6855 51.3717L 12.453 50.929ZM 1.092 52L 0.60171 51.9019L 0.482098 52.5L 1.092 52.5L 1.092 52ZM 13.839 46.939L 13.403 46.6942L 13.4019 46.6962L 13.839 46.939ZM 13.398 40.282L 13.0662 40.6561L 13.0696 40.659L 13.398 40.282ZM 5.754 39.127L 5.754 38.627L 5.34395 38.627L 5.26367 39.0291L 5.754 39.127ZM 3.549 50.173L 3.05867 50.0751L 2.93933 50.673L 3.549 50.673L 3.549 50.173ZM 4.032 37.8L 9.786 37.8L 9.786 36.8L 4.032 36.8L 4.032 37.8ZM 9.786 37.8C 11.2002 37.8 12.3825 38.0425 13.3496 38.5068L 13.7824 37.6052C 12.6495 37.0615 11.3118 36.8 9.786 36.8L 9.786 37.8ZM 13.3568 38.5102C 14.3394 38.9626 15.0633 39.5984 15.5523 40.4132L 16.4097 39.8988C 15.8067 38.8936 14.9206 38.1294 13.7752 37.6018L 13.3568 38.5102ZM 15.557 40.421C 16.0601 41.226 16.321 42.1881 16.321 43.327L 17.321 43.327C 17.321 42.0299 17.0219 40.878 16.405 39.891L 15.557 40.421ZM 16.321 43.327C 16.321 44.9572 15.9544 46.38 15.2344 47.6105L 16.0976 48.1155C 16.9176 46.714 17.321 45.1128 17.321 43.327L 16.321 43.327ZM 15.2324 47.6139C 14.5253 48.8449 13.5253 49.801 12.2205 50.4863L 12.6855 51.3717C 14.1527 50.601 15.2947 49.5131 16.0996 48.1121L 15.2324 47.6139ZM 12.2222 50.4855C 10.9331 51.1563 9.41882 51.5 7.665 51.5L 7.665 52.5C 9.55118 52.5 11.2289 52.1297 12.6838 51.3725L 12.2222 50.4855ZM 7.665 51.5L 1.092 51.5L 1.092 52.5L 7.665 52.5L 7.665 51.5ZM 1.58229 52.0981L 4.52229 37.3981L 3.54171 37.2019L 0.60171 51.9019L 1.58229 52.0981ZM 7.728 50.673C 9.21058 50.673 10.528 50.3717 11.6638 49.7507L 11.1842 48.8733C 10.22 49.4003 9.07342 49.673 7.728 49.673L 7.728 50.673ZM 11.6638 49.7507C 12.7935 49.1332 13.6684 48.2757 14.2761 47.1818L 13.4019 46.6962C 12.8896 47.6183 12.1545 48.3428 11.1842 48.8733L 11.6638 49.7507ZM 14.2749 47.1838C 14.8955 46.079 15.2 44.8311 15.2 43.453L 14.2 43.453C 14.2 44.6789 13.9305 45.755 13.4031 46.6942L 14.2749 47.1838ZM 15.2 43.453C 15.2 41.979 14.7233 40.7732 13.7264 39.905L 13.0696 40.659C 13.8087 41.3028 14.2 42.211 14.2 43.453L 15.2 43.453ZM 13.7298 39.908C 12.7367 39.027 11.3244 38.627 9.576 38.627L 9.576 39.627C 11.1876 39.627 12.3233 39.997 13.0662 40.656L 13.7298 39.908ZM 9.576 38.627L 5.754 38.627L 5.754 39.627L 9.576 39.627L 9.576 38.627ZM 5.26367 39.0291L 3.05867 50.0751L 4.03933 50.2709L 6.24433 39.2249L 5.26367 39.0291ZM 3.549 50.673L 7.728 50.673L 7.728 49.673L 3.549 49.673L 3.549 50.673ZM 28.4635 48.325L 28.9497 48.2083L 28.8577 47.825L 28.4635 47.825L 28.4635 48.325ZM 20.6095 48.325L 20.6095 47.825L 20.3346 47.825L 20.1873 48.0572L 20.6095 48.325ZM 18.2785 52L 18.2785 52.5L 18.5535 52.5L 18.7008 52.2678L 18.2785 52ZM 16.0105 52L 15.5921 51.7262L 15.0859 52.5L 16.0105 52.5L 16.0105 52ZM 25.6285 37.3L 25.6285 36.8L 25.3582 36.8L 25.2101 37.0262L 25.6285 37.3ZM 27.7075 37.3L 28.1923 37.1774L 28.0968 36.8L 27.7075 36.8L 27.7075 37.3ZM 31.4245 52L 31.4245 52.5L 32.0667 52.5L 31.9093 51.8774L 31.4245 52ZM 29.3455 52L 28.8593 52.1167L 28.9513 52.5L 29.3455 52.5L 29.3455 52ZM 28.0435 46.645L 28.0435 47.145L 28.6781 47.145L 28.5297 46.528L 28.0435 46.645ZM 26.3005 39.4L 26.7867 39.283L 26.5115 38.1392L 25.879 39.1312L 26.3005 39.4ZM 21.6805 46.645L 21.259 46.3762L 20.7687 47.145L 21.6805 47.145L 21.6805 46.645ZM 28.4635 47.825L 20.6095 47.825L 20.6095 48.825L 28.4635 48.825L 28.4635 47.825ZM 20.1873 48.0572L 17.8563 51.7322L 18.7008 52.2678L 21.0318 48.5928L 20.1873 48.0572ZM 18.2785 51.5L 16.0105 51.5L 16.0105 52.5L 18.2785 52.5L 18.2785 51.5ZM 16.4289 52.2738L 26.0469 37.5738L 25.2101 37.0262L 15.5921 51.7262L 16.4289 52.2738ZM 25.6285 37.8L 27.7075 37.8L 27.7075 36.8L 25.6285 36.8L 25.6285 37.8ZM 27.2228 37.4226L 30.9398 52.1226L 31.9093 51.8774L 28.1923 37.1774L 27.2228 37.4226ZM 31.4245 51.5L 29.3455 51.5L 29.3455 52.5L 31.4245 52.5L 31.4245 51.5ZM 29.8317 51.8833L 28.9497 48.2083L 27.9773 48.4417L 28.8593 52.1167L 29.8317 51.8833ZM 28.5297 46.528L 26.7867 39.283L 25.8144 39.517L 27.5574 46.762L 28.5297 46.528ZM 25.879 39.1312L 21.259 46.3762L 22.1021 46.9138L 26.7221 39.6688L 25.879 39.1312ZM 21.6805 47.145L 28.0435 47.145L 28.0435 46.145L 21.6805 46.145L 21.6805 47.145ZM 34.9824 51.664L 34.8243 52.1383L 34.8262 52.139L 34.9824 51.664ZM 32.6514 50.383L 32.2133 50.142L 32.0273 50.4801L 32.3073 50.7457L 32.6514 50.383ZM 33.5754 48.703L 33.9149 48.336L 33.4455 47.9017L 33.1373 48.462L 33.5754 48.703ZM 35.6964 49.942L 35.5267 50.4124L 35.5336 50.4148L 35.6964 49.942ZM 41.2194 49.732L 41.4791 50.1593L 41.4814 50.1578L 41.2194 49.732ZM 40.8624 46.162L 41.0536 45.7L 40.8624 46.162ZM 39.1404 45.574L 39.2849 45.0953L 39.2834 45.0949L 39.1404 45.574ZM 36.8724 44.776L 37.0734 44.3182L 36.8724 44.776ZM 35.3814 43.663L 34.992 43.9767L 34.9968 43.9826L 35.0018 43.9884L 35.3814 43.663ZM 35.5494 39.274L 35.9484 39.5753L 35.5494 39.274ZM 37.7124 37.699L 37.8957 38.1642L 37.9017 38.1618L 37.7124 37.699ZM 43.4664 37.468L 43.3334 37.9501L 43.3432 37.9526L 43.4664 37.468ZM 45.6084 38.371L 46.0578 38.5902L 46.2515 38.1931L 45.8812 37.952L 45.6084 38.371ZM 44.7684 40.093L 44.4768 40.4992L 44.958 40.8447L 45.2178 40.3122L 44.7684 40.093ZM 42.9204 39.211L 42.7804 39.691L 42.783 39.6918L 42.9204 39.211ZM 37.9014 39.631L 38.173 40.0508L 38.1787 40.047L 37.9014 39.631ZM 37.2504 42.592L 36.8882 42.9369L 36.8968 42.9456L 37.2504 42.592ZM 38.3214 43.285L 38.1357 43.7493L 38.1409 43.7513L 38.3214 43.285ZM 40.0854 43.873L 40.2304 43.3945L 40.2299 43.3943L 40.0854 43.873ZM 42.3114 44.671L 42.1062 45.127L 42.113 45.13L 42.1199 45.1329L 42.3114 44.671ZM 43.7604 45.742L 43.3744 46.0599L 43.38 46.0665L 43.7604 45.742ZM 43.5714 50.026L 43.1762 49.7196L 43.1724 49.7247L 43.5714 50.026ZM 41.3874 51.622L 41.5683 52.0882L 41.5743 52.0858L 41.3874 51.622ZM 38.1534 51.668C 37.1136 51.668 36.1094 51.5082 35.1386 51.189L 34.8262 52.139C 35.8994 52.4918 37.0092 52.668 38.1534 52.668L 38.1534 51.668ZM 35.1405 51.1897C 34.1753 50.8679 33.4712 50.4716 32.9955 50.0203L 32.3073 50.7457C 32.9235 51.3304 33.7735 51.7881 34.8243 52.1383L 35.1405 51.1897ZM 33.0895 50.624L 34.0135 48.944L 33.1373 48.462L 32.2133 50.142L 33.0895 50.624ZM 33.2359 49.07C 33.8534 49.6413 34.6215 50.0859 35.5268 50.4123L 35.866 49.4717C 35.0632 49.1821 34.4174 48.8007 33.9149 48.336L 33.2359 49.07ZM 35.5336 50.4148C 36.4404 50.7269 37.3774 50.883 38.3424 50.883L 38.3424 49.883C 37.4874 49.883 36.6604 49.7451 35.8591 49.4692L 35.5336 50.4148ZM 38.3424 50.883C 39.5998 50.883 40.6596 50.6574 41.4791 50.1593L 40.9597 49.3047C 40.3512 49.6746 39.4929 49.883 38.3424 49.883L 38.3424 50.883ZM 41.4814 50.1578C 42.3413 49.6287 42.8114 48.8597 42.8114 47.884L 41.8114 47.884C 41.8114 48.4763 41.5535 48.9393 40.9573 49.3062L 41.4814 50.1578ZM 42.8114 47.884C 42.8114 47.3403 42.6248 46.8603 42.2449 46.4804L 41.5378 47.1876C 41.7179 47.3677 41.8114 47.5877 41.8114 47.884L 42.8114 47.884ZM 42.2449 46.4804C 41.9136 46.1491 41.5136 45.8904 41.0536 45.7L 40.6712 46.624C 41.0232 46.7696 41.3092 46.9589 41.5378 47.1876L 42.2449 46.4804ZM 41.0536 45.7C 40.625 45.5227 40.0327 45.3211 39.2849 45.0953L 38.9959 46.0527C 39.732 46.2749 40.2878 46.4653 40.6712 46.624L 41.0536 45.7ZM 39.2834 45.0949C 38.3555 44.8179 37.6211 44.5587 37.0734 44.3182L 36.6714 45.2338C 37.2717 45.4973 38.0493 45.7701 38.9974 46.0531L 39.2834 45.0949ZM 37.0734 44.3182C 36.5702 44.0973 36.1337 43.7723 35.761 43.3376L 35.0018 43.9884C 35.4691 44.5337 36.0266 44.9507 36.6714 45.2338L 37.0734 44.3182ZM 35.7708 43.3493C 35.453 42.9549 35.2724 42.4166 35.2724 41.689L 34.2724 41.689C 34.2724 42.5854 34.4978 43.3631 34.992 43.9767L 35.7708 43.3493ZM 35.2724 41.689C 35.2724 40.8651 35.501 40.1679 35.9484 39.5753L 35.1504 38.9727C 34.5618 39.7521 34.2724 40.6649 34.2724 41.689L 35.2724 41.689ZM 35.9484 39.5753C 36.4028 38.9736 37.0437 38.4998 37.8957 38.1642L 37.5291 37.2338C 36.533 37.6262 35.732 38.2024 35.1504 38.9727L 35.9484 39.5753ZM 37.9017 38.1618C 38.7553 37.8126 39.7461 37.632 40.8834 37.632L 40.8834 36.632C 39.6407 36.632 38.5175 36.8294 37.5231 37.2362L 37.9017 38.1618ZM 40.8834 37.632C 41.752 37.632 42.5681 37.7389 43.3334 37.95L 43.5994 36.986C 42.7407 36.7491 41.8347 36.632 40.8834 36.632L 40.8834 37.632ZM 43.3432 37.9526C 44.1257 38.1515 44.7872 38.4329 45.3356 38.79L 45.8812 37.952C 45.2256 37.5251 44.4591 37.2045 43.5896 36.9834L 43.3432 37.9526ZM 45.159 38.1518L 44.319 39.8738L 45.2178 40.3122L 46.0578 38.5902L 45.159 38.1518ZM 45.06 39.6868C 44.4644 39.2593 43.7957 38.9411 43.0578 38.7302L 42.783 39.6918C 43.4171 39.8729 43.9803 40.1427 44.4768 40.4992L 45.06 39.6868ZM 43.0604 38.731C 42.3394 38.5207 41.578 38.417 40.7784 38.417L 40.7784 39.417C 41.4908 39.417 42.1574 39.5093 42.7804 39.691L 43.0604 38.731ZM 40.7784 38.417C 39.514 38.417 38.4471 38.6663 37.624 39.215L 38.1787 40.047C 38.7837 39.6437 39.6348 39.417 40.7784 39.417L 40.7784 38.417ZM 37.6298 39.2112C 36.7877 39.7561 36.3304 40.53 36.3304 41.5L 37.3304 41.5C 37.3304 40.902 37.587 40.4299 38.173 40.0508L 37.6298 39.2112ZM 36.3304 41.5C 36.3304 42.0527 36.5133 42.543 36.8883 42.9368L 37.6125 42.2472C 37.4275 42.053 37.3304 41.8153 37.3304 41.5L 36.3304 41.5ZM 36.8968 42.9456C 37.2428 43.2915 37.6584 43.5583 38.1357 43.7492L 38.5071 42.8208C 38.1444 42.6757 37.846 42.4805 37.6039 42.2384L 36.8968 42.9456ZM 38.1409 43.7513C 38.5919 43.9259 39.1936 44.1261 39.9409 44.3517L 40.2299 43.3943C 39.4932 43.1719 38.9189 42.9801 38.5019 42.8187L 38.1409 43.7513ZM 39.9404 44.3515C 40.854 44.6284 41.5735 44.8873 42.1062 45.127L 42.5166 44.215C 41.9293 43.9507 41.1647 43.6776 40.2304 43.3945L 39.9404 44.3515ZM 42.1199 45.1329C 42.6189 45.3398 43.0349 45.6476 43.3744 46.0599L 44.1464 45.4241C 43.7019 44.8844 43.1519 44.4782 42.5029 44.2091L 42.1199 45.1329ZM 43.38 46.0665C 43.6935 46.4341 43.8694 46.9271 43.8694 47.59L 44.8694 47.59C 44.8694 46.7409 44.6393 46.0019 44.1408 45.4175L 43.38 46.0665ZM 43.8694 47.59C 43.8694 48.4266 43.6347 49.1285 43.1763 49.7196L 43.9665 50.3324C 44.5721 49.5515 44.8694 48.6294 44.8694 47.59L 43.8694 47.59ZM 43.1724 49.7247C 42.718 50.3264 42.0694 50.8081 41.2005 51.1582L 41.5743 52.0858C 42.5814 51.6799 43.3888 51.0976 43.9704 50.3273L 43.1724 49.7247ZM 41.2065 51.1559C 40.3369 51.4933 39.3222 51.668 38.1534 51.668L 38.1534 52.668C 39.4206 52.668 40.5619 52.4787 41.5683 52.0881L 41.2065 51.1559ZM 62.2424 37.3L 62.7326 37.3981L 62.8523 36.8L 62.2424 36.8L 62.2424 37.3ZM 59.3024 52L 59.3024 52.5L 59.7123 52.5L 59.7926 52.0981L 59.3024 52ZM 57.2024 52L 56.7121 51.9019L 56.5925 52.5L 57.2024 52.5L 57.2024 52ZM 58.5044 45.49L 58.9946 45.5881L 59.1143 44.99L 58.5044 44.99L 58.5044 45.49ZM 50.0624 45.49L 50.0624 44.99L 49.6525 44.99L 49.5721 45.3919L 50.0624 45.49ZM 48.7604 52L 48.7604 52.5L 49.1703 52.5L 49.2506 52.0981L 48.7604 52ZM 46.6604 52L 46.1701 51.9019L 46.0505 52.5L 46.6604 52.5L 46.6604 52ZM 49.6004 37.3L 49.6004 36.8L 49.1905 36.8L 49.1101 37.2019L 49.6004 37.3ZM 51.7004 37.3L 52.1906 37.3981L 52.3103 36.8L 51.7004 36.8L 51.7004 37.3ZM 50.4404 43.6L 49.9501 43.5019L 49.8305 44.1L 50.4404 44.1L 50.4404 43.6ZM 58.8824 43.6L 58.8824 44.1L 59.2923 44.1L 59.3726 43.6981L 58.8824 43.6ZM 60.1424 37.3L 60.1424 36.8L 59.7325 36.8L 59.6521 37.2019L 60.1424 37.3ZM 61.7521 37.2019L 58.8121 51.9019L 59.7926 52.0981L 62.7326 37.3981L 61.7521 37.2019ZM 59.3024 51.5L 57.2024 51.5L 57.2024 52.5L 59.3024 52.5L 59.3024 51.5ZM 57.6926 52.0981L 58.9946 45.5881L 58.0141 45.3919L 56.7121 51.9019L 57.6926 52.0981ZM 58.5044 44.99L 50.0624 44.99L 50.0624 45.99L 58.5044 45.99L 58.5044 44.99ZM 49.5721 45.3919L 48.2701 51.9019L 49.2506 52.0981L 50.5526 45.5881L 49.5721 45.3919ZM 48.7604 51.5L 46.6604 51.5L 46.6604 52.5L 48.7604 52.5L 48.7604 51.5ZM 47.1506 52.0981L 50.0906 37.3981L 49.1101 37.2019L 46.1701 51.9019L 47.1506 52.0981ZM 49.6004 37.8L 51.7004 37.8L 51.7004 36.8L 49.6004 36.8L 49.6004 37.8ZM 51.2101 37.2019L 49.9501 43.5019L 50.9306 43.6981L 52.1906 37.3981L 51.2101 37.2019ZM 50.4404 44.1L 58.8824 44.1L 58.8824 43.1L 50.4404 43.1L 50.4404 44.1ZM 59.3726 43.6981L 60.6326 37.3981L 59.6521 37.2019L 58.3921 43.5019L 59.3726 43.6981ZM 60.1424 37.8L 62.2424 37.8L 62.2424 36.8L 60.1424 36.8L 60.1424 37.8ZM 75.0844 44.419L 74.907 43.9515L 73.6075 44.4444L 74.9232 44.8923L 75.0844 44.419ZM 76.6174 45.511L 76.212 45.8037L 76.6174 45.511ZM 75.4414 50.824L 75.7257 51.2353L 75.7267 51.2346L 75.4414 50.824ZM 63.7024 52L 63.2121 51.9019L 63.0924 52.5L 63.7024 52.5L 63.7024 52ZM 66.6424 37.3L 66.6424 36.8L 66.2324 36.8L 66.1521 37.2019L 66.6424 37.3ZM 76.5754 38.14L 76.2881 38.5494L 76.2964 38.5549L 76.5754 38.14ZM 77.0374 42.97L 76.6373 42.67L 76.6363 42.6714L 77.0374 42.97ZM 68.3854 39.001L 68.3854 38.501L 67.9758 38.501L 67.8951 38.9025L 68.3854 39.001ZM 67.4404 43.705L 66.9501 43.6065L 66.8299 44.205L 67.4404 44.205L 67.4404 43.705ZM 74.5594 42.991L 74.8444 43.4018L 74.8461 43.4006L 74.5594 42.991ZM 74.8534 39.463L 74.5872 39.8864L 74.5926 39.8896L 74.8534 39.463ZM 73.9924 49.564L 74.2753 49.9763L 74.277 49.9751L 73.9924 49.564ZM 74.3074 45.868L 74.0466 46.2947L 74.0518 46.2978L 74.3074 45.868ZM 67.1044 45.406L 67.1044 44.906L 66.6934 44.906L 66.6138 45.3092L 67.1044 45.406ZM 66.1384 50.299L 65.6478 50.2022L 65.53 50.799L 66.1384 50.799L 66.1384 50.299ZM 74.9232 44.8923C 75.4952 45.087 75.9158 45.3936 76.212 45.8037L 77.0227 45.2183C 76.5909 44.6204 75.9895 44.199 75.2455 43.9457L 74.9232 44.8923ZM 76.212 45.8037C 76.5022 46.2055 76.6634 46.727 76.6634 47.401L 77.6634 47.401C 77.6634 46.563 77.4605 45.8245 77.0227 45.2183L 76.212 45.8037ZM 76.6634 47.401C 76.6634 48.7332 76.16 49.7155 75.156 50.4134L 75.7267 51.2346C 77.0187 50.3365 77.6634 49.0368 77.6634 47.401L 76.6634 47.401ZM 75.157 50.4127C 74.1355 51.1189 72.6938 51.5 70.7794 51.5L 70.7794 52.5C 72.8129 52.5 74.4792 52.0971 75.7257 51.2353L 75.157 50.4127ZM 70.7794 51.5L 63.7024 51.5L 63.7024 52.5L 70.7794 52.5L 70.7794 51.5ZM 64.1926 52.0981L 67.1326 37.3981L 66.1521 37.2019L 63.2121 51.9019L 64.1926 52.0981ZM 66.6424 37.8L 73.1524 37.8L 73.1524 36.8L 66.6424 36.8L 66.6424 37.8ZM 73.1524 37.8C 74.5839 37.8 75.6078 38.0718 76.2881 38.5493L 76.8626 37.7307C 75.9469 37.0882 74.6888 36.8 73.1524 36.8L 73.1524 37.8ZM 76.2964 38.5549C 76.9586 39.0003 77.2934 39.636 77.2934 40.534L 78.2934 40.534C 78.2934 39.332 77.8161 38.3717 76.8544 37.7251L 76.2964 38.5549ZM 77.2934 40.534C 77.2934 41.3929 77.0679 42.0959 76.6374 42.67L 77.4374 43.27C 78.0148 42.5001 78.2934 41.5791 78.2934 40.534L 77.2934 40.534ZM 76.6363 42.6714C 76.2067 43.2483 75.6354 43.6752 74.907 43.9515L 75.2617 44.8865C 76.1573 44.5468 76.888 44.0077 77.4384 43.2686L 76.6363 42.6714ZM 67.8951 38.9025L 66.9501 43.6065L 67.9306 43.8035L 68.8756 39.0995L 67.8951 38.9025ZM 67.4404 44.205L 71.7454 44.205L 71.7454 43.205L 67.4404 43.205L 67.4404 44.205ZM 71.7454 44.205C 72.9956 44.205 74.046 43.9558 74.8444 43.4018L 74.2743 42.5802C 73.7007 42.9782 72.8751 43.205 71.7454 43.205L 71.7454 44.205ZM 74.8461 43.4006C 75.692 42.8084 76.1094 41.9416 76.1094 40.87L 75.1094 40.87C 75.1094 41.6464 74.8267 42.1936 74.2726 42.5814L 74.8461 43.4006ZM 76.1094 40.87C 76.1094 40.0799 75.7783 39.4423 75.1141 39.0364L 74.5926 39.8896C 74.9364 40.0997 75.1094 40.4001 75.1094 40.87L 76.1094 40.87ZM 75.1194 39.0397C 74.5145 38.6594 73.6907 38.501 72.7114 38.501L 72.7114 39.501C 73.608 39.501 74.2122 39.6506 74.5873 39.8863L 75.1194 39.0397ZM 72.7114 38.501L 68.3854 38.501L 68.3854 39.501L 72.7114 39.501L 72.7114 38.501ZM 70.9264 50.799C 72.3069 50.799 73.4443 50.5465 74.2753 49.9763L 73.7094 49.1517C 73.1124 49.5615 72.2058 49.799 70.9264 49.799L 70.9264 50.799ZM 74.277 49.9751C 75.1467 49.373 75.5844 48.5016 75.5844 47.422L 74.5844 47.422C 74.5844 48.1904 74.294 48.747 73.7077 49.1529L 74.277 49.9751ZM 75.5844 47.422C 75.5844 46.5606 75.2661 45.8563 74.5629 45.4382L 74.0518 46.2978C 74.3846 46.4957 74.5844 46.8274 74.5844 47.422L 75.5844 47.422ZM 74.5681 45.4414C 73.9471 45.0619 73.0734 44.906 72.0184 44.906L 72.0184 45.906C 73.0073 45.906 73.6596 46.0581 74.0466 46.2946L 74.5681 45.4414ZM 72.0184 44.906L 67.1044 44.906L 67.1044 45.906L 72.0184 45.906L 72.0184 44.906ZM 66.6138 45.3092L 65.6478 50.2022L 66.6289 50.3958L 67.5949 45.5028L 66.6138 45.3092ZM 66.1384 50.799L 70.9264 50.799L 70.9264 49.799L 66.1384 49.799L 66.1384 50.799ZM 82.9559 51.391L 82.7323 51.8382L 82.9559 51.391ZM 80.5829 49.228L 80.1508 49.4795L 80.1524 49.4824L 80.5829 49.228ZM 84.0059 38.308L 83.7559 37.875L 83.754 37.8761L 84.0059 38.308ZM 92.4059 37.909L 92.1823 38.3562L 92.1847 38.3574L 92.4059 37.909ZM 94.7999 40.093L 94.3678 40.3445L 94.3694 40.3474L 94.7999 40.093ZM 94.5059 47.8L 94.0682 47.5583L 94.5059 47.8ZM 90.3479 49.375L 90.6086 49.8016L 90.3479 49.375ZM 92.6789 46.897L 93.1212 47.1301L 93.1225 47.1277L 92.6789 46.897ZM 92.1959 40.219L 91.8513 40.5814L 91.8575 40.5871L 92.1959 40.219ZM 82.6829 42.424L 82.2417 42.1887L 82.2393 42.1933L 82.6829 42.424ZM 83.1659 49.102L 82.8243 49.4671L 82.8275 49.4701L 83.1659 49.102ZM 86.6729 51.668C 85.2899 51.668 84.1312 51.4196 83.1795 50.9438L 82.7323 51.8382C 83.8526 52.3984 85.1719 52.668 86.6729 52.668L 86.6729 51.668ZM 83.1795 50.9438C 82.2225 50.4653 81.5065 49.8082 81.0134 48.9736L 80.1524 49.4824C 80.7513 50.4958 81.6173 51.2807 82.7323 51.8382L 83.1795 50.9438ZM 81.015 48.9765C 80.5192 48.1247 80.2639 47.1288 80.2639 45.973L 79.2639 45.973C 79.2639 47.2812 79.5546 48.4553 80.1508 49.4795L 81.015 48.9765ZM 80.2639 45.973C 80.2639 44.4137 80.6162 43.0067 81.3146 41.7417L 80.4392 41.2583C 79.6536 42.6813 79.2639 44.2563 79.2639 45.973L 80.2639 45.973ZM 81.3146 41.7417C 82.0124 40.4778 82.9907 39.4791 84.2578 38.7399L 83.754 37.8761C 82.3331 38.7049 81.2254 39.8342 80.4392 41.2583L 81.3146 41.7417ZM 84.2559 38.741C 85.5287 38.0062 87.0015 37.632 88.6889 37.632L 88.6889 36.632C 86.8483 36.632 85.1991 37.0418 83.7559 37.875L 84.2559 38.741ZM 88.6889 37.632C 90.0719 37.632 91.2306 37.8804 92.1823 38.3562L 92.6295 37.4618C 91.5092 36.9016 90.1899 36.632 88.6889 36.632L 88.6889 37.632ZM 92.1847 38.3574C 93.1538 38.8355 93.8751 39.4982 94.3678 40.3445L 95.232 39.8415C 94.6327 38.8118 93.758 38.0185 92.6271 37.4606L 92.1847 38.3574ZM 94.3694 40.3474C 94.8635 41.1835 95.1189 42.171 95.1189 43.327L 96.1189 43.327C 96.1189 42.019 95.8283 40.8505 95.2304 39.8386L 94.3694 40.3474ZM 95.1189 43.327C 95.1189 44.8863 94.7666 46.2933 94.0682 47.5583L 94.9436 48.0417C 95.7292 46.6187 96.1189 45.0437 96.1189 43.327L 95.1189 43.327ZM 94.0682 47.5583C 93.3712 48.8209 92.3869 49.8195 91.1059 50.559L 91.6059 51.425C 93.041 50.5965 94.1567 49.4671 94.9436 48.0417L 94.0682 47.5583ZM 91.1059 50.559C 89.8331 51.2938 88.3603 51.668 86.6729 51.668L 86.6729 52.668C 88.5135 52.668 90.1627 52.2582 91.6059 51.425L 91.1059 50.559ZM 86.8619 50.799C 88.2591 50.799 89.5134 50.4709 90.6086 49.8016L 90.0872 48.9484C 89.1664 49.5111 88.0967 49.799 86.8619 49.799L 86.8619 50.799ZM 90.6086 49.8016C 91.6928 49.1391 92.5329 48.2465 93.1212 47.1301L 92.2366 46.6639C 91.733 47.6195 91.019 48.3789 90.0872 48.9484L 90.6086 49.8016ZM 93.1225 47.1277C 93.7075 46.0026 93.9979 44.7749 93.9979 43.453L 92.9979 43.453C 92.9979 44.6231 92.7423 45.6914 92.2353 46.6663L 93.1225 47.1277ZM 93.9979 43.453C 93.9979 41.9784 93.5213 40.7583 92.5343 39.8509L 91.8575 40.5871C 92.6065 41.2757 92.9979 42.2116 92.9979 43.453L 93.9979 43.453ZM 92.5404 39.8566C 91.5646 38.9288 90.1988 38.501 88.5209 38.501L 88.5209 39.501C 90.035 39.501 91.1192 39.8852 91.8514 40.5814L 92.5404 39.8566ZM 88.5209 38.501C 87.1237 38.501 85.8694 38.8291 84.7742 39.4984L 85.2956 40.3516C 86.2164 39.7889 87.2861 39.501 88.5209 39.501L 88.5209 38.501ZM 84.7742 39.4984C 83.6894 40.1613 82.8434 41.0606 82.2417 42.1887L 83.1241 42.6593C 83.6424 41.6874 84.3644 40.9207 85.2956 40.3516L 84.7742 39.4984ZM 82.2393 42.1933C 81.6547 43.3175 81.3639 44.5381 81.3639 45.847L 82.3639 45.847C 82.3639 44.6919 82.6191 43.6305 83.1265 42.6547L 82.2393 42.1933ZM 81.3639 45.847C 81.3639 47.3217 81.8405 48.5467 82.8243 49.4671L 83.5075 48.7369C 82.7553 48.0333 82.3639 47.0883 82.3639 45.847L 81.3639 45.847ZM 82.8275 49.4701C 83.8163 50.3791 85.1855 50.799 86.8619 50.799L 86.8619 49.799C 85.3463 49.799 84.2515 49.4209 83.5043 48.7339L 82.8275 49.4701ZM 107.255 48.325L 107.741 48.2083L 107.649 47.825L 107.255 47.825L 107.255 48.325ZM 99.4005 48.325L 99.4005 47.825L 99.1256 47.825L 98.9783 48.0572L 99.4005 48.325ZM 97.0695 52L 97.0695 52.5L 97.3445 52.5L 97.4918 52.2678L 97.0695 52ZM 94.8015 52L 94.3831 51.7262L 93.8769 52.5L 94.8015 52.5L 94.8015 52ZM 104.42 37.3L 104.42 36.8L 104.149 36.8L 104.001 37.0262L 104.42 37.3ZM 106.499 37.3L 106.983 37.1774L 106.888 36.8L 106.499 36.8L 106.499 37.3ZM 110.216 52L 110.216 52.5L 110.858 52.5L 110.7 51.8774L 110.216 52ZM 108.137 52L 107.65 52.1167L 107.742 52.5L 108.137 52.5L 108.137 52ZM 106.835 46.645L 106.835 47.145L 107.469 47.145L 107.321 46.528L 106.835 46.645ZM 105.092 39.4L 105.578 39.283L 105.303 38.1392L 104.67 39.1312L 105.092 39.4ZM 100.472 46.645L 100.05 46.3762L 99.5597 47.145L 100.472 47.145L 100.472 46.645ZM 107.255 47.825L 99.4005 47.825L 99.4005 48.825L 107.255 48.825L 107.255 47.825ZM 98.9783 48.0572L 96.6473 51.7322L 97.4918 52.2678L 99.8228 48.5928L 98.9783 48.0572ZM 97.0695 51.5L 94.8015 51.5L 94.8015 52.5L 97.0695 52.5L 97.0695 51.5ZM 95.2199 52.2738L 104.838 37.5738L 104.001 37.0262L 94.3831 51.7262L 95.2199 52.2738ZM 104.42 37.8L 106.499 37.8L 106.499 36.8L 104.42 36.8L 104.42 37.8ZM 106.014 37.4226L 109.731 52.1226L 110.7 51.8774L 106.983 37.1774L 106.014 37.4226ZM 110.216 51.5L 108.137 51.5L 108.137 52.5L 110.216 52.5L 110.216 51.5ZM 108.623 51.8833L 107.741 48.2083L 106.768 48.4417L 107.65 52.1167L 108.623 51.8833ZM 107.321 46.528L 105.578 39.283L 104.605 39.517L 106.348 46.762L 107.321 46.528ZM 104.67 39.1312L 100.05 46.3762L 100.893 46.9138L 105.513 39.6688L 104.67 39.1312ZM 100.472 47.145L 106.835 47.145L 106.835 46.145L 100.472 46.145L 100.472 47.145ZM 125.092 45.217L 125.483 45.5287L 125.092 45.217ZM 121.837 47.212L 121.712 46.7281L 121.084 46.8913L 121.401 47.4568L 121.837 47.212ZM 124.525 52L 124.525 52.5L 125.38 52.5L 124.961 51.7552L 124.525 52ZM 122.299 52L 121.865 52.2476L 122.009 52.5L 122.299 52.5L 122.299 52ZM 119.737 47.506L 120.172 47.2584L 120.028 47.006L 119.737 47.006L 119.737 47.506ZM 115.411 47.506L 115.411 47.006L 115 47.006L 114.921 47.4097L 115.411 47.506ZM 114.529 52L 114.529 52.5L 114.941 52.5L 115.02 52.0963L 114.529 52ZM 112.408 52L 111.918 51.9019L 111.799 52.5L 112.408 52.5L 112.408 52ZM 115.348 37.3L 115.348 36.8L 114.939 36.8L 114.858 37.2019L 115.348 37.3ZM 124.819 38.434L 124.506 38.8233L 124.512 38.8284L 124.819 38.434ZM 122.908 44.713L 122.593 44.3251L 122.908 44.713ZM 123.244 39.799L 123.543 39.3979L 123.244 39.799ZM 117.091 39.127L 117.091 38.627L 116.682 38.627L 116.601 39.0286L 117.091 39.127ZM 115.768 45.721L 115.278 45.6226L 115.158 46.221L 115.768 46.221L 115.768 45.721ZM 125.747 41.605C 125.747 42.9536 125.389 44.0422 124.701 44.9053L 125.483 45.5287C 126.335 44.4598 126.747 43.1404 126.747 41.605L 125.747 41.605ZM 124.701 44.9053C 124.01 45.7729 123.025 46.3865 121.712 46.7281L 121.963 47.6959C 123.449 47.3095 124.635 46.5931 125.483 45.5287L 124.701 44.9053ZM 121.401 47.4568L 124.089 52.2448L 124.961 51.7552L 122.273 46.9672L 121.401 47.4568ZM 124.525 51.5L 122.299 51.5L 122.299 52.5L 124.525 52.5L 124.525 51.5ZM 122.734 51.7524L 120.172 47.2584L 119.303 47.7536L 121.865 52.2476L 122.734 51.7524ZM 119.737 47.006L 119.338 47.006L 119.338 48.006L 119.737 48.006L 119.737 47.006ZM 119.338 47.006L 115.411 47.006L 115.411 48.006L 119.338 48.006L 119.338 47.006ZM 114.921 47.4097L 114.039 51.9037L 115.02 52.0963L 115.902 47.6023L 114.921 47.4097ZM 114.529 51.5L 112.408 51.5L 112.408 52.5L 114.529 52.5L 114.529 51.5ZM 112.899 52.0981L 115.839 37.3981L 114.858 37.2019L 111.918 51.9019L 112.899 52.0981ZM 115.348 37.8L 120.829 37.8L 120.829 36.8L 115.348 36.8L 115.348 37.8ZM 120.829 37.8C 122.485 37.8 123.688 38.1641 124.506 38.8233L 125.133 38.0447C 124.075 37.1919 122.618 36.8 120.829 36.8L 120.829 37.8ZM 124.512 38.8284C 125.325 39.4618 125.747 40.3632 125.747 41.605L 126.747 41.605C 126.747 40.1028 126.218 38.8902 125.127 38.0396L 124.512 38.8284ZM 119.401 46.221C 120.981 46.221 122.278 45.8705 123.224 45.1009L 122.593 44.3251C 121.887 44.8995 120.846 45.221 119.401 45.221L 119.401 46.221ZM 123.224 45.1009C 124.19 44.315 124.647 43.1857 124.647 41.794L 123.647 41.794C 123.647 42.9503 123.279 43.767 122.593 44.3251L 123.224 45.1009ZM 124.647 41.794C 124.647 40.7854 124.295 39.9575 123.543 39.3979L 122.946 40.2001C 123.398 40.5365 123.647 41.0386 123.647 41.794L 124.647 41.794ZM 123.543 39.3979C 122.821 38.8603 121.83 38.627 120.64 38.627L 120.64 39.627C 121.719 39.627 122.464 39.8417 122.946 40.2001L 123.543 39.3979ZM 120.64 38.627L 117.091 38.627L 117.091 39.627L 120.64 39.627L 120.64 38.627ZM 116.601 39.0286L 115.278 45.6226L 116.259 45.8194L 117.582 39.2254L 116.601 39.0286ZM 115.768 46.221L 119.401 46.221L 119.401 45.221L 115.768 45.221L 115.768 46.221ZM 130.606 37.3L 130.606 36.8L 130.196 36.8L 130.116 37.2019L 130.606 37.3ZM 140.14 38.056L 139.924 38.5068L 139.931 38.5102L 140.14 38.056ZM 142.555 40.156L 142.126 40.4133L 142.131 40.421L 142.555 40.156ZM 142.24 47.863L 141.809 47.6105L 141.807 47.6139L 142.24 47.863ZM 139.027 50.929L 139.258 51.3725L 139.26 51.3717L 139.027 50.929ZM 127.666 52L 127.176 51.9019L 127.056 52.5L 127.666 52.5L 127.666 52ZM 140.413 46.939L 139.977 46.6942L 139.976 46.6962L 140.413 46.939ZM 139.972 40.282L 139.64 40.6561L 139.644 40.659L 139.972 40.282ZM 132.328 39.127L 132.328 38.627L 131.918 38.627L 131.838 39.0291L 132.328 39.127ZM 130.123 50.173L 129.633 50.0751L 129.514 50.673L 130.123 50.673L 130.123 50.173ZM 130.606 37.8L 136.36 37.8L 136.36 36.8L 130.606 36.8L 130.606 37.8ZM 136.36 37.8C 137.774 37.8 138.957 38.0425 139.924 38.5068L 140.357 37.6052C 139.224 37.0615 137.886 36.8 136.36 36.8L 136.36 37.8ZM 139.931 38.5102C 140.914 38.9626 141.638 39.5984 142.126 40.4132L 142.984 39.8988C 142.381 38.8936 141.495 38.1294 140.349 37.6018L 139.931 38.5102ZM 142.131 40.421C 142.634 41.226 142.895 42.1881 142.895 43.327L 143.895 43.327C 143.895 42.0299 143.596 40.878 142.979 39.891L 142.131 40.421ZM 142.895 43.327C 142.895 44.9572 142.529 46.38 141.809 47.6105L 142.672 48.1155C 143.492 46.714 143.895 45.1128 143.895 43.327L 142.895 43.327ZM 141.807 47.6139C 141.099 48.8449 140.099 49.801 138.795 50.4863L 139.26 51.3717C 140.727 50.601 141.869 49.5131 142.674 48.1121L 141.807 47.6139ZM 138.796 50.4855C 137.507 51.1563 135.993 51.5 134.239 51.5L 134.239 52.5C 136.125 52.5 137.803 52.1297 139.258 51.3725L 138.796 50.4855ZM 134.239 51.5L 127.666 51.5L 127.666 52.5L 134.239 52.5L 134.239 51.5ZM 128.157 52.0981L 131.097 37.3981L 130.116 37.2019L 127.176 51.9019L 128.157 52.0981ZM 134.302 50.673C 135.785 50.673 137.102 50.3717 138.238 49.7507L 137.758 48.8733C 136.794 49.4003 135.648 49.673 134.302 49.673L 134.302 50.673ZM 138.238 49.7507C 139.368 49.1332 140.243 48.2757 140.85 47.1818L 139.976 46.6962C 139.464 47.6183 138.729 48.3428 137.758 48.8733L 138.238 49.7507ZM 140.849 47.1838C 141.47 46.079 141.774 44.8311 141.774 43.453L 140.774 43.453C 140.774 44.6789 140.505 45.755 139.977 46.6942L 140.849 47.1838ZM 141.774 43.453C 141.774 41.979 141.297 40.7732 140.301 39.905L 139.644 40.659C 140.383 41.3028 140.774 42.211 140.774 43.453L 141.774 43.453ZM 140.304 39.908C 139.311 39.027 137.899 38.627 136.15 38.627L 136.15 39.627C 137.762 39.627 138.897 39.997 139.64 40.656L 140.304 39.908ZM 136.15 38.627L 132.328 38.627L 132.328 39.627L 136.15 39.627L 136.15 38.627ZM 131.838 39.0291L 129.633 50.0751L 130.614 50.2709L 132.819 39.2249L 131.838 39.0291ZM 130.123 50.673L 134.302 50.673L 134.302 49.673L 130.123 49.673L 130.123 50.673Z"/>
</defs>
</svg>
