<svg width="171" height="226" viewBox="0 0 171 226" version="1.1" xmlns="http://www.w3.org/2000/svg" xmlns:xlink="http://www.w3.org/1999/xlink">
<title>Group 5.1</title>
<desc>Created using Figma</desc>
<g id="Canvas" transform="translate(3533 705)">
<g id="Group 5.1">
<g id="Vector 3">
<use xlink:href="#path0_fill" transform="matrix(6.47018e-17 1 -1 6.47018e-17 -3363.2 -703.601)" fill="#212830"/>
<use xlink:href="#path1_fill" transform="matrix(6.47018e-17 1 -1 6.47018e-17 -3363.2 -703.601)" fill="#212830"/>
<use xlink:href="#path2_fill" transform="matrix(6.47018e-17 1 -1 6.47018e-17 -3363.2 -703.601)" fill="#212830"/>
<use xlink:href="#path3_stroke" transform="matrix(6.47018e-17 1 -1 6.47018e-17 -3363.2 -703.601)"/>
</g>
<g id="Ellipse">
<use xlink:href="#path4_fill" transform="matrix(6.47018e-17 1 -1 6.47018e-17 -3493 -612.601)" fill="#212830"/>
<mask id="mask0_outline_ins">
<use xlink:href="#path4_fill" fill="white" transform="matrix(6.47018e-17 1 -1 6.47018e-17 -3493 -612.601)"/>
</mask>
<g mask="url(#mask0_outline_ins)">
<use xlink:href="#path5_stroke_2x" transform="matrix(6.47018e-17 1 -1 6.47018e-17 -3493 -612.601)"/>
</g>
</g>
</g>
</g>
<defs>
<path id="path0_fill" d="M 149.5 128.298C 117.9 86.698 85.6666 110.965 73.4999 128.298L 58.6887 112.298C 103.64 61.098 147.959 90.9646 164.5 112.298L 149.5 128.298Z"/>
<path id="path1_fill" d="M 194 81.798L 179 96.798C 120.2 35.198 64.5 71.1313 44 96.798L 29.5 81.798C 98.7 9.79797 168 51.798 194 81.798Z"/>
<path id="path2_fill" d="M 208 65.798C 127.6 -15.802 45.8333 31.798 15 65.798L 0 50.798C 92.8 -41.202 187.333 12.4646 223 50.798L 208 65.798Z"/>
<path id="path3_stroke" d="M 73.4999 128.298L 73.133 128.638L 73.5535 129.092L 73.9092 128.585L 73.4999 128.298ZM 149.5 128.298L 149.102 128.6L 149.46 129.072L 149.865 128.64L 149.5 128.298ZM 164.5 112.298L 164.865 112.64L 165.156 112.329L 164.895 111.992L 164.5 112.298ZM 58.6887 112.298L 58.313 111.968L 58.0156 112.307L 58.3218 112.638L 58.6887 112.298ZM 179 96.798L 178.638 97.1432L 178.992 97.5134L 179.354 97.1515L 179 96.798ZM 194 81.798L 194.354 82.1515L 194.683 81.8223L 194.378 81.4705L 194 81.798ZM 29.5 81.798L 29.1395 81.4515L 28.8055 81.799L 29.1405 82.1455L 29.5 81.798ZM 44 96.798L 43.6405 97.1455L 44.0358 97.5544L 44.3907 97.11L 44 96.798ZM 15 65.798L 14.6464 66.1515L 15.0177 66.5228L 15.3704 66.1339L 15 65.798ZM 208 65.798L 207.644 66.1489L 207.997 66.5077L 208.354 66.1515L 208 65.798ZM 223 50.798L 223.354 51.1515L 223.695 50.8105L 223.366 50.4574L 223 50.798ZM 0 50.798L -0.35202 50.4429L -0.708641 50.7964L -0.353553 51.1515L 0 50.798ZM 73.9092 128.585C 79.9529 119.975 90.9591 109.682 104.322 106.686C 117.618 103.705 133.392 107.919 149.102 128.6L 149.898 127.996C 134.008 107.077 117.865 102.624 104.103 105.71C 90.4075 108.781 79.2137 119.288 73.0907 128.011L 73.9092 128.585ZM 149.865 128.64L 164.865 112.64L 164.135 111.956L 149.135 127.956L 149.865 128.64ZM 164.895 111.992C 156.576 101.262 141.265 88.3714 122.346 84.6076C 103.379 80.8343 80.8879 86.2549 58.313 111.968L 59.0645 112.628C 81.4406 87.1411 103.585 81.895 122.151 85.5884C 140.764 89.2912 155.883 102 164.105 112.604L 164.895 111.992ZM 58.3218 112.638L 73.133 128.638L 73.8669 127.958L 59.0556 111.958L 58.3218 112.638ZM 179.354 97.1515L 194.354 82.1515L 193.646 81.4444L 178.646 96.4444L 179.354 97.1515ZM 194.378 81.4705C 181.324 66.4079 157.403 48.331 128.038 43.0559C 98.6361 37.774 63.8461 45.3406 29.1395 81.4515L 29.8605 82.1444C 64.3539 46.2554 98.8139 38.8219 127.862 44.0401C 156.947 49.265 180.676 67.188 193.622 82.1254L 194.378 81.4705ZM 29.1405 82.1455L 43.6405 97.1455L 44.3595 96.4505L 29.8595 81.4505L 29.1405 82.1455ZM 44.3907 97.11C 54.5879 84.3428 73.5406 69.0281 97.2301 64.5643C 120.88 60.108 149.339 66.4492 178.638 97.1432L 179.362 96.4527C 149.861 65.5467 121.07 59.0546 97.0449 63.5816C 73.0594 68.1012 53.9121 83.5865 43.6093 96.4859L 44.3907 97.11ZM 15.3704 66.1339C 30.7313 49.1953 58.787 28.8672 92.9978 22.9406C 127.174 17.02 167.553 25.4597 207.644 66.1489L 208.356 65.447C 168.047 24.5362 127.343 15.9759 92.8272 21.9553C 58.3464 27.9287 30.102 48.4006 14.6296 65.4621L 15.3704 66.1339ZM 208.354 66.1515L 223.354 51.1515L 222.646 50.4444L 207.646 65.4444L 208.354 66.1515ZM 223.366 50.4574C 205.476 31.2296 172.832 8.16058 133.008 1.42995C 93.1522 -5.30617 46.1583 4.33349 -0.35202 50.4429L 0.35202 51.153C 46.6417 5.26243 93.3144 -4.26458 132.842 2.41597C 172.401 9.102 204.857 32.033 222.634 51.1385L 223.366 50.4574ZM -0.353553 51.1515L 14.6464 66.1515L 15.3536 65.4444L 0.353553 50.4444L -0.353553 51.1515Z"/>
<path id="path4_fill" d="M 40 20C 40 31.0457 31.0457 40 20 40C 8.9543 40 0 31.0457 0 20C 0 8.9543 8.9543 0 20 0C 31.0457 0 40 8.9543 40 20Z"/>
<path id="path5_stroke_2x" d="M 39 20C 39 30.4934 30.4934 39 20 39L 20 41C 31.598 41 41 31.598 41 20L 39 20ZM 20 39C 9.50659 39 1 30.4934 1 20L -1 20C -1 31.598 8.40202 41 20 41L 20 39ZM 1 20C 1 9.50659 9.50659 1 20 1L 20 -1C 8.40202 -1 -1 8.40202 -1 20L 1 20ZM 20 1C 30.4934 1 39 9.50659 39 20L 41 20C 41 8.40202 31.598 -1 20 -1L 20 1Z"/>
</defs>
</svg>
